{
.appVersion = "3117";
.formatVersion = 3;
DisplayStrings = (
"fde-ffort_—–+äáà",
"optical
VOVOVOV
ovovovowowowo
atnionea
0123456789",
"̵̶̷̸̧̨̛̣̦̈̇̀́̋̂̌̆̊̃̄̉̏̑̒/brevecomb_acutecomb/brevecomb_gravecomb/brevecomb_hookabovecomb/brevecomb_tildecomb/circumflexcomb_acutecomb/circumflexcomb_gravecomb/circumflexcomb_hookabovecomb/circumflexcomb_tildecomb"
);
axes = (
{
name = Weight;
tag = wght;
}
);
classes = (
{
automatic = 1;

glyphs = (
{
glyphname = A;
lastChange = "2022-03-19 19:26:21 +0000";
layers = (
{
anchors = (
{
name = bottom;
pos = (772,0);
},
{
name = ogonek;
pos = (1362,86);
},
{
name = top;
pos = (772,1480);
}
);
layerId = "9B85AB65-32D7-4FED-B27C-3C7447013A9D";
shapes = (
{
closed = 1;
nodes = (
(386,0,ls),
(440,0,o),
(472,24,o),
(490,74,cs),
(560,274,l),
(986,274,l),
(1054,74,ls),
(1071,24,o),
(1122,0,o),
(1176,0,cs),
(1398,0,ls),
(1451,0,o),
(1479,24,o),
(1479,65,cs),
(1479,76,o),
(1477,90,o),
(1472,104,cs),
(1016,1408,ls),
(999,1456,o),
(966,1480,o),
(912,1480,cs),
(628,1480,ls),
(576,1480,o),
(543,1456,o),
(526,1408,cs),
(68,104,ls),
(63,90,o),
(61,76,o),
(61,65,cs),
(61,24,o),
(89,0,o),
(142,0,cs)
);
},
{
closed = 1;
nodes = (
(770,1030,l),
(918,584,l),
(636,584,l)
);
}
);
width = 1542;
}
);
unicode = 65;
},
{
glyphname = AE;
lastChange = "2021-06-09 17:49:04 +0000";
layers = (
{
anchors = (
{
name = bottom;
pos = (1074,0);
},
{
name = top;
pos = (1074,1480);
}
);
layerId = "9B85AB65-32D7-4FED-B27C-3C7447013A9D";
shapes = (
{
closed = 1;
nodes = (
(338,0,ls),
(388,0,o),
(433,23,o),
(468,74,cs),
(592,256,l),
(992,256,l),
(992,74,ls),
(992,24,o),
(1016,0,o),
(1068,0,cs),
(1938,0,ls),
(1998,0,o),
(2028,30,o),
(2028,90,cs),
(2028,288,ls),
(2028,348,o),
(1998,378,o),
(1938,378,cs),
(1378,378,l),
(1378,566,l),
(1788,566,ls),
(1848,566,o),
(1878,596,o),
(1878,656,cs),
(1878,826,ls),
(1878,886,o),
(1848,916,o),
(1788,916,cs),
(1378,916,l),
(1378,1102,l),
(1938,1102,ls),
(1998,1102,o),
(2028,1132,o),
(2028,1192,cs),
(2028,1390,ls),
(2028,1450,o),
(1998,1480,o),
(1938,1480,cs),
(1030,1480,ls),
(978,1480,o),
(934,1456,o),
(902,1408,cs),
(46,104,ls),
(29,79,o),
(21,57,o),
(21,40,cs),
(21,14,o),
(41,0,o),
(84,0,cs)
);
},
{
closed = 1;
nodes = (
(1022,986,l),
(1022,584,l),
(768,584,l)
);
}
);
width = 2148;
}
);
unicode = 198;
},
{
glyphname = AEacute;
lastChange = "2021-06-09 17:49:04 +0000";
layers = (
{
layerId = "9B85AB65-32D7-4FED-B27C-3C7447013A9D";
shapes = (
{
closed = 1;
nodes = (
(416,0,ls),
(466,0,o),
(510,24,o),
(546,74,cs),
(670,256,l),
(1110,256,l),
(1110,74,ls),
(1108,24,o),
(1134,0,o),
(1186,0,cs),
(2056,0,ls),
(2116,0,o),
(2146,30,o),
(2146,90,cs),
(2146,288,ls),
(2146,348,o),
(2116,378,o),
(2056,378,cs),
(1486,378,l),
(1486,566,l),
(1906,566,ls),
(1966,566,o),
(1996,596,o),
(1996,656,cs),
(1996,826,ls),
(1996,886,o),
(1966,916,o),
(1906,916,cs),
(1486,916,l),
(1486,1102,l),
(2056,1102,ls),
(2116,1102,o),
(2146,1132,o),
(2146,1192,cs),
(2146,1390,ls),
(2146,1450,o),
(2116,1480,o),
(2056,1480,cs),
(1198,1480,ls),
(1146,1480,o),
(1104,1456,o),
(1070,1408,cs),
(164,104,ls),
(146,79,o),
(137,58,o),
(137,41,cs),
(137,15,o),
(159,0,o),
(202,0,cs)
);
},
{
closed = 1;
nodes = (
(1140,996,l),
(1140,584,l),
(876,584,l)
);
},
{
closed = 1;
nodes = (
(1248,1596,o),
(1274,1600,o),
(1304,1610,cs),
(1362,1628,o),
(1434,1664,o),
(1496,1704,cs),
(1545,1737,o),
(1566,1777,o),
(1566,1813,cs),
(1566,1860,o),
(1530,1899,o),
(1475,1899,cs),
(1449,1899,o),
(1420,1890,o),
(1388,1870,cs),
(1356,1848,o),
(1326,1826,o),
(1298,1802,cs),
(1240,1752,o),
(1198,1702,o),
(1182,1662,cs),
(1177,1651,o),
(1175,1641,o),
(1175,1633,cs),
(1175,1610,o),
(1192,1596,o),
(1226,1596,cs)
);
}
);
width = 2300;
}
);
unicode = 508;
},
{
glyphname = B;
kernLeft = H;
lastChange = "2022-03-19 19:36:22 +0000";
layers = (
{
anchors = (
{
name = bottom;
pos = (748,0);
},
{
name = top;
pos = (748,1480);
}
);
layerId = "9B85AB65-32D7-4FED-B27C-3C7447013A9D";
shapes = (
{
closed = 1;
nodes = (
(906,0,ls),
(1268,0,o),
(1396,210,o),
(1396,438,cs),
(1396,660,o),
(1206,760,o),
(1114,768,c),
(1212,788,o),
(1312,904,o),
(1312,1064,cs),
(1312,1066,ls),
(1312,1328,o),
(1114,1480,o),
(832,1480,cs),
(250,1480,ls),
(192,1480,o),
(160,1448,o),
(160,1390,cs),
(160,90,ls),
(160,32,o),
(192,0,o),
(250,0,cs)
);
},
{
closed = 1;
nodes = (
(540,590,l),
(864,590,ls),
(952,590,o),
(998,546,o),
(998,462,cs),
(998,378,o),
(952,336,o),
(864,336,cs),
(540,336,l)
);
},
{
closed = 1;
nodes = (
(540,1144,l),
(816,1144,ls),
(896,1144,o),
(940,1096,o),
(940,1020,cs),
(940,944,o),
(896,896,o),
(816,896,cs),
(540,896,l)
);
}
);
width = 1496;
}
);
metricLeft = H;
unicode = 66;
},
{
glyphname = C;
kernLeft = O;
lastChange = "2022-03-19 19:35:51 +0000";
layers = (
{
anchors = (
{
name = bottom;
pos = (858,0);
},
{
name = top;
pos = (868,1480);
}
);
layerId = "9B85AB65-32D7-4FED-B27C-3C7447013A9D";
shapes = (
{
closed = 1;
nodes = (
(1076,-36,o),
(1266,40,o),
(1410,174,cs),
(1431,194,o),
(1440,214,o),
(1440,235,cs),
(1440,259,o),
(1427,282,o),
(1404,302,cs),
(1250,432,ls),
(1230,449,o),
(1211,457,o),
(1192,457,cs),
(1170,457,o),
(1146,447,o),
(1122,428,cs),
(1054,374,o),
(968,344,o),
(878,344,cs),
(658,344,o),
(518,500,o),
(518,740,cs),
(518,980,o),
(658,1140,o),
(878,1140,cs),
(972,1140,o),
(1059,1106,o),
(1130,1050,cs),
(1154,1031,o),
(1175,1020,o),
(1197,1020,cs),
(1216,1020,o),
(1235,1028,o),
(1256,1044,cs),
(1414,1168,ls),
(1440,1189,o),
(1454,1212,o),
(1454,1236,cs),
(1454,1255,o),
(1445,1275,o),
(1426,1294,cs),
(1280,1438,o),
(1084,1518,o),
(878,1518,cs),
(430,1518,o),
(100,1190,o),
(100,740,cs),
(100,292,o),
(430,-36,o),
(878,-36,cs)
);
}
);
width = 1574;
}
);
metricLeft = O;
unicode = 67;
},
{
glyphname = D;
kernLeft = H;
kernRight = O;
lastChange = "2022-03-19 19:27:05 +0000";
layers = (
{
anchors = (
{
name = bottom;
pos = (788,0);
},
{
name = center;
pos = (788,740);
},
{
name = top;
pos = (788,1480);
}
);
layerId = "9B85AB65-32D7-4FED-B27C-3C7447013A9D";
shapes = (
{
closed = 1;
nodes = (
(740,0,ls),
(1146,0,o),
(1474,318,o),
(1474,740,cs),
(1474,1152,o),
(1162,1480,o),
(742,1480,cs),
(250,1480,ls),
(192,1480,o),
(160,1448,o),
(160,1390,cs),
(160,90,ls),
(160,32,o),
(192,0,o),
(250,0,cs)
);
},
{
closed = 1;
nodes = (
(558,1102,l),
(742,1102,ls),
(930,1102,o),
(1054,972,o),
(1054,740,cs),
(1054,508,o),
(928,378,o),
(740,378,cs),
(558,378,l)
);
}
);
width = 1574;
}
);
metricLeft = D;
metricRight = O;
unicode = 68;
},
{
glyphname = Eth;
lastChange = "2021-06-09 17:37:31 +0000";
layers = (
{
layerId = "9B85AB65-32D7-4FED-B27C-3C7447013A9D";
shapes = (
{
closed = 1;
nodes = (
(670,644,ls),
(730,644,o),
(760,674,o),
(760,734,cs),
(760,794,o),
(730,824,o),
(670,824,cs),
(90,824,ls),
(30,824,o),
(0,794,o),
(0,734,cs),
(0,674,o),
(30,644,o),
(90,644,cs)
);
},
{
alignment = -1;
ref = D;
}
);
width = 1574;
}
);
unicode = 208;
},
{
glyphname = E;
kernLeft = H;
lastChange = "2022-03-19 19:27:07 +0000";
layers = (
{
anchors = (
{
name = bottom;
pos = (700,0);
},
{
name = ogonek;
pos = (1134,96);
},
{
name = top;
pos = (700,1480);
},
{
name = topleft;
pos = (80,1480);
}
);
background = {
shapes = (
{
closed = 1;
nodes = (
(1118,378,l),
(458,378,l),
(458,566,l),
(968,566,l),
(968,916,l),
(458,916,l),
(458,1102,l),
(1118,1102,l),
(1118,1480,l),
(80,1480,l),
(80,0,l),
(1118,0,l)
);
}
);
};
layerId = "9B85AB65-32D7-4FED-B27C-3C7447013A9D";
shapes = (
{
closed = 1;
nodes = (
(1128,0,ls),
(1186,0,o),
(1218,32,o),
(1218,90,cs),
(1218,288,ls),
(1218,346,o),
(1186,378,o),
(1128,378,cs),
(578,378,l),
(578,566,l),
(978,566,ls),
(1036,566,o),
(1068,598,o),
(1068,656,cs),
(1068,826,ls),
(1068,884,o),
(1036,916,o),
(978,916,cs),
(578,916,l),
(578,1102,l),
(1128,1102,ls),
(1186,1102,o),
(1218,1134,o),
(1218,1192,cs),
(1218,1390,ls),
(1218,1448,o),
(1186,1480,o),
(1128,1480,cs),
(250,1480,ls),
(192,1480,o),
(160,1448,o),
(160,1390,cs),
(160,90,ls),
(160,32,o),
(192,0,o),
(250,0,cs)
);
}
);
width = 1348;
}
);
metricLeft = H;
unicode = 69;
},
{
glyphname = Schwa;
kernLeft = O;
kernRight = O;
lastChange = "2022-03-19 19:40:27 +0000";
layers = (
{
anchors = (
{
name = bottom;
pos = (845,0);
},
{
name = top;
pos = (845,1480);
}
);
layerId = "9B85AB65-32D7-4FED-B27C-3C7447013A9D";
shapes = (
{
closed = 1;
nodes = (
(585,1515,o),
(358,1450,o),
(207,1304,cs),
(189,1286,o),
(181,1267,o),
(181,1247,cs),
(181,1223,o),
(194,1199,o),
(220,1176,cs),
(379,1033,ls),
(399,1015,o),
(418,1007,o),
(438,1007,cs),
(461,1007,o),
(484,1018,o),
(508,1038,cs),
(556,1077,o),
(623,1145,o),
(790,1145,cs),
(1051,1145,o),
(1127,982,o),
(1127,728,cs),
(1127,493,o),
(1006,342,o),
(810,342,cs),
(609,342,o),
(526,507,o),
(526,585,c),
(1190,585,l),
(1190,878,l),
(303,878,ls),
(211,878,o),
(100,861,o),
(100,645,cs),
(100,233,o),
(412,-26,o),
(803,-26,cs),
(1244,-26,o),
(1590,325,o),
(1590,749,cs),
(1590,1195,o),
(1244,1515,o),
(820,1515,cs)
);
}
);
width = 1690;
}
);
metricLeft = O;
metricRight = O;
unicode = 399;
},
{
glyphname = F;
kernLeft = H;
lastChange = "2022-03-19 19:27:12 +0000";
layers = (
{
anchors = (
{
name = bottom;
pos = (636,0);
},
{
name = top;
pos = (636,1480);
}
);
layerId = "9B85AB65-32D7-4FED-B27C-3C7447013A9D";
shapes = (
{
closed = 1;
nodes = (
(468,0,ls),
(526,0,o),
(558,32,o),
(558,90,cs),
(558,476,l),
(930,476,ls),
(988,476,o),
(1020,508,o),
(1020,566,cs),
(1020,736,ls),
(1020,794,o),
(988,826,o),
(930,826,cs),
(558,826,l),
(558,1102,l),
(1080,1102,ls),
(1138,1102,o),
(1170,1134,o),
(1170,1192,cs),
(1170,1390,ls),
(1170,1448,o),
(1138,1480,o),
(1080,1480,cs),
(250,1480,ls),
(192,1480,o),
(160,1448,o),
(160,1390,cs),
(160,90,ls),
(160,32,o),
(192,0,o),
(250,0,cs)
);
}
);
width = 1290;
}
);
metricLeft = H;
unicode = 70;
},
{
glyphname = G;
kernLeft = O;
lastChange = "2021-06-09 17:42:58 +0000";
layers = (
{
anchors = (
{
name = bottom;
pos = (872,0);
},
{
name = top;
pos = (872,1480);
}
);
layerId = "9B85AB65-32D7-4FED-B27C-3C7447013A9D";
shapes = (
{
closed = 1;
nodes = (
(1198,-34,o),
(1432,92,o),
(1558,286,cs),
(1576,314,o),
(1582,342,o),
(1582,386,cs),
(1582,748,ls),
(1582,806,o),
(1550,838,o),
(1492,838,cs),
(938,838,ls),
(880,838,o),
(848,806,o),
(848,748,cs),
(848,624,ls),
(848,566,o),
(880,534,o),
(938,534,cs),
(1184,534,l),
(1184,438,l),
(1154,402,o),
(1066,328,o),
(896,328,cs),
(676,328,o),
(518,502,o),
(518,740,cs),
(518,980,o),
(676,1138,o),
(896,1138,cs),
(1017,1138,o),
(1078,1087,o),
(1147,1029,cs),
(1171,1009,o),
(1193,997,o),
(1216,997,cs),
(1234,997,o),
(1253,1005,o),
(1272,1022,cs),
(1434,1166,ls),
(1458,1188,o),
(1472,1211,o),
(1472,1235,cs),
(1472,1255,o),
(1464,1275,o),
(1444,1294,cs),
(1300,1436,o),
(1102,1516,o),
(896,1516,cs),
(448,1516,o),
(100,1188,o),
(100,740,cs),
(100,294,o),
(448,-34,o),
(896,-34,cs)
);
}
);
width = 1722;
}
);
metricLeft = O;
unicode = 71;
},
{
glyphname = H;
kernLeft = H;
kernRight = H;
lastChange = "2022-03-19 19:27:02 +0000";
layers = (
{
anchors = (
{
name = bottom;
pos = (774,0);
},
{
name = center;
pos = (774,740);
},
{
name = top;
pos = (774,1480);
},
{
name = topleft;
pos = (40,1480);
}
);
layerId = "9B85AB65-32D7-4FED-B27C-3C7447013A9D";
shapes = (
{
closed = 1;
nodes = (
(468,0,ls),
(526,0,o),
(558,32,o),
(558,90,cs),
(558,550,l),
(968,550,l),
(968,90,ls),
(968,32,o),
(1000,0,o),
(1058,0,cs),
(1276,0,ls),
(1334,0,o),
(1366,32,o),
(1366,90,cs),
(1366,1390,ls),
(1366,1448,o),
(1334,1480,o),
(1276,1480,cs),
(1058,1480,ls),
(1000,1480,o),
(968,1448,o),
(968,1390,cs),
(968,930,l),
(558,930,l),
(558,1390,ls),
(558,1448,o),
(526,1480,o),
(468,1480,cs),
(250,1480,ls),
(192,1480,o),
(160,1448,o),
(160,1390,cs),
(160,90,ls),
(160,32,o),
(192,0,o),
(250,0,cs)
);
}
);
width = 1526;
}
);
unicode = 72;
},
{
glyphname = Hbar;
lastChange = "2020-09-28 21:08:43 +0000";
layers = (
{
layerId = "9B85AB65-32D7-4FED-B27C-3C7447013A9D";
shapes = (
{
closed = 1;
nodes = (
(1377,1065,ls),
(1455,1065,o),
(1494,1104,o),
(1494,1182,cs),
(1494,1260,o),
(1455,1299,o),
(1377,1299,cs),
(137,1299,ls),
(60,1299,o),
(21,1260,o),
(21,1182,cs),
(21,1104,o),
(60,1065,o),
(137,1065,cs)
);
},
{
ref = H;
}
);
width = 1546;
}
);
unicode = 294;
},
{
glyphname = I;
kernLeft = H;
kernRight = H;
lastChange = "2022-03-19 19:27:23 +0000";
layers = (
{
anchors = (
{
name = bottom;
pos = (360,0);
},
{
name = ogonek;
pos = (473,88);
},
{
name = top;
pos = (360,1480);
},
{
name = topleft;
pos = (40,1480);
}
);
layerId = "9B85AB65-32D7-4FED-B27C-3C7447013A9D";
shapes = (
{
closed = 1;
nodes = (
(468,0,ls),
(526,0,o),
(558,32,o),
(558,90,cs),
(558,1390,ls),
(558,1448,o),
(526,1480,o),
(468,1480,cs),
(250,1480,ls),
(192,1480,o),
(160,1448,o),
(160,1390,cs),
(160,90,ls),
(160,32,o),
(192,0,o),
(250,0,cs)
);
}
);
width = 718;
}
);
metricLeft = H;
metricRight = H;
unicode = 73;
},
{
glyphname = J;
kernLeft = J;
kernRight = J;
lastChange = "2022-03-19 19:27:42 +0000";
layers = (
{
anchors = (
{
name = bottom;
pos = (612,0);
},
{
name = top;
pos = (968,1480);
}
);
layerId = "9B85AB65-32D7-4FED-B27C-3C7447013A9D";
shapes = (
{
closed = 1;
nodes = (
(1024,-38,o),
(1172,298,o),
(1172,550,cs),
(1172,1388,ls),
(1172,1446,o),
(1140,1478,o),
(1082,1478,cs),
(862,1478,ls),
(804,1478,o),
(772,1446,o),
(772,1388,cs),
(772,596,ls),
(772,372,o),
(676,342,o),
(580,342,cs),
(500,342,o),
(444,422,o),
(406,480,cs),
(385,511,o),
(364,529,o),
(339,529,cs),
(325,529,o),
(309,524,o),
(292,512,cs),
(120,394,ls),
(88,372,o),
(70,347,o),
(70,319,cs),
(70,304,o),
(75,289,o),
(84,272,cs),
(112,222,o),
(154,160,o),
(204,110,cs),
(300,14,o),
(430,-38,o),
(580,-38,cs)
);
}
);
width = 1332;
}
);
metricRight = H;
unicode = 74;
},
{
glyphname = K;
kernLeft = H;
kernRight = X;
lastChange = "2022-03-19 19:28:04 +0000";
layers = (
{
anchors = (
{
name = bottom;
pos = (730,0);
},
{
name = top;
pos = (730,1480);
}
);
layerId = "9B85AB65-32D7-4FED-B27C-3C7447013A9D";
shapes = (
{
closed = 1;
nodes = (
(468,0,ls),
(526,0,o),
(558,32,o),
(558,90,cs),
(558,514,l),
(918,52,ls),
(948,13,o),
(982,0,o),
(1028,0,cs),
(1284,0,ls),
(1334,0,o),
(1360,20,o),
(1360,50,cs),
(1360,67,o),
(1352,88,o),
(1334,110,cs),
(817,747,l),
(1326,1368,ls),
(1344,1389,o),
(1352,1409,o),
(1352,1426,cs),
(1352,1457,o),
(1324,1478,o),
(1274,1478,cs),
(1036,1478,ls),
(990,1478,o),
(956,1465,o),
(926,1428,cs),
(558,966,l),
(558,1390,ls),
(558,1448,o),
(526,1480,o),
(468,1480,cs),
(250,1480,ls),
(192,1480,o),
(160,1448,o),
(160,1390,cs),
(160,90,ls),
(160,32,o),
(192,0,o),
(250,0,cs)
);
}
);
width = 1460;
}
);
metricLeft = H;
unicode = 75;
},
{
glyphname = L;
kernLeft = H;
lastChange = "2022-03-19 19:28:14 +0000";
layers = (
{
anchors = (
{
name = bottom;
pos = (640,0);
},
{
name = center;
pos = (640,740);
},
{
name = top;
pos = (640,1480);
},
{
name = topright;
pos = (1258,1480);
}
);
layerId = "9B85AB65-32D7-4FED-B27C-3C7447013A9D";
shapes = (
{
closed = 1;
nodes = (
(1068,0,ls),
(1126,0,o),
(1158,32,o),
(1158,90,cs),
(1158,288,ls),
(1158,346,o),
(1126,378,o),
(1068,378,cs),
(558,378,l),
(558,1390,ls),
(558,1448,o),
(526,1480,o),
(468,1480,cs),
(250,1480,ls),
(192,1480,o),
(160,1448,o),
(160,1390,cs),
(160,90,ls),
(160,32,o),
(192,0,o),
(250,0,cs)
);
}
);
width = 1288;
}
);
metricLeft = H;
unicode = 76;
},
{
glyphname = Ldot;
lastChange = "2020-09-28 21:02:32 +0000";
layers = (
{
layerId = "9B85AB65-32D7-4FED-B27C-3C7447013A9D";
shapes = (
{
closed = 1;
nodes = (
(1030,718,o),
(1112,800,o),
(1112,900,cs),
(1112,1000,o),
(1030,1082,o),
(930,1082,cs),
(832,1082,o),
(750,1000,o),
(750,900,cs),
(750,800,o),
(832,718,o),
(930,718,cs)
);
},
{
ref = L;
}
);
width = 1292;
}
);
unicode = 319;
},
{
glyphname = Lslash;
lastChange = "2021-06-09 17:49:04 +0000";
layers = (
{
layerId = "9B85AB65-32D7-4FED-B27C-3C7447013A9D";
shapes = (
{
closed = 1;
nodes = (
(57,355,o),
(79,344,o),
(101,344,cs),
(122,344,o),
(143,354,o),
(164,376,cs),
(758,972,ls),
(779,994,o),
(790,1015,o),
(790,1036,cs),
(790,1057,o),
(780,1077,o),
(758,1098,cs),
(744,1112,ls),
(723,1134,o),
(702,1145,o),
(681,1145,cs),
(660,1145,o),
(638,1134,o),
(616,1112,cs),
(22,518,ls),
(1,497,o),
(-10,476,o),
(-10,454,cs),
(-10,433,o),
(1,411,o),
(22,390,cs),
(36,376,ls)
);
},
{
ref = L;
}
);
width = 1342;
}
);
unicode = 321;
},
{
glyphname = M;
kernLeft = H;
kernRight = H;
lastChange = "2022-03-19 19:28:47 +0000";
layers = (
{
anchors = (
{
name = bottom;
pos = (930,0);
},
{
name = top;
pos = (930,1480);
}
);
layerId = "9B85AB65-32D7-4FED-B27C-3C7447013A9D";
shapes = (
{
closed = 1;
nodes = (
(464,0,ls),
(522,0,o),
(554,32,o),
(554,90,cs),
(554,664,l),
(794,70,ls),
(813,22,o),
(848,0,o),
(900,0,cs),
(958,0,ls),
(1010,0,o),
(1045,22,o),
(1064,70,cs),
(1304,666,l),
(1304,90,ls),
(1304,32,o),
(1336,0,o),
(1394,0,cs),
(1608,0,ls),
(1666,0,o),
(1698,32,o),
(1698,90,cs),
(1698,1390,ls),
(1698,1448,o),
(1666,1480,o),
(1608,1480,cs),
(1360,1480,ls),
(1310,1480,o),
(1275,1460,o),
(1254,1412,cs),
(928,662,l),
(604,1412,ls),
(583,1460,o),
(548,1480,o),
(498,1480,cs),
(250,1480,ls),
(192,1480,o),
(160,1448,o),
(160,1390,cs),
(160,90,ls),
(160,32,o),
(192,0,o),
(250,0,cs)
);
}
);
width = 1858;
}
);
metricLeft = H;
metricRight = H;
unicode = 77;
},
{
glyphname = N;
kernLeft = H;
kernRight = H;
lastChange = "2022-03-19 19:28:37 +0000";
layers = (
{
anchors = (
{
name = bottom;
pos = (806,0);
},
{
name = top;
pos = (806,1480);
}
);
layerId = "9B85AB65-32D7-4FED-B27C-3C7447013A9D";
shapes = (
{
closed = 1;
nodes = (
(468,0,ls),
(526,0,o),
(558,32,o),
(558,90,cs),
(558,794,l),
(1060,58,ls),
(1088,17,o),
(1120,0,o),
(1170,0,cs),
(1362,0,ls),
(1420,0,o),
(1452,32,o),
(1452,90,cs),
(1452,1390,ls),
(1452,1448,o),
(1420,1480,o),
(1362,1480,cs),
(1144,1480,ls),
(1086,1480,o),
(1054,1448,o),
(1054,1390,cs),
(1054,732,l),
(592,1422,ls),
(566,1461,o),
(532,1480,o),
(482,1480,cs),
(250,1480,ls),
(192,1480,o),
(160,1448,o),
(160,1390,cs),
(160,90,ls),
(160,32,o),
(192,0,o),
(250,0,cs)
);
}
);
width = 1612;
}
);
metricLeft = H;
metricRight = H;
unicode = 78;
},
{
glyphname = Ntilde;
lastChange = "2021-06-09 17:49:04 +0000";
layers = (
{
layerId = "9B85AB65-32D7-4FED-B27C-3C7447013A9D";
shapes = (
{
closed = 1;
nodes = (
(368,0,ls),
(428,0,o),
(458,30,o),
(458,90,cs),
(458,734,l),
(920,58,ls),
(946,20,o),
(984,0,o),
(1030,0,cs),
(1202,0,ls),
(1262,0,o),
(1292,30,o),
(1292,90,cs),
(1292,1390,ls),
(1292,1450,o),
(1262,1480,o),
(1202,1480,cs),
(1004,1480,ls),
(944,1480,o),
(914,1450,o),
(914,1390,cs),
(914,752,l),
(452,1422,ls),
(426,1460,o),
(388,1480,o),
(342,1480,cs),
(170,1480,ls),
(110,1480,o),
(80,1450,o),
(80,1390,cs),
(80,90,ls),
(80,30,o),
(110,0,o),
(170,0,cs)
);
},
{
closed = 1;
nodes = (
(936,1600,o),
(1004,1648,o),
(1050,1738,c),
(1057,1753,o),
(1063,1772,o),
(1063,1789,cs),
(1063,1808,o),
(1056,1826,o),
(1034,1838,cs),
(1024,1843,o),
(1015,1846,o),
(1006,1846,cs),
(979,1846,o),
(954,1823,o),
(930,1800,cs),
(901,1773,o),
(869,1745,o),
(824,1745,cs),
(816,1745,o),
(807,1746,o),
(798,1748,c),
(758,1762,o),
(738,1770,o),
(700,1796,cs),
(631,1844,o),
(557,1870,o),
(487,1870,cs),
(476,1870,o),
(465,1869,o),
(454,1868,cs),
(374,1858,o),
(304,1812,o),
(262,1724,cs),
(254,1708,o),
(247,1689,o),
(247,1671,cs),
(247,1652,o),
(255,1634,o),
(276,1622,cs),
(286,1617,o),
(295,1614,o),
(303,1614,cs),
(331,1614,o),
(354,1638,o),
(380,1662,cs),
(409,1687,o),
(441,1715,o),
(486,1715,cs),
(494,1715,o),
(503,1714,o),
(512,1712,cs),
(552,1702,o),
(574,1690,o),
(612,1664,cs),
(679,1616,o),
(753,1590,o),
(824,1590,cs),
(835,1590,o),
(847,1591,o),
(858,1592,cs)
);
}
);
width = 1554;
}
);
unicode = 209;
},
{
glyphname = Eng;
kernLeft = H;
kernRight = H;
lastChange = "2022-03-19 19:36:22 +0000";
layers = (
{
layerId = "9B85AB65-32D7-4FED-B27C-3C7447013A9D";
shapes = (
{
closed = 1;
nodes = (
(1281,-398,o),
(1422,-186,o),
(1422,90,c),
(1004,96,l),
(1027,64,o),
(1058,-6,o),
(1058,-53,cs),
(1058,-84,o),
(1042,-106,o),
(1015,-106,cs),
(984,-106,o),
(951,-67,o),
(908,0,cs),
(891,27,o),
(867,43,o),
(839,43,cs),
(822,43,o),
(804,37,o),
(784,24,cs),
(698,-33,ls),
(673,-49,o),
(657,-76,o),
(657,-106,cs),
(657,-246,o),
(855,-398,o),
(1016,-398,cs)
);
},
{
ref = N;
}
);
width = 1612;
}
);
metricLeft = N;
metricRight = N;
unicode = 330;
},
{
glyphname = O;
lastChange = "2022-03-19 19:28:59 +0000";
layers = (
{
anchors = (
{
name = bottom;
pos = (898,0);
},
{
name = center;
pos = (898,740);
},
{
name = ogonek;
pos = (1244,147);
},
{
name = top;
pos = (898,1480);
},
{
name = topleft;
pos = (40,1480);
},
{
name = topright;
pos = (1249,1430);
}
);
layerId = "9B85AB65-32D7-4FED-B27C-3C7447013A9D";
shapes = (
{
closed = 1;
nodes = (
(1346,-36,o),
(1696,302,o),
(1696,740,cs),
(1696,1180,o),
(1346,1518,o),
(898,1518,cs),
(448,1518,o),
(100,1180,o),
(100,740,cs),
(100,302,o),
(448,-36,o),
(898,-36,cs)
);
},
{
closed = 1;
nodes = (
(678,342,o),
(523,500,o),
(523,740,cs),
(523,980,o),
(678,1140,o),
(898,1140,cs),
(1118,1140,o),
(1271,980,o),
(1271,740,cs),
(1271,500,o),
(1118,342,o),
(898,342,cs)
);
}
);
width = 1796;
}
);
unicode = 79;
},
{
glyphname = Oslash;
lastChange = "2021-06-09 17:49:04 +0000";
layers = (
{
anchors = (
{
name = bottom;
pos = (898,0);
},
{
name = top;
pos = (898,1480);
}
);
layerId = "9B85AB65-32D7-4FED-B27C-3C7447013A9D";
shapes = (
{
closed = 1;
nodes = (
(688,-145,ls),
(742,-145,o),
(772,-119,o),
(788,-69,cs),
(1322,1517,ls),
(1326,1530,o),
(1328,1542,o),
(1328,1552,cs),
(1328,1594,o),
(1298,1619,o),
(1246,1619,cs),
(1098,1619,ls),
(1044,1619,o),
(1015,1593,o),
(998,1543,cs),
(464,-43,ls),
(460,-56,o),
(457,-68,o),
(457,-79,cs),
(457,-120,o),
(488,-145,o),
(540,-145,cs)
);
},
{
ref = O;
}
);
width = 1796;
}
);
unicode = 216;
},
{
glyphname = OE;
lastChange = "2020-09-28 20:58:43 +0000";
layers = (
{
anchors = (
{
name = bottom;
pos = (1210,0);
},
{
name = top;
pos = (1210,1480);
}
);
layerId = "9B85AB65-32D7-4FED-B27C-3C7447013A9D";
shapes = (
{
closed = 1;
nodes = (
(1282,-36,o),
(1636,308,o),
(1636,740,cs),
(1636,1170,o),
(1287,1518,o),
(858,1518,cs),
(428,1518,o),
(80,1170,o),
(80,740,cs),
(80,310,o),
(431,-36,o),
(858,-36,cs)
);
},
{
closed = 1;
nodes = (
(637,342,o),
(458,521,o),
(458,740,cs),
(458,959,o),
(639,1140,o),
(858,1140,cs),
(1074,1140,o),
(1256,964,o),
(1256,740,cs),
(1256,519,o),
(1079,342,o),
(858,342,cs)
);
},
{
closed = 1;
nodes = (
(2204,0,ls),
(2264,0,o),
(2294,30,o),
(2294,90,cs),
(2294,288,ls),
(2294,348,o),
(2264,378,o),
(2204,378,cs),
(1634,378,l),
(1634,566,l),
(2054,566,ls),
(2114,566,o),
(2144,596,o),
(2144,656,cs),
(2144,826,ls),
(2144,886,o),
(2114,916,o),
(2054,916,cs),
(1634,916,l),
(1634,1102,l),
(2204,1102,ls),
(2264,1102,o),
(2294,1132,o),
(2294,1192,cs),
(2294,1390,ls),
(2294,1450,o),
(2264,1480,o),
(2204,1480,cs),
(1346,1480,ls),
(1286,1480,o),
(1256,1450,o),
(1256,1390,cs),
(1256,90,ls),
(1256,30,o),
(1286,0,o),
(1346,0,cs)
);
}
);
width = 2420;
}
);
unicode = 338;
},
{
glyphname = P;
kernLeft = H;
kernRight = P;
lastChange = "2022-03-19 19:29:09 +0000";
layers = (
{
anchors = (
{
name = bottom;
pos = (722,0);
},
{
name = top;
pos = (722,1480);
}
);
layerId = "9B85AB65-32D7-4FED-B27C-3C7447013A9D";
shapes = (
{
closed = 1;
nodes = (
(468,0,ls),
(526,0,o),
(558,32,o),
(558,90,cs),
(558,424,l),
(824,424,ls),
(1124,424,o),
(1324,664,o),
(1324,954,cs),
(1324,1236,o),
(1152,1480,o),
(858,1480,cs),
(250,1480,ls),
(192,1480,o),
(160,1448,o),
(160,1390,cs),
(160,90,ls),
(160,32,o),
(192,0,o),
(250,0,cs)
);
},
{
closed = 1;
nodes = (
(558,1142,l),
(788,1142,ls),
(898,1142,o),
(960,1068,o),
(960,960,cs),
(960,842,o),
(898,774,o),
(788,774,cs),
(558,774,l)
);
}
);
width = 1444;
}
);
metricLeft = H;
unicode = 80;
},
{
glyphname = Thorn;
lastChange = "2020-09-28 20:42:33 +0000";
layers = (
{
layerId = "9B85AB65-32D7-4FED-B27C-3C7447013A9D";
shapes = (
{
closed = 1;
nodes = (
(832,272,ls),
(1114,272,o),
(1352,473,o),
(1352,760,cs),
(1352,1041,o),
(1116,1248,o),
(832,1248,cs),
(338,1248,ls),
(296,1248,o),
(274,1226,o),
(274,1184,cs),
(274,982,ls),
(274,938,o),
(296,918,o),
(338,918,cs),
(810,918,ls),
(964,918,o),
(1000,818,o),
(1000,760,cs),
(1000,698,o),
(964,600,o),
(810,600,cs),
(338,600,ls),
(296,600,o),
(274,580,o),
(274,536,cs),
(274,336,ls),
(274,294,o),
(296,272,o),
(338,272,cs)
);
},
{
ref = I;
}
);
width = 1512;
}
);
unicode = 222;
},
{
glyphname = Q;
lastChange = "2021-06-09 17:45:15 +0000";
layers = (
{
anchors = (
{
name = bottom;
pos = (918,0);
},
{
name = top;
pos = (918,1480);
}
);
layerId = "9B85AB65-32D7-4FED-B27C-3C7447013A9D";
shapes = (
{
closed = 1;
nodes = (
(1454,-138,o),
(1477,-150,o),
(1501,-150,cs),
(1525,-150,o),
(1548,-138,o),
(1572,-114,cs),
(1648,-38,ls),
(1672,-14,o),
(1684,9,o),
(1684,33,cs),
(1684,57,o),
(1672,80,o),
(1648,104,cs),
(1104,648,ls),
(1081,671,o),
(1058,683,o),
(1034,683,cs),
(1011,683,o),
(987,671,o),
(964,648,cs),
(886,570,ls),
(863,547,o),
(852,524,o),
(852,500,cs),
(852,477,o),
(863,453,o),
(886,430,cs),
(1430,-114,ls)
);
},
{
ref = O;
}
);
width = 1796;
}
);
unicode = 81;
},
{
glyphname = R;
kernLeft = H;
kernRight = R;
lastChange = "2022-03-19 19:29:16 +0000";
layers = (
{
anchors = (
{
name = bottom;
pos = (732,0);
},
{
name = top;
pos = (732,1480);
}
);
layerId = "9B85AB65-32D7-4FED-B27C-3C7447013A9D";
shapes = (
{
closed = 1;
nodes = (
(468,0,ls),
(526,0,o),
(558,32,o),
(558,90,cs),
(558,548,l),
(672,548,l),
(936,70,ls),
(962,24,o),
(988,0,o),
(1040,0,cs),
(1274,0,ls),
(1324,0,o),
(1358,25,o),
(1358,61,cs),
(1358,74,o),
(1354,89,o),
(1344,104,cs),
(1050,570,l),
(1206,622,o),
(1344,818,o),
(1344,1006,cs),
(1344,1288,o),
(1152,1480,o),
(858,1480,cs),
(250,1480,ls),
(192,1480,o),
(160,1448,o),
(160,1390,cs),
(160,90,ls),
(160,32,o),
(192,0,o),
(250,0,cs)
);
},
{
closed = 1;
nodes = (
(558,1142,l),
(818,1142,ls),
(898,1142,o),
(938,1080,o),
(938,1010,cs),
(938,932,o),
(898,874,o),
(818,874,cs),
(558,874,l)
);
}
);
width = 1464;
}
);
metricLeft = H;
unicode = 82;
},
{
glyphname = S;
kernLeft = S;
kernRight = S;
lastChange = "2022-03-19 19:29:49 +0000";
layers = (
{
anchors = (
{
name = bottom;
pos = (739,0);
},
{
name = top;
pos = (739,1480);
}
);
layerId = "9B85AB65-32D7-4FED-B27C-3C7447013A9D";
shapes = (
{
closed = 1;
nodes = (
(1067,-40,o),
(1359,117,o),
(1359,437,cs),
(1359,749,o),
(1083,843,o),
(791,916,cs),
(623,958,o),
(533,997,o),
(533,1064,cs),
(533,1143,o),
(619,1166,o),
(737,1166,cs),
(849,1166,o),
(961,1125,o),
(1033,1082,cs),
(1053,1070,o),
(1071,1065,o),
(1088,1065,cs),
(1115,1065,o),
(1137,1077,o),
(1157,1108,cs),
(1255,1258,ls),
(1268,1278,o),
(1277,1298,o),
(1277,1316,cs),
(1277,1342,o),
(1263,1365,o),
(1235,1382,cs),
(1133,1446,o),
(977,1520,o),
(737,1520,cs),
(424,1520,o),
(135,1356,o),
(135,1055,cs),
(135,776,o),
(369,657,o),
(669,578,cs),
(871,525,o),
(957,492,o),
(957,422,cs),
(957,342,o),
(887,323,o),
(777,323,cs),
(636,323,o),
(486,369,o),
(363,442,cs),
(343,454,o),
(324,460,o),
(306,460,cs),
(280,460,o),
(254,449,o),
(237,420,cs),
(133,242,ls),
(120,220,o),
(110,202,o),
(110,183,cs),
(110,157,o),
(125,134,o),
(157,116,cs),
(344,9,o),
(543,-40,o),
(765,-40,cs)
);
}
);
width = 1469;
}
);
unicode = 83;
},
{
glyphname = Germandbls;
lastChange = "2021-06-09 17:49:04 +0000";
layers = (
{
layerId = "9B85AB65-32D7-4FED-B27C-3C7447013A9D";
shapes = (
{
closed = 1;
nodes = (
(1076,817,o),
(1107,855,o),
(1155,911,cs),
(1213,978,o),
(1340,1136,o),
(1340,1255,cs),
(1340,1379,o),
(1274,1480,o),
(1104,1480,cs),
(562,1480,ls),
(342,1480,o),
(90,1378,o),
(90,992,cs),
(90,154,ls),
(90,38,o),
(113,0,o),
(199,0,cs),
(393,0,ls),
(479,0,o),
(496,38,o),
(496,154,cs),
(496,968,ls),
(496,1118,o),
(559,1180,o),
(668,1180,cs),
(779,1180,ls),
(830,1180,o),
(864,1168,o),
(864,1137,cs),
(864,1101,o),
(790,1019,o),
(751,982,cs),
(698,931,o),
(652,876,o),
(652,765,cs),
(652,661,o),
(743,588,o),
(816,557,cs),
(883,528,o),
(1000,451,o),
(1000,395,cs),
(1000,342,o),
(957,303,o),
(835,303,cs),
(766,303,o),
(744,317,o),
(681,317,cs),
(649,317,o),
(599,307,o),
(585,233,cs),
(561,107,ls),
(560,101,o),
(559,96,o),
(559,91,cs),
(559,9,o),
(691,-21,o),
(835,-21,cs),
(1118,-21,o),
(1378,94,o),
(1378,371,cs),
(1378,559,o),
(1263,637,o),
(1164,700,cs),
(1100,741,o),
(1076,757,o),
(1076,786,cs)
);
}
);
width = 1458;
}
);
unicode = 7838;
},
{
glyphname = T;
kernLeft = T;
kernRight = T;
lastChange = "2022-03-19 19:25:58 +0000";
layers = (
{
anchors = (
{
name = bottom;
pos = (688,0);
},
{
name = center;
pos = (688,740);
},
{
name = top;
pos = (688,1480);
}
);
layerId = "9B85AB65-32D7-4FED-B27C-3C7447013A9D";
shapes = (
{
closed = 1;
nodes = (
(786,0,ls),
(844,0,o),
(876,32,o),
(876,90,cs),
(876,1102,l),
(1174,1102,ls),
(1232,1102,o),
(1264,1134,o),
(1264,1192,cs),
(1264,1390,ls),
(1264,1448,o),
(1232,1480,o),
(1174,1480,cs),
(180,1480,ls),
(122,1480,o),
(90,1448,o),
(90,1390,cs),
(90,1192,ls),
(90,1134,o),
(122,1102,o),
(180,1102,cs),
(478,1102,l),
(478,90,ls),
(478,32,o),
(510,0,o),
(568,0,cs)
);
}
);
width = 1354;
}
);
unicode = 84;
},
{
glyphname = Tbar;
lastChange = "2020-09-28 21:07:54 +0000";
layers = (
{
layerId = "9B85AB65-32D7-4FED-B27C-3C7447013A9D";
shapes = (
{
closed = 1;
nodes = (
(998,618,ls),
(1060,618,o),
(1091,649,o),
(1091,710,cs),
(1091,772,o),
(1060,803,o),
(998,803,cs),
(398,803,ls),
(336,803,o),
(305,772,o),
(305,710,cs),
(305,649,o),
(336,618,o),
(398,618,cs)
);
},
{
ref = T;
}
);
width = 1394;
}
);
unicode = 358;
},
{
glyphname = U;
kernLeft = H;
kernRight = H;
lastChange = "2022-03-19 19:54:43 +0000";
layers = (
{
anchors = (
{
name = bottom;
pos = (846,0);
},
{
name = ogonek;
pos = (1228,196);
},
{
name = top;
pos = (846,1480);
},
{
name = topright;
pos = (1325,1480);
}
);
layerId = "9B85AB65-32D7-4FED-B27C-3C7447013A9D";
shapes = (
{
closed = 1;
nodes = (
(1220,-36,o),
(1532,212,o),
(1532,694,cs),
(1532,1390,ls),
(1532,1450,o),
(1502,1480,o),
(1442,1480,cs),
(1222,1480,ls),
(1162,1480,o),
(1132,1450,o),
(1132,1390,cs),
(1132,694,ls),
(1132,450,o),
(1024,332,o),
(846,332,cs),
(669,332,o),
(558,446,o),
(558,694,cs),
(558,1390,ls),
(558,1450,o),
(528,1480,o),
(468,1480,cs),
(250,1480,ls),
(190,1480,o),
(160,1450,o),
(160,1390,cs),
(160,694,ls),
(160,214,o),
(466,-36,o),
(846,-36,cs)
);
}
);
width = 1692;
}
);
metricLeft = H;
metricRight = H;
unicode = 85;
},
{
glyphname = V;
kernLeft = V;
kernRight = V;
lastChange = "2022-03-19 19:30:34 +0000";
layers = (
{
anchors = (
{
name = bottom;
pos = (773,0);
},
{
name = top;
pos = (773,1480);
}
);
layerId = "9B85AB65-32D7-4FED-B27C-3C7447013A9D";
shapes = (
{
closed = 1;
nodes = (
(895,0,ls),
(949,0,o),
(982,24,o),
(999,72,cs),
(1469,1380,ls),
(1474,1394,o),
(1476,1407,o),
(1476,1418,cs),
(1476,1458,o),
(1448,1482,o),
(1397,1482,cs),
(1143,1482,ls),
(1089,1482,o),
(1053,1458,o),
(1039,1410,cs),
(773,495,l),
(507,1410,ls),
(493,1458,o),
(457,1482,o),
(403,1482,cs),
(149,1482,ls),
(98,1482,o),
(70,1458,o),
(70,1418,cs),
(70,1407,o),
(72,1394,o),
(77,1380,cs),
(549,72,ls),
(566,24,o),
(599,0,o),
(653,0,cs)
);
}
);
width = 1546;
}
);
unicode = 86;
},
{
glyphname = W;
kernLeft = V;
kernRight = V;
lastChange = "2022-03-19 19:30:37 +0000";
layers = (
{
anchors = (
{
name = bottom;
pos = (961,0);
},
{
name = top;
pos = (961,1480);
}
);
layerId = "9B85AB65-32D7-4FED-B27C-3C7447013A9D";
shapes = (
{
closed = 1;
nodes = (
(631,0,ls),
(685,0,o),
(719,24,o),
(733,76,cs),
(963,912,l),
(1193,76,ls),
(1207,24,o),
(1239,0,o),
(1293,0,cs),
(1485,0,ls),
(1541,0,o),
(1574,26,o),
(1585,80,cs),
(1849,1384,ls),
(1851,1393,o),
(1852,1402,o),
(1852,1410,cs),
(1852,1455,o),
(1823,1482,o),
(1769,1482,cs),
(1567,1482,ls),
(1511,1482,o),
(1478,1456,o),
(1467,1402,cs),
(1329,728,l),
(1149,1406,ls),
(1135,1458,o),
(1103,1482,o),
(1049,1482,cs),
(871,1482,ls),
(817,1482,o),
(786,1458,o),
(771,1406,cs),
(573,724,l),
(457,1402,ls),
(448,1456,o),
(413,1482,o),
(357,1482,cs),
(153,1482,ls),
(99,1482,o),
(70,1455,o),
(70,1410,cs),
(70,1402,o),
(71,1393,o),
(73,1384,cs),
(339,80,ls),
(350,26,o),
(383,0,o),
(439,0,cs)
);
}
);
width = 1922;
}
);
metricLeft = V;
metricRight = V;
unicode = 87;
},
{
glyphname = X;
kernLeft = X;
kernRight = X;
lastChange = "2022-03-19 19:25:47 +0000";
layers = (
{
anchors = (
{
name = bottom;
pos = (782,0);
},
{
name = top;
pos = (782,1480);
}
);
layerId = "9B85AB65-32D7-4FED-B27C-3C7447013A9D";
shapes = (
{
closed = 1;
nodes = (
(434,0,ls),
(484,0,o),
(518,17,o),
(544,58,cs),
(782,428,l),
(1018,58,ls),
(1044,17,o),
(1078,0,o),
(1128,0,cs),
(1404,0,ls),
(1454,0,o),
(1482,22,o),
(1482,55,cs),
(1482,71,o),
(1476,90,o),
(1462,110,cs),
(1030,746,l),
(1456,1370,ls),
(1470,1390,o),
(1476,1409,o),
(1476,1425,cs),
(1476,1458,o),
(1448,1480,o),
(1398,1480,cs),
(1122,1480,ls),
(1072,1480,o),
(1039,1464,o),
(1012,1422,cs),
(782,1062,l),
(550,1422,ls),
(523,1464,o),
(490,1480,o),
(440,1480,cs),
(164,1480,ls),
(114,1480,o),
(86,1458,o),
(86,1425,cs),
(86,1409,o),
(92,1390,o),
(106,1370,cs),
(532,746,l),
(100,110,ls),
(86,90,o),
(80,71,o),
(80,55,cs),
(80,22,o),
(108,0,o),
(158,0,cs)
);
}
);
width = 1562;
}
);
unicode = 88;
},
{
glyphname = Y;
kernLeft = T;
kernRight = T;
lastChange = "2022-03-19 19:30:42 +0000";
layers = (
{
anchors = (
{
name = bottom;
pos = (727,0);
},
{
name = top;
pos = (727,1480);
},
{
name = topleft;
pos = (35,1480);
}
);
layerId = "9B85AB65-32D7-4FED-B27C-3C7447013A9D";
shapes = (
{
closed = 1;
nodes = (
(827,0,ls),
(885,0,o),
(917,32,o),
(917,90,cs),
(917,568,l),
(1351,1372,ls),
(1361,1390,o),
(1365,1407,o),
(1365,1422,cs),
(1365,1458,o),
(1336,1480,o),
(1283,1480,cs),
(1053,1480,ls),
(1005,1480,o),
(966,1464,o),
(945,1420,cs),
(727,956,l),
(509,1420,ls),
(488,1464,o),
(449,1480,o),
(401,1480,cs),
(171,1480,ls),
(118,1480,o),
(90,1456,o),
(90,1420,cs),
(90,1406,o),
(94,1389,o),
(103,1372,cs),
(539,568,l),
(539,90,ls),
(539,32,o),
(571,0,o),
(629,0,cs)
);
}
);
width = 1455;
}
);
metricLeft = T;
metricRight = T;
unicode = 89;
},
{
glyphname = Z;
kernLeft = H;
kernRight = H;
lastChange = "2022-03-19 19:30:54 +0000";
layers = (
{
anchors = (
{
name = bottom;
pos = (710,0);
},
{
name = center;
pos = (710,740);
},
{
name = top;
pos = (710,1480);
}
);
layerId = "9B85AB65-32D7-4FED-B27C-3C7447013A9D";
shapes = (
{
closed = 1;
nodes = (
(1168,0,ls),
(1226,0,o),
(1258,32,o),
(1258,90,cs),
(1258,288,ls),
(1258,346,o),
(1226,378,o),
(1168,378,cs),
(646,378,l),
(1192,1124,ls),
(1218,1160,o),
(1228,1192,o),
(1228,1236,cs),
(1228,1390,ls),
(1228,1448,o),
(1196,1480,o),
(1138,1480,cs),
(280,1480,ls),
(222,1480,o),
(190,1448,o),
(190,1390,cs),
(190,1192,ls),
(190,1134,o),
(222,1102,o),
(280,1102,cs),
(742,1102,l),
(198,359,ls),
(171,322,o),
(160,290,o),
(160,246,cs),
(160,90,ls),
(160,32,o),
(192,0,o),
(250,0,cs)
);
}
);
width = 1418;
}
);
metricLeft = H;
metricRight = H;
unicode = 90;
},
{
glyphname = a;
kernLeft = o;
kernRight = n;
lastChange = "2022-03-19 19:31:10 +0000";
layers = (
{
anchors = (
{
name = bottom;
pos = (726,0);
},
{
name = ogonek;
pos = (1210,95);
},
{
name = top;
pos = (726,1200);
}
);
layerId = "9B85AB65-32D7-4FED-B27C-3C7447013A9D";
shapes = (
{
closed = 1;
nodes = (
(764,-28,o),
(908,80,o),
(952,176,c),
(952,126,ls),
(952,46,o),
(982,0,o),
(1048,0,cs),
(1240,0,ls),
(1306,0,o),
(1340,46,o),
(1340,126,cs),
(1340,752,ls),
(1340,1152,o),
(962,1248,o),
(686,1248,cs),
(492,1248,o),
(266,1166,o),
(162,1054,cs),
(147,1037,o),
(139,1020,o),
(139,1003,cs),
(139,984,o),
(150,965,o),
(172,948,cs),
(328,830,ls),
(347,816,o),
(363,809,o),
(379,809,cs),
(397,809,o),
(415,818,o),
(434,834,cs),
(474,866,o),
(572,934,o),
(690,934,cs),
(842,934,o),
(938,878,o),
(952,754,c),
(654,754,ls),
(310,754,o),
(110,608,o),
(110,368,cs),
(110,136,o),
(272,-28,o),
(574,-28,cs)
);
},
{
closed = 1;
nodes = (
(554,262,o),
(472,294,o),
(472,386,cs),
(472,470,o),
(538,507,o),
(630,507,cs),
(950,507,l),
(950,367,o),
(798,262,o),
(638,262,cs)
);
}
);
width = 1470;
}
);
metricLeft = o;
metricRight = n;
unicode = 97;
},
{
glyphname = a.ss01;
lastChange = "2020-09-28 20:42:34 +0000";
layers = (
{
layerId = "9B85AB65-32D7-4FED-B27C-3C7447013A9D";
shapes = (
{
closed = 1;
nodes = (
(1010,-26,o),
(1106,284,o),
(1106,404,cs),
(1106,538,l),
(1030,586,l),
(1030,458,o),
(948,302,o),
(780,302,cs),
(626,302,o),
(550,432,o),
(550,602,cs),
(550,800,o),
(634,922,o),
(788,922,cs),
(948,922,o),
(1030,774,o),
(1030,670,cs),
(1030,640,l),
(1126,706,l),
(1126,900,ls),
(1126,1016,o),
(968,1248,o),
(676,1248,cs),
(332,1248,o),
(110,998,o),
(110,620,cs),
(110,228,o),
(368,-26,o),
(676,-26,cs)
);
},
{
closed = 1;
nodes = (
(1312,0,ls),
(1378,0,o),
(1422,46,o),
(1422,126,cs),
(1422,1110,ls),
(1422,1168,o),
(1390,1200,o),
(1332,1200,cs),
(1120,1200,ls),
(1062,1200,o),
(1030,1168,o),
(1030,1110,cs),
(1030,126,ls),
(1030,46,o),
(1064,0,o),
(1130,0,cs)
);
}
);
width = 1512;
}
);
metricLeft = o;
},
{
glyphname = ae;
kernLeft = a;
kernRight = o;
lastChange = "2022-03-19 19:36:22 +0000";
layers = (
{
anchors = (
{
name = bottom;
pos = (1134,0);
},
{
name = top;
pos = (1134,1200);
}
);
layerId = "9B85AB65-32D7-4FED-B27C-3C7447013A9D";
shapes = (
{
closed = 1;
nodes = (
(482,1248,o),
(292,1182,o),
(168,1062,cs),
(153,1047,o),
(146,1031,o),
(146,1015,cs),
(146,995,o),
(157,975,o),
(178,956,cs),
(302,844,ls),
(319,829,o),
(335,823,o),
(351,823,cs),
(370,823,o),
(389,832,o),
(408,848,cs),
(448,880,o),
(522,930,o),
(660,930,cs),
(826,930,o),
(913,878,o),
(941,748,c),
(644,748,ls),
(300,748,o),
(110,608,o),
(110,368,cs),
(110,136,o),
(302,-28,o),
(604,-28,cs),
(1035,-28,o),
(1290,258,o),
(1290,472,cs),
(1290,712,ls),
(1290,1096,o),
(952,1248,o),
(676,1248,cs)
);
},
{
closed = 1;
nodes = (
(514,272,o),
(462,314,o),
(462,386,cs),
(462,470,o),
(528,510,o),
(620,510,cs),
(940,510,l),
(940,370,o),
(758,272,o),
(598,272,cs)
);
},
{
pos = (828,0);
ref = e;
}
);
width = 2278;
}
);
metricLeft = a;
metricRight = o;
unicode = 230;
},
{
glyphname = b;
kernLeft = h;
kernRight = o;
lastChange = "2022-03-19 19:31:18 +0000";
layers = (
{
anchors = (
{
name = bottom;
pos = (786,0);
},
{
name = top;
pos = (786,1500);
}
);
layerId = "9B85AB65-32D7-4FED-B27C-3C7447013A9D";
shapes = (
{
closed = 1;
nodes = (
(1184,-26,o),
(1442,228,o),
(1442,620,cs),
(1442,998,o),
(1220,1248,o),
(876,1248,cs),
(584,1248,o),
(426,1016,o),
(426,900,cs),
(426,706,l),
(522,640,l),
(522,670,ls),
(522,774,o),
(604,922,o),
(764,922,cs),
(918,922,o),
(1002,800,o),
(1002,602,cs),
(1002,432,o),
(926,302,o),
(772,302,cs),
(604,302,o),
(522,458,o),
(522,586,c),
(446,538,l),
(446,404,ls),
(446,284,o),
(542,-26,o),
(876,-26,cs)
);
},
{
closed = 1;
nodes = (
(422,0,ls),
(488,0,o),
(522,46,o),
(522,126,cs),
(522,1550,ls),
(522,1608,o),
(490,1640,o),
(432,1640,cs),
(220,1640,ls),
(162,1640,o),
(130,1608,o),
(130,1550,cs),
(130,126,ls),
(130,46,o),
(174,0,o),
(240,0,cs)
);
}
);
width = 1552;
}
);
metricLeft = n;
metricRight = o;
unicode = 98;
},
{
glyphname = c;
kernLeft = o;
kernRight = o;
lastChange = "2022-03-19 19:54:16 +0000";
layers = (
{
anchors = (
{
name = bottom;
pos = (702,0);
},
{
name = top;
pos = (702,1200);
}
);
layerId = "9B85AB65-32D7-4FED-B27C-3C7447013A9D";
shapes = (
{
closed = 1;
nodes = (
(974,-28,o),
(1134,36,o),
(1256,150,cs),
(1273,166,o),
(1282,184,o),
(1282,202,cs),
(1282,221,o),
(1270,237,o),
(1250,256,cs),
(1107,386,ls),
(1080,411,o),
(1059,421,o),
(1041,421,cs),
(1030,421,o),
(1018,415,o),
(1003,402,cs),
(961,364,o),
(884,312,o),
(788,312,cs),
(604,312,o),
(496,402,o),
(496,606,cs),
(496,812,o),
(598,910,o),
(788,910,cs),
(896,910,o),
(960,868,o),
(1010,828,cs),
(1031,812,o),
(1050,802,o),
(1068,802,cs),
(1084,802,o),
(1100,809,o),
(1116,824,cs),
(1260,956,ls),
(1281,975,o),
(1292,995,o),
(1292,1015,cs),
(1292,1031,o),
(1285,1047,o),
(1270,1062,cs),
(1146,1182,o),
(980,1248,o),
(788,1248,cs),
(428,1248,o),
(110,1006,o),
(110,606,cs),
(110,206,o),
(428,-28,o),
(788,-28,cs)
);
}
);
width = 1402;
}
);
metricLeft = o;
metricRight = o;
unicode = 99;
},
{
glyphname = d;
kernLeft = o;
kernRight = d;
lastChange = "2021-06-09 17:41:07 +0000";
layers = (
{
anchors = (
{
name = bottom;
pos = (816,0);
},
{
name = center;
pos = (816,600);
},
{
name = top;
pos = (1250,1480);
},
{
name = topright;
pos = (1532,1200);
}
);
layerId = "9B85AB65-32D7-4FED-B27C-3C7447013A9D";
shapes = (
{
closed = 1;
nodes = (
(1010,-26,o),
(1106,284,o),
(1106,404,cs),
(1106,538,l),
(1030,586,l),
(1030,458,o),
(948,302,o),
(780,302,cs),
(626,302,o),
(550,432,o),
(550,602,cs),
(550,800,o),
(634,922,o),
(788,922,cs),
(948,922,o),
(1030,774,o),
(1030,670,cs),
(1030,640,l),
(1126,706,l),
(1126,900,ls),
(1126,1016,o),
(968,1248,o),
(676,1248,cs),
(332,1248,o),
(110,998,o),
(110,620,cs),
(110,228,o),
(368,-26,o),
(676,-26,cs)
);
},
{
closed = 1;
nodes = (
(1378,0,o),
(1422,46,o),
(1422,126,cs),
(1422,1550,ls),
(1422,1608,o),
(1390,1640,o),
(1332,1640,cs),
(1120,1640,ls),
(1062,1640,o),
(1030,1608,o),
(1030,1550,cs),
(1030,126,ls),
(1030,46,o),
(1064,0,o),
(1130,0,cs),
(1312,0,ls)
);
}
);
width = 1572;
}
);
metricLeft = o;
unicode = 100;
},
{
glyphname = eth;
lastChange = "2022-03-19 19:37:34 +0000";
layers = (
{
layerId = "9B85AB65-32D7-4FED-B27C-3C7447013A9D";
shapes = (
{
closed = 1;
nodes = (
(1426,1378,o),
(918,1616,o),
(758,1728,cs),
(719,1755,o),
(679,1778,o),
(639,1778,cs),
(624,1778,o),
(609,1772,o),
(597,1761,cs),
(522,1697,ls),
(496,1675,o),
(472,1662,o),
(472,1643,cs),
(472,1628,o),
(481,1614,o),
(500,1601,cs),
(592,1540,o),
(991,1298,o),
(1064,935,c),
(1426,610,l)
);
},
{
closed = 1;
nodes = (
(1056,1590,ls),
(1079,1609,o),
(1092,1630,o),
(1092,1650,cs),
(1092,1665,o),
(1084,1680,o),
(1068,1692,cs),
(982,1753,ls),
(956,1771,o),
(939,1784,o),
(920,1784,cs),
(908,1784,o),
(896,1778,o),
(882,1767,cs),
(510,1461,ls),
(487,1442,o),
(472,1420,o),
(472,1399,cs),
(472,1384,o),
(480,1368,o),
(496,1357,cs),
(582,1298,ls),
(607,1281,o),
(625,1268,o),
(645,1268,cs),
(657,1268,o),
(670,1273,o),
(684,1284,cs)
);
},
{
ref = o;
}
);
width = 1496;
}
);
unicode = 240;
},
{
glyphname = dcaron;
lastChange = "2021-06-09 17:49:04 +0000";
layers = (
{
layerId = "9B85AB65-32D7-4FED-B27C-3C7447013A9D";
shapes = (
{
closed = 1;
nodes = (
(1544,1119,o),
(1557,1113,o),
(1568,1113,cs),
(1588,1113,o),
(1601,1134,o),
(1620,1152,cs),
(1634,1166,o),
(1648,1180,o),
(1660,1194,cs),
(1672,1208,o),
(1682,1222,o),
(1692,1232,cs),
(1702,1242,o),
(1708,1252,o),
(1710,1258,c),
(1724,1276,o),
(1746,1314,o),
(1746,1356,cs),
(1746,1390,o),
(1732,1424,o),
(1708,1448,cs),
(1684,1470,o),
(1652,1484,o),
(1618,1484,cs),
(1580,1484,o),
(1550,1470,o),
(1526,1448,cs),
(1502,1424,o),
(1488,1390,o),
(1488,1356,cs),
(1488,1332,o),
(1498,1308,o),
(1514,1288,cs),
(1530,1268,o),
(1554,1252,o),
(1584,1246,c),
(1540,1196,ls),
(1527,1183,o),
(1515,1171,o),
(1515,1158,cs),
(1515,1153,o),
(1517,1147,o),
(1522,1142,c),
(1522,1140,o),
(1524,1138,o),
(1526,1136,cs)
);
},
{
ref = d;
}
);
width = 1766;
}
);
unicode = 271;
},
{
glyphname = dcroat;
lastChange = "2020-10-01 17:10:44 +0000";
layers = (
{
layerId = "9B85AB65-32D7-4FED-B27C-3C7447013A9D";
shapes = (
{
closed = 1;
nodes = (
(1448,1312,ls),
(1514,1312,o),
(1550,1348,o),
(1550,1416,cs),
(1550,1482,o),
(1514,1518,o),
(1448,1518,cs),
(794,1518,ls),
(726,1518,o),
(690,1482,o),
(690,1416,cs),
(690,1348,o),
(726,1312,o),
(794,1312,cs)
);
},
{
ref = d;
}
);
width = 1552;
}
);
unicode = 273;
},
{
glyphname = e;
kernLeft = o;
kernRight = o;
lastChange = "2022-03-19 19:54:26 +0000";
layers = (
{
anchors = (
{
name = bottom;
pos = (732,0);
},
{
name = ogonek;
pos = (1100,157);
},
{
name = top;
pos = (732,1200);
}
);
layerId = "9B85AB65-32D7-4FED-B27C-3C7447013A9D";
shapes = (
{
closed = 1;
nodes = (
(940,-26,o),
(1152,28,o),
(1276,148,cs),
(1291,163,o),
(1298,179,o),
(1298,195,cs),
(1298,215,o),
(1285,233,o),
(1266,254,cs),
(1142,389,ls),
(1128,405,o),
(1110,410,o),
(1094,410,cs),
(1075,410,o),
(1056,401,o),
(1036,385,cs),
(996,353,o),
(917,288,o),
(779,288,cs),
(584,288,o),
(502,394,o),
(502,624,cs),
(502,838,o),
(592,934,o),
(754,934,cs),
(920,934,o),
(978,814,o),
(978,750,c),
(440,750,l),
(440,510,l),
(1172,510,ls),
(1248,510,o),
(1340,524,o),
(1340,692,cs),
(1340,1032,o),
(1082,1246,o),
(760,1246,cs),
(396,1246,o),
(110,976,o),
(110,606,cs),
(110,218,o),
(396,-26,o),
(746,-26,cs)
);
}
);
width = 1450;
}
);
metricLeft = o;
metricRight = o;
unicode = 101;
},
{
glyphname = schwa;
kernLeft = o;
kernRight = o;
lastChange = "2022-03-19 19:40:35 +0000";
layers = (
{
layerId = "9B85AB65-32D7-4FED-B27C-3C7447013A9D";
shapes = (
{
closed = 1;
nodes = (
(510,1246,o),
(298,1192,o),
(174,1072,cs),
(159,1057,o),
(152,1041,o),
(152,1025,cs),
(152,1005,o),
(163,985,o),
(184,966,cs),
(316,848,ls),
(332,834,o),
(348,827,o),
(364,827,cs),
(383,827,o),
(402,836,o),
(422,852,cs),
(462,884,o),
(542,932,o),
(680,932,cs),
(895,932,o),
(958,806,o),
(958,596,cs),
(958,402,o),
(858,286,o),
(696,286,cs),
(530,286,o),
(462,406,o),
(462,470,c),
(1010,470,l),
(1010,720,l),
(278,720,ls),
(202,720,o),
(110,706,o),
(110,528,cs),
(110,188,o),
(368,-26,o),
(690,-26,cs),
(1054,-26,o),
(1340,264,o),
(1340,614,cs),
(1340,982,o),
(1054,1246,o),
(704,1246,cs)
);
}
);
width = 1450;
}
);
metricLeft = o;
metricRight = o;
unicode = 601;
},
{
glyphname = f;
kernLeft = f;
kernRight = f;
lastChange = "2022-03-19 19:32:16 +0000";
layers = (
{
anchors = (
{
name = bottom;
pos = (600,0);
},
{
name = top;
pos = (600,1500);
}
);
layerId = "9B85AB65-32D7-4FED-B27C-3C7447013A9D";
shapes = (
{
closed = 1;
nodes = (
(618,0,ls),
(684,0,o),
(718,46,o),
(718,126,cs),
(718,1146,ls),
(718,1282,o),
(786,1366,o),
(916,1366,cs),
(970,1366,o),
(1022,1348,o),
(1062,1348,cs),
(1118,1348,o),
(1136,1380,o),
(1136,1438,cs),
(1136,1550,ls),
(1136,1608,o),
(1112,1640,o),
(1056,1654,cs),
(1002,1668,o),
(956,1674,o),
(864,1674,cs),
(558,1674,o),
(326,1428,o),
(326,1114,cs),
(326,126,ls),
(326,46,o),
(360,0,o),
(436,0,cs)
);
},
{
closed = 1;
nodes = (
(1045,890,ls),
(1102,890,o),
(1135,922,o),
(1135,980,cs),
(1135,1110,ls),
(1135,1168,o),
(1102,1200,o),
(1045,1200,cs),
(140,1200,ls),
(82,1200,o),
(50,1168,o),
(50,1110,cs),
(50,980,ls),
(50,922,o),
(82,890,o),
(140,890,cs)
);
}
);
width = 1198;
}
);
unicode = 102;
},
{
glyphname = g;
kernLeft = o;
kernRight = n;
lastChange = "2022-03-19 19:32:22 +0000";
layers = (
{
anchors = (
{
name = bottom;
pos = (782,-550);
},
{
name = top;
pos = (782,1200);
}
);
layerId = "9B85AB65-32D7-4FED-B27C-3C7447013A9D";
shapes = (
{
closed = 1;
nodes = (
(1042,-542,o),
(1422,-376,o),
(1422,6,cs),
(1422,1074,ls),
(1422,1154,o),
(1388,1200,o),
(1322,1200,cs),
(1130,1200,ls),
(1064,1200,o),
(1030,1154,o),
(1030,1074,cs),
(1030,80,ls),
(1030,-142,o),
(904,-202,o),
(716,-202,cs),
(578,-202,o),
(492,-136,o),
(452,-104,cs),
(431,-88,o),
(412,-78,o),
(393,-78,cs),
(377,-78,o),
(361,-85,o),
(346,-100,cs),
(198,-250,ls),
(177,-271,o),
(166,-291,o),
(166,-310,cs),
(166,-326,o),
(173,-341,o),
(188,-356,cs),
(312,-476,o),
(520,-542,o),
(714,-542,cs)
);
},
{
closed = 1;
nodes = (
(968,-26,o),
(1126,206,o),
(1126,322,cs),
(1126,516,l),
(1030,582,l),
(1030,552,ls),
(1030,448,o),
(948,300,o),
(788,300,cs),
(634,300,o),
(550,422,o),
(550,620,cs),
(550,790,o),
(626,920,o),
(780,920,cs),
(948,920,o),
(1030,764,o),
(1030,636,c),
(1106,684,l),
(1106,818,ls),
(1106,938,o),
(1010,1248,o),
(676,1248,cs),
(368,1248,o),
(110,994,o),
(110,602,cs),
(110,224,o),
(332,-26,o),
(676,-26,cs)
);
}
);
width = 1552;
}
);
metricLeft = o;
metricRight = n;
unicode = 103;
},
{
glyphname = h;
kernLeft = h;
kernRight = h;
lastChange = "2022-03-19 19:40:58 +0000";
layers = (
{
anchors = (
{
name = bottom;
pos = (728,0);
},
{
name = center;
pos = (728,750);
},
{
name = top;
pos = (327,1548);
}
);
layerId = "9B85AB65-32D7-4FED-B27C-3C7447013A9D";
shapes = (
{
closed = 1;
nodes = (
(1204,0,ls),
(1270,0,o),
(1324,46,o),
(1324,126,cs),
(1324,640,ls),
(1324,1018,o),
(1214,1248,o),
(876,1248,cs),
(584,1248,o),
(466,996,o),
(466,880,cs),
(466,686,l),
(522,640,l),
(522,670,ls),
(522,774,o),
(604,922,o),
(744,922,cs),
(878,922,o),
(932,840,o),
(932,642,cs),
(932,126,ls),
(932,46,o),
(966,0,o),
(1032,0,cs)
);
},
{
closed = 1;
nodes = (
(422,0,ls),
(488,0,o),
(522,46,o),
(522,126,cs),
(522,1550,ls),
(522,1608,o),
(490,1640,o),
(432,1640,cs),
(220,1640,ls),
(162,1640,o),
(130,1608,o),
(130,1550,cs),
(130,126,ls),
(130,46,o),
(174,0,o),
(240,0,cs)
);
}
);
width = 1454;
}
);
metricLeft = n;
metricRight = n;
unicode = 104;
},
{
glyphname = hbar;
lastChange = "2020-09-28 20:42:33 +0000";
layers = (
{
layerId = "9B85AB65-32D7-4FED-B27C-3C7447013A9D";
shapes = (
{
closed = 1;
nodes = (
(740,1312,ls),
(806,1312,o),
(842,1348,o),
(842,1416,cs),
(842,1482,o),
(806,1518,o),
(740,1518,cs),
(86,1518,ls),
(18,1518,o),
(-18,1482,o),
(-18,1416,cs),
(-18,1348,o),
(18,1312,o),
(86,1312,cs)
);
},
{
ref = h;
}
);
width = 1454;
}
);
unicode = 295;
},
{
glyphname = i;
lastChange = "2020-09-28 21:28:55 +0000";
layers = (
{
anchors = (
{
name = bottom;
pos = (350,0);
}
);
layerId = "9B85AB65-32D7-4FED-B27C-3C7447013A9D";
shapes = (
{
closed = 1;
nodes = (
(444,0,ls),
(510,0,o),
(544,46,o),
(544,126,cs),
(544,1110,ls),
(544,1168,o),
(512,1200,o),
(454,1200,cs),
(240,1200,ls),
(182,1200,o),
(150,1168,o),
(150,1110,cs),
(150,126,ls),
(150,46,o),
(184,0,o),
(250,0,cs)
);
},
{
closed = 1;
nodes = (
(474,1285,o),
(574,1384,o),
(574,1508,cs),
(574,1635,o),
(474,1734,o),
(350,1734,cs),
(224,1734,o),
(124,1635,o),
(124,1508,cs),
(124,1384,o),
(224,1285,o),
(350,1285,cs)
);
}
);
width = 698;
}
);
unicode = 105;
},
{
glyphname = idotless;
lastChange = "2020-09-28 21:25:55 +0000";
layers = (
{
anchors = (
{
name = bottom;
pos = (361,0);
},
{
name = ogonek;
pos = (455,100);
},
{
name = top;
pos = (361,1200);
}
);
layerId = "9B85AB65-32D7-4FED-B27C-3C7447013A9D";
shapes = (
{
closed = 1;
nodes = (
(436,0,ls),
(502,0,o),
(536,46,o),
(536,126,cs),
(536,1110,ls),
(536,1168,o),
(504,1200,o),
(446,1200,cs),
(272,1200,ls),
(214,1200,o),
(182,1168,o),
(182,1110,cs),
(182,126,ls),
(182,46,o),
(216,0,o),
(282,0,cs)
);
}
);
width = 722;
}
);
unicode = 305;
},
{
glyphname = j;
lastChange = "2021-06-09 17:43:37 +0000";
layers = (
{
layerId = "9B85AB65-32D7-4FED-B27C-3C7447013A9D";
shapes = (
{
closed = 1;
nodes = (
(54,-542,ls),
(444,-542,o),
(628,-318,o),
(628,44,cs),
(628,1074,ls),
(628,1154,o),
(594,1200,o),
(528,1200,cs),
(334,1200,ls),
(268,1200,o),
(234,1154,o),
(234,1074,cs),
(234,72,ls),
(234,-92,o),
(198,-192,o),
(52,-192,cs),
(-30,-192,ls),
(-88,-192,o),
(-120,-224,o),
(-120,-282,cs),
(-120,-452,ls),
(-120,-510,o),
(-88,-542,o),
(-30,-542,cs)
);
},
{
closed = 1;
nodes = (
(556,1284,o),
(656,1384,o),
(656,1508,cs),
(656,1634,o),
(556,1734,o),
(432,1734,cs),
(306,1734,o),
(206,1634,o),
(206,1508,cs),
(206,1384,o),
(306,1284,o),
(432,1284,cs)
);
}
);
width = 832;
}
);
unicode = 106;
},
{
glyphname = jdotless;
lastChange = "2020-09-28 21:14:29 +0000";
layers = (
{
anchors = (
{
name = bottom;
pos = (416,-550);
},
{
name = top;
pos = (454,1200);
}
);
layerId = "9B85AB65-32D7-4FED-B27C-3C7447013A9D";
shapes = (
{
closed = 1;
nodes = (
(74,-542,ls),
(464,-542,o),
(648,-318,o),
(648,44,cs),
(648,1074,ls),
(648,1154,o),
(614,1200,o),
(548,1200,cs),
(354,1200,ls),
(288,1200,o),
(254,1154,o),
(254,1074,cs),
(254,72,ls),
(254,-92,o),
(218,-192,o),
(72,-192,cs),
(-10,-192,ls),
(-68,-192,o),
(-100,-224,o),
(-100,-282,cs),
(-100,-452,ls),
(-100,-510,o),
(-68,-542,o),
(-10,-542,cs)
);
}
);
width = 832;
}
);
unicode = 567;
},
{
glyphname = k;
kernLeft = h;
kernRight = x;
lastChange = "2022-03-19 19:36:22 +0000";
layers = (
{
anchors = (
{
name = bottom;
pos = (670,0);
},
{
name = top;
pos = (670,1500);
}
);
layerId = "9B85AB65-32D7-4FED-B27C-3C7447013A9D";
shapes = (
{
closed = 1;
nodes = (
(1184,0,ls),
(1234,0,o),
(1260,20,o),
(1260,50,cs),
(1260,67,o),
(1252,88,o),
(1234,110,cs),
(698,794,l),
(446,672,l),
(458,560,l),
(838,52,ls),
(868,12,o),
(902,0,o),
(948,0,cs)
);
},
{
closed = 1;
nodes = (
(422,0,ls),
(488,0,o),
(522,46,o),
(522,126,cs),
(522,1550,ls),
(522,1608,o),
(490,1640,o),
(432,1640,cs),
(220,1640,ls),
(162,1640,o),
(130,1608,o),
(130,1550,cs),
(130,126,ls),
(130,46,o),
(174,0,o),
(240,0,cs)
);
},
{
closed = 1;
nodes = (
(1214,1094,ls),
(1231,1115,o),
(1241,1134,o),
(1241,1151,cs),
(1241,1182,o),
(1212,1204,o),
(1162,1204,cs),
(924,1204,ls),
(878,1204,o),
(843,1191,o),
(814,1154,cs),
(446,672,l),
(746,540,l)
);
}
);
width = 1320;
}
);
metricLeft = n;
metricRight = x;
unicode = 107;
},
{
glyphname = l;
lastChange = "2020-10-01 16:53:03 +0000";
layers = (
{
anchors = (
{
name = bottom;
pos = (338,0);
},
{
name = center;
pos = (338,750);
},
{
name = top;
pos = (338,1500);
},
{
name = topright;
pos = (648,1500);
}
);
layerId = "9B85AB65-32D7-4FED-B27C-3C7447013A9D";
shapes = (
{
closed = 1;
nodes = (
(434,0,ls),
(500,0,o),
(534,46,o),
(534,126,cs),
(534,1550,ls),
(534,1608,o),
(502,1640,o),
(444,1640,cs),
(230,1640,ls),
(172,1640,o),
(140,1608,o),
(140,1550,cs),
(140,126,ls),
(140,46,o),
(184,0,o),
(250,0,cs)
);
}
);
width = 674;
}
);
unicode = 108;
},
{
glyphname = lcaron;
lastChange = "2021-06-09 17:49:05 +0000";
layers = (
{
layerId = "9B85AB65-32D7-4FED-B27C-3C7447013A9D";
shapes = (
{
closed = 1;
nodes = (
(718,1119,o),
(731,1113,o),
(742,1113,cs),
(762,1113,o),
(775,1134,o),
(794,1152,cs),
(808,1166,o),
(822,1180,o),
(834,1194,cs),
(846,1208,o),
(856,1222,o),
(866,1232,cs),
(876,1242,o),
(882,1252,o),
(884,1258,c),
(898,1276,o),
(920,1314,o),
(920,1356,cs),
(920,1390,o),
(906,1424,o),
(882,1448,cs),
(858,1470,o),
(826,1484,o),
(792,1484,cs),
(754,1484,o),
(724,1470,o),
(700,1448,cs),
(676,1424,o),
(662,1390,o),
(662,1356,cs),
(662,1332,o),
(672,1308,o),
(688,1288,cs),
(704,1268,o),
(728,1252,o),
(758,1246,c),
(714,1196,ls),
(701,1183,o),
(689,1171,o),
(689,1158,cs),
(689,1153,o),
(691,1147,o),
(696,1142,c),
(696,1140,o),
(698,1138,o),
(700,1136,cs)
);
},
{
ref = l;
}
);
width = 980;
}
);
unicode = 318;
},
{
glyphname = lslash;
lastChange = "2021-06-09 17:49:05 +0000";
layers = (
{
layerId = "9B85AB65-32D7-4FED-B27C-3C7447013A9D";
shapes = (
{
closed = 1;
nodes = (
(694,894,ls),
(714,912,o),
(730,928,o),
(730,978,cs),
(730,1126,ls),
(730,1148,o),
(717,1168,o),
(700,1168,cs),
(694,1168,o),
(688,1166,o),
(682,1160,cs),
(98,644,ls),
(76,624,o),
(62,608,o),
(62,560,cs),
(62,412,ls),
(62,390,o),
(73,367,o),
(90,367,cs),
(96,367,o),
(103,370,o),
(110,376,cs)
);
},
{
pos = (40,0);
ref = l;
},
{
pos = (40,0);
ref = slashshortcomb;
scale = (0.1,0.1);
}
);
width = 770;
}
);
unicode = 322;
},
{
glyphname = m;
kernLeft = n;
kernRight = n;
lastChange = "2022-03-19 19:33:09 +0000";
layers = (
{
anchors = (
{
name = bottom;
pos = (1094,0);
},
{
name = top;
pos = (1094,1200);
}
);
layerId = "9B85AB65-32D7-4FED-B27C-3C7447013A9D";
shapes = (
{
closed = 1;
nodes = (
(1927,0,ls),
(1993,0,o),
(2047,46,o),
(2047,126,cs),
(2047,740,ls),
(2047,1032,o),
(1947,1248,o),
(1649,1248,cs),
(1377,1248,o),
(1229,936,o),
(1229,820,cs),
(1229,646,l),
(1285,600,l),
(1285,630,ls),
(1285,754,o),
(1347,902,o),
(1487,902,cs),
(1601,902,o),
(1655,830,o),
(1655,652,cs),
(1655,126,ls),
(1655,46,o),
(1689,0,o),
(1755,0,cs)
);
},
{
closed = 1;
nodes = (
(422,0,ls),
(488,0,o),
(522,46,o),
(522,126,cs),
(522,1110,ls),
(522,1168,o),
(490,1200,o),
(432,1200,cs),
(220,1200,ls),
(162,1200,o),
(130,1168,o),
(130,1110,cs),
(130,126,ls),
(130,46,o),
(174,0,o),
(240,0,cs)
);
},
{
closed = 1;
nodes = (
(1164,0,ls),
(1230,0,o),
(1284,46,o),
(1284,126,cs),
(1284,740,ls),
(1284,1032,o),
(1184,1248,o),
(886,1248,cs),
(614,1248,o),
(466,936,o),
(466,820,cs),
(466,646,l),
(522,600,l),
(522,630,ls),
(522,754,o),
(584,902,o),
(724,902,cs),
(838,902,o),
(892,830,o),
(892,652,cs),
(892,126,ls),
(892,46,o),
(926,0,o),
(992,0,cs)
);
}
);
width = 2177;
}
);
metricLeft = n;
metricRight = n;
unicode = 109;
},
{
glyphname = n;
kernLeft = n;
kernRight = n;
lastChange = "2022-03-19 19:33:25 +0000";
layers = (
{
anchors = (
{
name = bottom;
pos = (718,0);
},
{
name = top;
pos = (718,1200);
}
);
layerId = "9B85AB65-32D7-4FED-B27C-3C7447013A9D";
shapes = (
{
closed = 1;
nodes = (
(1204,0,ls),
(1270,0,o),
(1324,46,o),
(1324,126,cs),
(1324,703,ls),
(1324,1031,o),
(1234,1248,o),
(896,1248,cs),
(604,1248,o),
(466,976,o),
(466,860,cs),
(466,686,l),
(522,640,l),
(522,670,ls),
(522,774,o),
(594,922,o),
(734,922,cs),
(868,922,o),
(932,840,o),
(932,642,cs),
(932,126,ls),
(932,46,o),
(966,0,o),
(1032,0,cs)
);
},
{
closed = 1;
nodes = (
(422,0,ls),
(488,0,o),
(522,46,o),
(522,126,cs),
(522,1110,ls),
(522,1168,o),
(490,1200,o),
(432,1200,cs),
(220,1200,ls),
(162,1200,o),
(130,1168,o),
(130,1110,cs),
(130,126,ls),
(130,46,o),
(174,0,o),
(240,0,cs)
);
}
);
width = 1454;
}
);
unicode = 110;
},
{
glyphname = eng;
lastChange = "2022-03-19 19:53:28 +0000";
layers = (
{
layerId = "9B85AB65-32D7-4FED-B27C-3C7447013A9D";
shapes = (
{
closed = 1;
nodes = (
(1157,-468,o),
(1324,-276,o),
(1324,134,c),
(932,198,l),
(932,177,o),
(933,15,o),
(933,-21,cs),
(933,-126,o),
(909,-159,o),
(882,-172,cs),
(875,-175,o),
(868,-177,o),
(860,-177,cs),
(830,-177,o),
(793,-140,o),
(748,-70,cs),
(731,-43,o),
(707,-26,o),
(679,-26,cs),
(662,-26,o),
(645,-33,o),
(624,-46,cs),
(518,-114,ls),
(492,-131,o),
(477,-156,o),
(477,-186,cs),
(477,-200,o),
(480,-215,o),
(488,-230,cs),
(554,-368,o),
(718,-468,o),
(896,-468,cs)
);
},
{
ref = n;
}
);
width = 1484;
}
);
unicode = 331;
},
{
glyphname = o;
kernLeft = o;
kernRight = o;
lastChange = "2022-03-19 19:33:31 +0000";
layers = (
{
anchors = (
{
name = bottom;
pos = (768,0);
},
{
name = center;
pos = (768,600);
},
{
name = ogonek;
pos = (1056,150);
},
{
name = top;
pos = (768,1200);
},
{
name = topright;
pos = (1061,1172);
}
);
layerId = "9B85AB65-32D7-4FED-B27C-3C7447013A9D";
shapes = (
{
closed = 1;
nodes = (
(1120,-26,o),
(1426,238,o),
(1426,610,cs),
(1426,984,o),
(1120,1248,o),
(768,1248,cs),
(414,1248,o),
(110,984,o),
(110,610,cs),
(110,238,o),
(414,-26,o),
(768,-26,cs)
);
},
{
closed = 1;
nodes = (
(606,312,o),
(488,420,o),
(488,610,cs),
(488,802,o),
(606,910,o),
(768,910,cs),
(930,910,o),
(1046,802,o),
(1046,610,cs),
(1046,420,o),
(930,312,o),
(768,312,cs)
);
}
);
width = 1536;
}
);
unicode = 111;
},
{
glyphname = oslash;
lastChange = "2021-06-09 17:49:05 +0000";
layers = (
{
anchors = (
{
name = top;
pos = (768,1200);
}
);
layerId = "9B85AB65-32D7-4FED-B27C-3C7447013A9D";
shapes = (
{
closed = 1;
nodes = (
(551,-152,ls),
(597,-152,o),
(621,-129,o),
(637,-86,cs),
(1133,1284,ls),
(1137,1295,o),
(1139,1306,o),
(1139,1315,cs),
(1139,1351,o),
(1112,1372,o),
(1067,1372,cs),
(986,1372,ls),
(939,1372,o),
(915,1350,o),
(899,1307,cs),
(403,-64,ls),
(399,-75,o),
(397,-86,o),
(397,-95,cs),
(397,-130,o),
(424,-152,o),
(469,-152,cs)
);
},
{
ref = o;
}
);
width = 1536;
}
);
unicode = 248;
},
{
glyphname = oe;
lastChange = "2020-09-28 20:59:41 +0000";
layers = (
{
anchors = (
{
name = bottom;
pos = (1186,0);
},
{
name = top;
pos = (1186,1200);
}
);
layerId = "9B85AB65-32D7-4FED-B27C-3C7447013A9D";
shapes = (
{
closed = 1;
nodes = (
(1120,-26,o),
(1426,238,o),
(1426,610,cs),
(1426,984,o),
(1120,1248,o),
(768,1248,cs),
(414,1248,o),
(110,984,o),
(110,610,cs),
(110,238,o),
(414,-26,o),
(768,-26,cs)
);
},
{
closed = 1;
nodes = (
(606,302,o),
(478,430,o),
(478,610,cs),
(478,792,o),
(606,920,o),
(768,920,cs),
(930,920,o),
(1056,792,o),
(1056,610,cs),
(1056,430,o),
(930,302,o),
(768,302,cs)
);
},
{
alignment = -1;
pos = (954,0);
ref = e;
}
);
width = 2372;
}
);
unicode = 339;
},
{
glyphname = p;
kernLeft = n;
kernRight = o;
lastChange = "2022-03-19 19:33:38 +0000";
layers = (
{
anchors = (
{
name = bottom;
pos = (772,0);
},
{
name = top;
pos = (772,1200);
}
);
layerId = "9B85AB65-32D7-4FED-B27C-3C7447013A9D";
shapes = (
{
closed = 1;
nodes = (
(1220,-48,o),
(1442,202,o),
(1442,580,cs),
(1442,972,o),
(1184,1226,o),
(876,1226,cs),
(542,1226,o),
(446,916,o),
(446,796,cs),
(446,662,l),
(522,614,l),
(522,742,o),
(604,898,o),
(772,898,cs),
(926,898,o),
(1002,768,o),
(1002,598,cs),
(1002,400,o),
(918,278,o),
(764,278,cs),
(604,278,o),
(522,426,o),
(522,530,cs),
(522,560,l),
(426,494,l),
(426,300,ls),
(426,184,o),
(584,-48,o),
(876,-48,cs)
);
},
{
closed = 1;
nodes = (
(432,-549,ls),
(490,-549,o),
(522,-518,o),
(522,-459,cs),
(522,1074,ls),
(522,1154,o),
(488,1200,o),
(422,1200,cs),
(240,1200,ls),
(174,1200,o),
(130,1154,o),
(130,1074,cs),
(130,-459,ls),
(130,-518,o),
(162,-549,o),
(220,-549,cs)
);
}
);
width = 1552;
}
);
metricLeft = n;
metricRight = o;
unicode = 112;
},
{
glyphname = thorn;
lastChange = "2020-09-28 21:00:02 +0000";
layers = (
{
layerId = "9B85AB65-32D7-4FED-B27C-3C7447013A9D";
shapes = (
{
closed = 1;
nodes = (
(392,-522,ls),
(450,-522,o),
(482,-490,o),
(482,-432,cs),
(482,1074,ls),
(482,1154,o),
(448,1200,o),
(382,1200,cs),
(190,1200,ls),
(124,1200,o),
(90,1154,o),
(90,1074,cs),
(90,-432,ls),
(90,-490,o),
(122,-522,o),
(180,-522,cs)
);
},
{
ref = b;
}
);
width = 1512;
}
);
unicode = 254;
},
{
glyphname = q;
kernLeft = o;
lastChange = "2022-03-19 19:33:42 +0000";
layers = (
{
anchors = (
{
name = bottom;
pos = (764,0);
},
{
name = top;
pos = (764,1200);
}
);
layerId = "9B85AB65-32D7-4FED-B27C-3C7447013A9D";
shapes = (
{
closed = 1;
nodes = (
(968,-48,o),
(1126,184,o),
(1126,300,cs),
(1126,494,l),
(1030,560,l),
(1030,530,ls),
(1030,426,o),
(948,278,o),
(788,278,cs),
(634,278,o),
(550,400,o),
(550,598,cs),
(550,768,o),
(626,898,o),
(780,898,cs),
(948,898,o),
(1030,742,o),
(1030,614,c),
(1106,662,l),
(1106,796,ls),
(1106,916,o),
(1010,1226,o),
(676,1226,cs),
(368,1226,o),
(110,972,o),
(110,580,cs),
(110,202,o),
(332,-48,o),
(676,-48,cs)
);
},
{
closed = 1;
nodes = (
(1332,-549,ls),
(1390,-549,o),
(1422,-518,o),
(1422,-459,cs),
(1422,1074,ls),
(1422,1154,o),
(1378,1200,o),
(1312,1200,cs),
(1130,1200,ls),
(1064,1200,o),
(1030,1154,o),
(1030,1074,cs),
(1030,-459,ls),
(1030,-518,o),
(1062,-549,o),
(1120,-549,cs)
);
}
);
width = 1552;
}
);
metricLeft = o;
metricRight = n;
unicode = 113;
},
{
glyphname = r;
kernLeft = n;
kernRight = r;
lastChange = "2022-03-19 19:33:54 +0000";
layers = (
{
anchors = (
{
name = bottom;
pos = (632,0);
},
{
name = top;
pos = (632,1200);
}
);
layerId = "9B85AB65-32D7-4FED-B27C-3C7447013A9D";
shapes = (
{
closed = 1;
nodes = (
(422,0,ls),
(488,0,o),
(522,46,o),
(522,126,cs),
(522,1110,ls),
(522,1168,o),
(490,1200,o),
(432,1200,cs),
(220,1200,ls),
(162,1200,o),
(130,1168,o),
(130,1110,cs),
(130,126,ls),
(130,46,o),
(164,0,o),
(230,0,cs)
);
},
{
closed = 1;
nodes = (
(522,670,ls),
(522,774,o),
(544,922,o),
(684,922,cs),
(758,922,o),
(804,878,o),
(804,760,cs),
(804,702,o),
(838,670,o),
(894,670,cs),
(1086,670,ls),
(1152,670,o),
(1186,716,o),
(1186,796,cs),
(1186,836,ls),
(1186,1064,o),
(1088,1238,o),
(828,1238,cs),
(556,1238,o),
(464,998,o),
(464,860,c),
(476,706,l),
(522,640,l)
);
}
);
width = 1286;
}
);
metricLeft = n;
metricRight = "=n-30";
unicode = 114;
},
{
glyphname = s;
kernLeft = o;
kernRight = o;
lastChange = "2022-03-19 19:34:05 +0000";
layers = (
{
anchors = (
{
name = bottom;
pos = (666,0);
},
{
name = top;
pos = (666,1200);
}
);
layerId = "9B85AB65-32D7-4FED-B27C-3C7447013A9D";
shapes = (
{
closed = 1;
nodes = (
(1044,-30,o),
(1202,144,o),
(1202,378,cs),
(1202,580,o),
(1032,689,o),
(716,764,cs),
(577,797,o),
(514,816,o),
(514,874,cs),
(514,930,o),
(572,955,o),
(663,955,cs),
(772,955,o),
(868,916,o),
(966,870,cs),
(982,862,o),
(996,860,o),
(1012,860,cs),
(1038,860,o),
(1062,870,o),
(1074,892,cs),
(1156,1036,ls),
(1166,1054,o),
(1172,1070,o),
(1172,1086,cs),
(1172,1106,o),
(1162,1124,o),
(1138,1138,cs),
(1050,1188,o),
(890,1250,o),
(696,1250,cs),
(426,1250,o),
(140,1154,o),
(140,876,cs),
(140,664,o),
(327,526,o),
(604,468,cs),
(746,438,o),
(834,409,o),
(834,364,cs),
(834,304,o),
(760,286,o),
(686,286,cs),
(567,286,o),
(440,322,o),
(330,382,cs),
(312,392,o),
(292,396,o),
(276,396,cs),
(252,396,o),
(233,386,o),
(220,364,cs),
(126,202,ls),
(117,186,o),
(110,168,o),
(110,152,cs),
(110,132,o),
(120,114,o),
(148,98,cs),
(300,14,o),
(490,-30,o),
(682,-30,cs)
);
}
);
width = 1312;
}
);
metricLeft = o;
metricRight = o;
unicode = 115;
},
{
glyphname = germandbls;
lastChange = "2020-09-28 20:54:56 +0000";
layers = (
{
layerId = "9B85AB65-32D7-4FED-B27C-3C7447013A9D";
shapes = (
{
closed = 1;
nodes = (
(1012,-28,o),
(1296,91,o),
(1296,424,cs),
(1296,674,o),
(1068,692,o),
(1068,746,cs),
(1068,815,o),
(1262,838,o),
(1262,1082,cs),
(1262,1371,o),
(1004,1523,o),
(707,1523,cs),
(354,1523,o),
(100,1308,o),
(100,950,cs),
(100,90,ls),
(100,30,o),
(130,0,o),
(190,0,cs),
(374,0,ls),
(434,0,o),
(464,30,o),
(464,90,cs),
(464,884,ls),
(464,1122,o),
(600,1212,o),
(716,1212,cs),
(831,1212,o),
(896,1140,o),
(896,1031,cs),
(896,939,o),
(846,915,o),
(746,872,cs),
(686,846,o),
(646,794,o),
(646,738,cs),
(646,682,o),
(672,638,o),
(734,610,cs),
(830,566,o),
(920,515,o),
(920,422,cs),
(920,327,o),
(863,287,o),
(735,287,cs),
(728,287,o),
(691,291,o),
(661,291,cs),
(631,291,o),
(597,281,o),
(586,228,cs),
(552,70,ls),
(551,64,o),
(550,58,o),
(550,53,cs),
(550,-9,o),
(626,-28,o),
(698,-28,cs)
);
}
);
width = 1390;
}
);
unicode = 223;
},
{
glyphname = t;
kernLeft = f;
kernRight = f;
lastChange = "2022-03-19 19:43:08 +0000";
layers = (
{
anchors = (
{
name = bottom;
pos = (549,0);
},
{
name = center;
pos = (549,600);
},
{
name = top;
pos = (549,1520);
},
{
name = topright;
pos = (1069,1200);
}
);
layerId = "9B85AB65-32D7-4FED-B27C-3C7447013A9D";
shapes = (
{
closed = 1;
nodes = (
(647,0,ls),
(713,0,o),
(747,46,o),
(747,126,cs),
(747,1462,ls),
(747,1520,o),
(715,1552,o),
(657,1552,cs),
(445,1552,ls),
(387,1552,o),
(355,1520,o),
(355,1462,cs),
(355,126,ls),
(355,46,o),
(399,0,o),
(465,0,cs)
);
},
{
closed = 1;
nodes = (
(962,890,ls),
(1020,890,o),
(1052,922,o),
(1052,980,cs),
(1052,1110,ls),
(1052,1168,o),
(1020,1200,o),
(962,1200,cs),
(140,1200,ls),
(82,1200,o),
(50,1168,o),
(50,1110,cs),
(50,980,ls),
(50,922,o),
(82,890,o),
(140,890,cs)
);
}
);
width = 1114;
}
);
metricLeft = f;
metricRight = f;
unicode = 116;
},
{
glyphname = tbar;
lastChange = "2020-10-01 17:09:20 +0000";
layers = (
{
layerId = "9B85AB65-32D7-4FED-B27C-3C7447013A9D";
shapes = (
{
closed = 1;
nodes = (
(862,530,ls),
(924,530,o),
(955,561,o),
(955,622,cs),
(955,684,o),
(924,715,o),
(862,715,cs),
(262,715,ls),
(200,715,o),
(169,684,o),
(169,622,cs),
(169,561,o),
(200,530,o),
(262,530,cs)
);
},
{
ref = t;
}
);
width = 1120;
}
);
unicode = 359;
},
{
glyphname = tcaron;
lastChange = "2021-06-09 17:49:05 +0000";
layers = (
{
layerId = "9B85AB65-32D7-4FED-B27C-3C7447013A9D";
shapes = (
{
closed = 1;
nodes = (
(972,1311,o),
(985,1305,o),
(996,1305,cs),
(1016,1305,o),
(1029,1326,o),
(1048,1344,cs),
(1062,1358,o),
(1076,1372,o),
(1088,1386,cs),
(1100,1400,o),
(1110,1414,o),
(1120,1424,cs),
(1130,1434,o),
(1136,1444,o),
(1138,1450,c),
(1152,1468,o),
(1174,1506,o),
(1174,1548,cs),
(1174,1582,o),
(1160,1616,o),
(1136,1640,cs),
(1112,1662,o),
(1080,1676,o),
(1046,1676,cs),
(1008,1676,o),
(978,1662,o),
(954,1640,cs),
(930,1616,o),
(916,1582,o),
(916,1548,cs),
(916,1524,o),
(926,1500,o),
(942,1480,cs),
(958,1460,o),
(982,1444,o),
(1012,1438,c),
(968,1388,ls),
(955,1375,o),
(943,1363,o),
(943,1350,cs),
(943,1345,o),
(945,1339,o),
(950,1334,c),
(950,1332,o),
(952,1330,o),
(954,1328,cs)
);
},
{
ref = t;
}
);
width = 1120;
}
);
unicode = 357;
},
{
glyphname = u;
kernLeft = n;
kernRight = n;
lastChange = "2022-03-19 19:34:17 +0000";
layers = (
{
anchors = (
{
name = bottom;
pos = (722,0);
},
{
name = ogonek;
pos = (1228,98);
},
{
name = top;
pos = (722,1200);
},
{
name = topright;
pos = (1214,1200);
}
);
layerId = "9B85AB65-32D7-4FED-B27C-3C7447013A9D";
shapes = (
{
closed = 1;
nodes = (
(850,-38,o),
(988,224,o),
(988,340,cs),
(988,514,l),
(932,560,l),
(932,530,ls),
(932,426,o),
(850,287,o),
(710,287,cs),
(576,287,o),
(522,360,o),
(522,558,cs),
(522,1074,ls),
(522,1154,o),
(488,1200,o),
(422,1200,cs),
(250,1200,ls),
(184,1200,o),
(130,1154,o),
(130,1074,cs),
(130,560,ls),
(130,182,o),
(220,-38,o),
(558,-38,cs)
);
},
{
closed = 1;
nodes = (
(1234,0,ls),
(1292,0,o),
(1324,32,o),
(1324,90,cs),
(1324,1074,ls),
(1324,1154,o),
(1280,1200,o),
(1214,1200,cs),
(1032,1200,ls),
(966,1200,o),
(932,1154,o),
(932,1074,cs),
(932,90,ls),
(932,32,o),
(964,0,o),
(1022,0,cs)
);
}
);
width = 1454;
}
);
metricLeft = n;
metricRight = n;
unicode = 117;
},
{
glyphname = v;
kernLeft = v;
kernRight = v;
lastChange = "2022-03-19 19:34:27 +0000";
layers = (
{
anchors = (
{
name = bottom;
pos = (676,0);
},
{
name = top;
pos = (676,1200);
}
);
layerId = "9B85AB65-32D7-4FED-B27C-3C7447013A9D";
shapes = (
{
closed = 1;
nodes = (
(788,0,ls),
(832,0,o),
(857,20,o),
(872,58,cs),
(1286,1118,ls),
(1291,1129,o),
(1293,1140,o),
(1293,1149,cs),
(1293,1181,o),
(1268,1200,o),
(1226,1200,cs),
(1004,1200,ls),
(960,1200,o),
(933,1180,o),
(920,1142,cs),
(676,444,l),
(432,1142,ls),
(419,1180,o),
(392,1200,o),
(348,1200,cs),
(126,1200,ls),
(84,1200,o),
(60,1180,o),
(60,1148,cs),
(60,1139,o),
(62,1129,o),
(66,1118,cs),
(480,58,ls),
(495,20,o),
(522,0,o),
(566,0,cs)
);
}
);
width = 1353;
}
);
metricLeft = x;
metricRight = x;
unicode = 118;
},
{
glyphname = w;
kernLeft = v;
kernRight = v;
lastChange = "2022-03-19 19:34:31 +0000";
layers = (
{
anchors = (
{
name = bottom;
pos = (924,0);
},
{
name = top;
pos = (924,1200);
}
);
layerId = "9B85AB65-32D7-4FED-B27C-3C7447013A9D";
shapes = (
{
closed = 1;
nodes = (
(1432,0,ls),
(1486,0,o),
(1517,20,o),
(1526,58,cs),
(1773,1118,ls),
(1775,1128,o),
(1776,1137,o),
(1776,1145,cs),
(1776,1179,o),
(1755,1200,o),
(1712,1200,cs),
(1504,1200,ls),
(1460,1200,o),
(1428,1180,o),
(1420,1142,cs),
(1290,490,l),
(1078,1142,ls),
(1066,1180,o),
(1038,1200,o),
(994,1200,cs),
(864,1200,ls),
(819,1200,o),
(790,1178,o),
(790,1142,cs),
(790,1135,o),
(791,1067,o),
(794,1058,cs),
(1114,58,ls),
(1126,20,o),
(1156,0,o),
(1200,0,cs)
);
},
{
closed = 1;
nodes = (
(638,0,ls),
(682,0,o),
(710,20,o),
(722,58,cs),
(1042,1058,ls),
(1045,1067,o),
(1046,1135,o),
(1046,1142,cs),
(1046,1178,o),
(1017,1200,o),
(972,1200,cs),
(842,1200,ls),
(798,1200,o),
(770,1180,o),
(758,1142,cs),
(546,490,l),
(416,1142,ls),
(408,1180,o),
(376,1200,o),
(332,1200,cs),
(124,1200,ls),
(81,1200,o),
(60,1179,o),
(60,1145,cs),
(60,1137,o),
(61,1128,o),
(63,1118,cs),
(310,58,ls),
(319,20,o),
(352,0,o),
(396,0,cs)
);
}
);
width = 1836;
}
);
metricLeft = v;
metricRight = v;
unicode = 119;
},
{
glyphname = x;
kernLeft = x;
kernRight = x;
lastChange = "2022-03-19 19:34:35 +0000";
layers = (
{
anchors = (
{
name = bottom;
pos = (699,0);
},
{
name = top;
pos = (699,1200);
}
);
layerId = "9B85AB65-32D7-4FED-B27C-3C7447013A9D";
shapes = (
{
closed = 1;
nodes = (
(389,0,ls),
(435,0,o),
(467,14,o),
(489,48,cs),
(699,380,l),
(909,48,ls),
(931,14,o),
(963,0,o),
(1007,0,cs),
(1265,0,ls),
(1311,0,o),
(1336,16,o),
(1336,43,cs),
(1336,56,o),
(1330,72,o),
(1317,90,cs),
(935,604,l),
(1313,1110,ls),
(1325,1126,o),
(1331,1142,o),
(1331,1155,cs),
(1331,1182,o),
(1307,1200,o),
(1261,1200,cs),
(1003,1200,ls),
(955,1200,o),
(925,1190,o),
(901,1152,cs),
(699,828,l),
(495,1152,ls),
(473,1186,o),
(441,1200,o),
(395,1200,cs),
(135,1200,ls),
(90,1200,o),
(65,1182,o),
(65,1155,cs),
(65,1142,o),
(71,1126,o),
(83,1110,cs),
(461,604,l),
(79,90,ls),
(66,72,o),
(60,56,o),
(60,43,cs),
(60,16,o),
(85,0,o),
(131,0,cs)
);
}
);
width = 1396;
}
);
unicode = 120;
},
{
glyphname = y;
kernLeft = v;
lastChange = "2022-03-19 19:34:43 +0000";
layers = (
{
anchors = (
{
name = bottom;
pos = (1039,0);
},
{
name = top;
pos = (664,1200);
}
);
layerId = "9B85AB65-32D7-4FED-B27C-3C7447013A9D";
shapes = (
{
closed = 1;
nodes = (
(206,-562,ls),
(534,-562,o),
(700,-416,o),
(878,58,cs),
(1276,1118,ls),
(1280,1129,o),
(1282,1140,o),
(1282,1149,cs),
(1282,1181,o),
(1258,1200,o),
(1216,1200,cs),
(974,1200,ls),
(930,1200,o),
(902,1180,o),
(890,1142,cs),
(674,460,l),
(458,1142,ls),
(446,1180,o),
(418,1200,o),
(374,1200,cs),
(126,1200,ls),
(84,1200,o),
(60,1181,o),
(60,1149,cs),
(60,1140,o),
(62,1129,o),
(66,1118,cs),
(492,2,l),
(462,-84,o),
(409,-232,o),
(264,-232,cs),
(182,-232,ls),
(124,-232,o),
(92,-264,o),
(92,-322,cs),
(92,-472,ls),
(92,-530,o),
(124,-562,o),
(182,-562,cs)
);
}
);
width = 1342;
}
);
metricLeft = v;
metricRight = v;
unicode = 121;
},
{
glyphname = z;
kernLeft = x;
kernRight = x;
lastChange = "2022-03-19 19:34:49 +0000";
layers = (
{
anchors = (
{
name = bottom;
pos = (632,0);
},
{
name = center;
pos = (632,600);
},
{
name = top;
pos = (632,1200);
}
);
layerId = "9B85AB65-32D7-4FED-B27C-3C7447013A9D";
shapes = (
{
closed = 1;
nodes = (
(1050,0,ls),
(1102,0,o),
(1132,26,o),
(1132,72,cs),
(1132,238,ls),
(1132,284,o),
(1102,310,o),
(1050,310,cs),
(570,310,l),
(1070,908,ls),
(1095,937,o),
(1104,962,o),
(1104,998,cs),
(1104,1128,ls),
(1104,1174,o),
(1074,1200,o),
(1020,1200,cs),
(240,1200,ls),
(186,1200,o),
(156,1174,o),
(156,1128,cs),
(156,962,ls),
(156,916,o),
(186,890,o),
(240,890,cs),
(660,890,l),
(164,294,ls),
(140,265,o),
(130,240,o),
(130,204,cs),
(130,72,ls),
(130,26,o),
(160,0,o),
(210,0,cs)
);
}
);
width = 1262;
}
);
metricLeft = n;
metricRight = n;
unicode = 122;
},
{
glyphname = ordfeminine;
lastChange = "2020-09-28 21:18:54 +0000";
layers = (
{
layerId = "9B85AB65-32D7-4FED-B27C-3C7447013A9D";
shapes = (
{
closed = 1;
nodes = (
(505,974,ls),
(574,974,o),
(597,1003,o),
(597,1044,cs),
(597,1084,o),
(575,1108,o),
(538,1108,cs),
(529,1108,l),
(529,1300,ls),
(529,1405,o),
(421,1467,o),
(292,1467,cs),
(225,1467,o),
(158,1456,o),
(128,1446,cs),
(95,1435,o),
(61,1417,o),
(61,1380,cs),
(61,1335,o),
(99,1319,o),
(141,1319,cs),
(149,1319,o),
(165,1319,o),
(180,1323,cs),
(208,1330,o),
(234,1333,o),
(274,1333,cs),
(323,1333,o),
(357,1306,o),
(357,1280,cs),
(357,1266,l),
(347,1274,o),
(310,1292,o),
(248,1292,cs),
(141,1292,o),
(40,1243,o),
(40,1133,cs),
(40,1031,o),
(118,969,o),
(221,969,cs),
(312,969,o),
(351,1020,o),
(359,1054,c),
(359,1040,ls),
(359,999,o),
(389,974,o),
(450,974,cs)
);
},
{
closed = 1;
nodes = (
(357,1134,l),
(350,1122,o),
(319,1091,o),
(282,1091,cs),
(234,1091,o),
(214,1110,o),
(214,1139,cs),
(214,1169,o),
(239,1190,o),
(284,1190,cs),
(318,1190,o),
(350,1179,o),
(357,1172,c)
);
}
);
width = 637;
}
);
unicode = 170;
},
{
glyphname = ordmasculine;
lastChange = "2020-09-28 21:19:02 +0000";
layers = (
{
layerId = "9B85AB65-32D7-4FED-B27C-3C7447013A9D";
shapes = (
{
closed = 1;
nodes = (
(432,971,o),
(548,1088,o),
(548,1227,cs),
(548,1364,o),
(432,1480,o),
(295,1480,cs),
(156,1480,o),
(40,1364,o),
(40,1227,cs),
(40,1088,o),
(156,971,o),
(295,971,cs)
);
},
{
closed = 1;
nodes = (
(259,1162,o),
(230,1190,o),
(230,1227,cs),
(230,1261,o),
(259,1290,o),
(295,1290,cs),
(329,1290,o),
(358,1261,o),
(358,1227,cs),
(358,1190,o),
(329,1162,o),
(295,1162,cs)
);
}
);
width = 588;
}
);
unicode = 186;
},
{
glyphname = zero;
lastChange = "2020-09-28 20:42:28 +0000";
layers = (
{
layerId = "9B85AB65-32D7-4FED-B27C-3C7447013A9D";
shapes = (
{
closed = 1;
nodes = (
(1286,-36,o),
(1526,310,o),
(1526,740,cs),
(1526,1170,o),
(1286,1518,o),
(852,1518,cs),
(418,1518,o),
(180,1170,o),
(180,740,cs),
(180,310,o),
(418,-36,o),
(852,-36,cs)
);
},
{
closed = 1;
nodes = (
(674,322,o),
(578,478,o),
(578,740,cs),
(578,1002,o),
(674,1160,o),
(852,1160,cs),
(1030,1160,o),
(1126,1002,o),
(1126,740,cs),
(1126,478,o),
(1030,322,o),
(852,322,cs)
);
}
);
width = 1706;
}
);
unicode = 48;
},
{
glyphname = one;
lastChange = "2021-06-09 17:48:56 +0000";
layers = (
{
layerId = "9B85AB65-32D7-4FED-B27C-3C7447013A9D";
shapes = (
{
closed = 1;
nodes = (
(694,0,ls),
(752,0,o),
(784,32,o),
(784,90,cs),
(784,1390,ls),
(784,1448,o),
(752,1480,o),
(694,1480,cs),
(480,1480,ls),
(432,1480,o),
(400,1464,o),
(370,1426,cs),
(146,1136,ls),
(130,1115,o),
(123,1096,o),
(123,1079,cs),
(123,1048,o),
(150,1026,o),
(200,1026,cs),
(366,1026,l),
(366,90,ls),
(366,32,o),
(398,0,o),
(456,0,cs)
);
}
);
width = 982;
}
);
unicode = 49;
},
{
glyphname = two;
lastChange = "2020-09-28 20:42:33 +0000";
layers = (
{
layerId = "9B85AB65-32D7-4FED-B27C-3C7447013A9D";
shapes = (
{
closed = 1;
nodes = (
(1224,0,ls),
(1282,0,o),
(1314,32,o),
(1314,90,cs),
(1314,270,ls),
(1314,328,o),
(1282,360,o),
(1224,360,cs),
(774,360,l),
(894,452,o),
(1038,570,o),
(1118,648,cs),
(1236,764,o),
(1308,892,o),
(1308,1050,cs),
(1308,1336,o),
(1065,1522,o),
(760,1522,cs),
(511,1522,o),
(337,1398,o),
(198,1190,cs),
(186,1171,o),
(179,1153,o),
(179,1136,cs),
(179,1110,o),
(194,1087,o),
(224,1066,cs),
(388,952,ls),
(408,938,o),
(426,931,o),
(444,931,cs),
(469,931,o),
(493,946,o),
(514,974,cs),
(572,1054,o),
(654,1142,o),
(760,1142,cs),
(854,1142,o),
(922,1090,o),
(922,1010,cs),
(922,966,o),
(898,920,o),
(872,898,cs),
(282,382,ls),
(240,346,o),
(192,300,o),
(192,208,cs),
(192,90,ls),
(192,32,o),
(224,0,o),
(282,0,cs)
);
}
);
width = 1494;
}
);
unicode = 50;
},
{
glyphname = three;
lastChange = "2021-06-09 17:49:19 +0000";
layers = (
{
layerId = "9B85AB65-32D7-4FED-B27C-3C7447013A9D";
shapes = (
{
closed = 1;
nodes = (
(1055,-38,o),
(1314,118,o),
(1314,410,cs),
(1314,584,o),
(1184,716,o),
(1050,742,c),
(1186,780,o),
(1310,916,o),
(1310,1106,cs),
(1310,1368,o),
(1044,1523,o),
(765,1523,cs),
(504,1523,o),
(334,1410,o),
(194,1204,cs),
(185,1191,o),
(180,1180,o),
(180,1170,cs),
(180,1148,o),
(202,1131,o),
(240,1108,cs),
(400,1012,ls),
(418,1001,o),
(435,996,o),
(450,996,cs),
(477,996,o),
(501,1011,o),
(524,1040,cs),
(577,1108,o),
(646,1164,o),
(756,1164,cs),
(858,1164,o),
(942,1094,o),
(942,1030,cs),
(942,992,o),
(936,904,o),
(794,878,cs),
(734,867,o),
(702,840,o),
(702,784,cs),
(702,690,ls),
(702,634,o),
(734,608,o),
(796,598,cs),
(942,574,o),
(946,492,o),
(946,454,cs),
(946,384,o),
(861,316,o),
(760,316,cs),
(645,316,o),
(572,384,o),
(524,448,cs),
(503,476,o),
(480,489,o),
(454,489,cs),
(437,489,o),
(420,484,o),
(400,472,cs),
(212,360,ls),
(193,349,o),
(188,334,o),
(188,318,cs),
(188,290,o),
(208,257,o),
(224,234,cs),
(303,118,o),
(438,-38,o),
(748,-38,cs)
);
}
);
width = 1474;
}
);
unicode = 51;
},
{
glyphname = four;
lastChange = "2021-06-09 17:49:46 +0000";
layers = (
{
layerId = "9B85AB65-32D7-4FED-B27C-3C7447013A9D";
shapes = (
{
closed = 1;
nodes = (
(1034,0,ls),
(1092,0,o),
(1124,32,o),
(1124,90,cs),
(1124,314,l),
(1232,314,ls),
(1290,314,o),
(1322,346,o),
(1322,404,cs),
(1322,532,ls),
(1322,590,o),
(1290,622,o),
(1232,622,cs),
(1124,622,l),
(1124,1390,ls),
(1124,1448,o),
(1092,1480,o),
(1034,1480,cs),
(812,1480,ls),
(764,1480,o),
(729,1464,o),
(702,1428,cs),
(140,670,ls),
(114,634,o),
(100,604,o),
(100,558,cs),
(100,404,ls),
(100,346,o),
(132,314,o),
(190,314,cs),
(736,314,l),
(736,90,ls),
(736,32,o),
(768,0,o),
(826,0,cs)
);
},
{
closed = 1;
nodes = (
(736,970,l),
(736,622,l),
(484,622,l)
);
}
);
width = 1422;
}
);
unicode = 52;
},
{
glyphname = five;
lastChange = "2021-06-09 17:49:51 +0000";
layers = (
{
layerId = "9B85AB65-32D7-4FED-B27C-3C7447013A9D";
shapes = (
{
closed = 1;
nodes = (
(1062,-38,o),
(1290,190,o),
(1290,518,cs),
(1290,812,o),
(1092,1022,o),
(784,1022,cs),
(620,1022,o),
(556,932,o),
(552,926,c),
(586,1150,l),
(1110,1150,ls),
(1168,1150,o),
(1200,1182,o),
(1200,1240,cs),
(1200,1390,ls),
(1200,1448,o),
(1168,1480,o),
(1110,1480,cs),
(372,1480,ls),
(318,1480,o),
(284,1452,o),
(276,1398,cs),
(186,774,ls),
(185,766,o),
(184,758,o),
(184,751,cs),
(184,708,o),
(208,680,o),
(256,670,cs),
(402,638,ls),
(412,636,o),
(422,635,o),
(431,635,cs),
(464,635,o),
(491,648,o),
(522,672,cs),
(585,720,o),
(652,740,o),
(714,740,cs),
(844,740,o),
(912,664,o),
(912,520,cs),
(912,410,o),
(850,320,o),
(718,320,cs),
(608,320,o),
(545,358,o),
(494,414,cs),
(471,439,o),
(448,454,o),
(422,454,cs),
(406,454,o),
(390,450,o),
(370,436,cs),
(204,324,ls),
(174,304,o),
(160,280,o),
(160,254,cs),
(160,236,o),
(167,217,o),
(184,198,cs),
(325,36,o),
(492,-38,o),
(724,-38,cs)
);
}
);
width = 1470;
}
);
unicode = 53;
},
{
glyphname = six;
lastChange = "2021-06-09 17:49:58 +0000";
layers = (
{
layerId = "9B85AB65-32D7-4FED-B27C-3C7447013A9D";
shapes = (
{
closed = 1;
nodes = (
(1022,-38,o),
(1258,196,o),
(1258,484,cs),
(1258,834,o),
(955,944,o),
(792,944,cs),
(754,944,o),
(724,938,o),
(706,928,c),
(952,1374,ls),
(962,1392,o),
(967,1409,o),
(967,1424,cs),
(967,1459,o),
(940,1482,o),
(890,1482,cs),
(700,1482,ls),
(630,1482,o),
(598,1462,o),
(574,1418,cs),
(254,840,ls),
(194,732,o),
(160,618,o),
(160,486,cs),
(160,194,o),
(404,-38,o),
(714,-38,cs)
);
},
{
closed = 1;
nodes = (
(612,296,o),
(526,372,o),
(526,488,cs),
(526,604,o),
(612,680,o),
(718,680,cs),
(824,680,o),
(910,604,o),
(910,488,cs),
(910,372,o),
(824,296,o),
(718,296,cs)
);
}
);
width = 1418;
}
);
unicode = 54;
},
{
glyphname = seven;
lastChange = "2021-06-09 17:50:01 +0000";
layers = (
{
layerId = "9B85AB65-32D7-4FED-B27C-3C7447013A9D";
shapes = (
{
closed = 1;
nodes = (
(614,0,ls),
(664,0,o),
(703,20,o),
(720,64,cs),
(1148,1142,ls),
(1163,1180,o),
(1174,1210,o),
(1174,1254,cs),
(1174,1390,ls),
(1174,1448,o),
(1142,1480,o),
(1084,1480,cs),
(260,1480,ls),
(202,1480,o),
(170,1448,o),
(170,1390,cs),
(170,1240,ls),
(170,1182,o),
(202,1150,o),
(260,1150,cs),
(742,1150,l),
(326,108,ls),
(319,90,o),
(315,73,o),
(315,59,cs),
(315,22,o),
(339,0,o),
(390,0,cs)
);
}
);
width = 1344;
}
);
unicode = 55;
},
{
glyphname = eight;
lastChange = "2021-06-09 17:50:10 +0000";
layers = (
{
layerId = "9B85AB65-32D7-4FED-B27C-3C7447013A9D";
shapes = (
{
closed = 1;
nodes = (
(1106,-38,o),
(1342,160,o),
(1342,434,cs),
(1342,598,o),
(1234,734,o),
(1098,784,c),
(1216,844,o),
(1288,972,o),
(1288,1094,cs),
(1288,1348,o),
(1044,1520,o),
(752,1520,cs),
(458,1520,o),
(214,1348,o),
(214,1094,cs),
(214,972,o),
(284,844,o),
(404,784,c),
(268,734,o),
(160,598,o),
(160,434,cs),
(160,160,o),
(398,-38,o),
(752,-38,cs)
);
},
{
closed = 1;
nodes = (
(640,250,o),
(548,324,o),
(548,456,cs),
(548,588,o),
(640,660,o),
(752,660,cs),
(864,660,o),
(956,588,o),
(956,456,cs),
(956,324,o),
(864,250,o),
(752,250,cs)
);
},
{
closed = 1;
nodes = (
(654,898,o),
(576,956,o),
(576,1072,cs),
(576,1188,o),
(654,1246,o),
(750,1246,cs),
(846,1246,o),
(924,1188,o),
(924,1072,cs),
(924,956,o),
(846,898,o),
(750,898,cs)
);
}
);
width = 1502;
}
);
unicode = 56;
},
{
glyphname = nine;
lastChange = "2020-09-28 20:42:34 +0000";
layers = (
{
layerId = "9B85AB65-32D7-4FED-B27C-3C7447013A9D";
shapes = (
{
closed = 1;
nodes = (
(720,0,ls),
(790,0,o),
(822,20,o),
(846,64,cs),
(1166,642,ls),
(1226,750,o),
(1260,864,o),
(1260,996,cs),
(1260,1288,o),
(1016,1520,o),
(706,1520,cs),
(398,1520,o),
(162,1286,o),
(162,998,cs),
(162,648,o),
(464,538,o),
(628,538,cs),
(666,538,o),
(696,544,o),
(714,554,c),
(468,108,ls),
(458,90,o),
(454,72,o),
(454,58,cs),
(454,22,o),
(480,0,o),
(530,0,cs)
);
},
{
closed = 1;
nodes = (
(596,802,o),
(510,888,o),
(510,994,cs),
(510,1100,o),
(596,1186,o),
(702,1186,cs),
(808,1186,o),
(894,1100,o),
(894,994,cs),
(894,888,o),
(808,802,o),
(702,802,cs)
);
}
);
width = 1418;
}
);
unicode = 57;
},
{
glyphname = zero.ss01;
lastChange = "2020-10-01 16:57:23 +0000";
layers = (
{
layerId = "9B85AB65-32D7-4FED-B27C-3C7447013A9D";
shapes = (
{
closed = 1;
nodes = (
(882,594,ls),
(942,594,o),
(972,624,o),
(972,684,cs),
(972,784,ls),
(972,844,o),
(942,874,o),
(882,874,cs),
(824,874,ls),
(764,874,o),
(734,844,o),
(734,784,cs),
(734,684,ls),
(734,624,o),
(764,594,o),
(824,594,cs)
);
},
{
ref = zero;
}
);
width = 1706;
}
);
metricLeft = zero;
metricRight = zero;
},
{
glyphname = one.tf;
lastChange = "2020-10-01 16:55:24 +0000";
layers = (
{
layerId = "9B85AB65-32D7-4FED-B27C-3C7447013A9D";
shapes = (
{
closed = 1;
nodes = (
(1285,0,ls),
(1345,0,o),
(1375,30,o),
(1375,90,cs),
(1375,190,ls),
(1375,250,o),
(1345,280,o),
(1285,280,cs),
(390,280,ls),
(330,280,o),
(300,250,o),
(300,190,cs),
(300,90,ls),
(300,30,o),
(330,0,o),
(390,0,cs)
);
},
{
pos = (260,0);
ref = one;
}
);
width = 1600;
}
);
},
{
glyphname = period;
lastChange = "2020-09-28 20:42:48 +0000";
layers = (
{
layerId = "9B85AB65-32D7-4FED-B27C-3C7447013A9D";
shapes = (
{
closed = 1;
nodes = (
(429,-32,o),
(522,65,o),
(522,178,cs),
(522,294,o),
(428,390,o),
(312,390,cs),
(192,390,o),
(100,298,o),
(100,178,cs),
(100,66,o),
(191,-32,o),
(312,-32,cs)
);
}
);
width = 668;
}
);
unicode = 46;
},
{
glyphname = comma;
lastChange = "2020-09-28 20:43:45 +0000";
layers = (
{
layerId = "9B85AB65-32D7-4FED-B27C-3C7447013A9D";
shapes = (
{
closed = 1;
nodes = (
(307,-298,o),
(490,-129,o),
(490,178,c),
(266,-8,l),
(266,-183,o),
(82,-154,o),
(82,-250,cs),
(82,-283,o),
(106,-298,o),
(142,-298,cs)
);
},
{
pos = (-32,0);
ref = period;
}
);
width = 688;
}
);
unicode = 44;
},
{
glyphname = exclam;
lastChange = "2020-09-28 20:43:56 +0000";
layers = (
{
layerId = "9B85AB65-32D7-4FED-B27C-3C7447013A9D";
shapes = (
{
closed = 1;
nodes = (
(326,514,ls),
(384,514,o),
(416,544,o),
(418,602,cs),
(456,1382,ls),
(458,1444,o),
(430,1474,o),
(368,1474,cs),
(174,1474,ls),
(112,1474,o),
(84,1444,o),
(86,1382,cs),
(126,602,ls),
(128,544,o),
(160,514,o),
(218,514,cs)
);
},
{
closed = 1;
nodes = (
(389,-32,o),
(482,65,o),
(482,178,cs),
(482,294,o),
(388,390,o),
(272,390,cs),
(152,390,o),
(60,298,o),
(60,178,cs),
(60,66,o),
(151,-32,o),
(272,-32,cs)
);
}
);
width = 674;
}
);
unicode = 33;
},
{
glyphname = question;
lastChange = "2020-09-28 20:45:29 +0000";
layers = (
{
layerId = "9B85AB65-32D7-4FED-B27C-3C7447013A9D";
shapes = (
{
closed = 1;
nodes = (
(623,514,ls),
(677,514,o),
(698,569,o),
(713,611,cs),
(731,660,o),
(791,703,o),
(854,748,cs),
(973,833,o),
(1064,952,o),
(1064,1099,cs),
(1064,1347,o),
(846,1512,o),
(592,1512,cs),
(396,1512,o),
(201,1416,o),
(98,1246,cs),
(86,1228,o),
(80,1211,o),
(80,1196,cs),
(80,1167,o),
(101,1147,o),
(134,1126,cs),
(258,1046,ls),
(273,1036,o),
(289,1035,o),
(304,1035,cs),
(332,1035,o),
(358,1048,o),
(380,1076,cs),
(436,1140,o),
(502,1198,o),
(592,1198,cs),
(666,1198,o),
(721,1151,o),
(721,1085,cs),
(721,1029,o),
(673,977,o),
(606,922,cs),
(462,802,o),
(376,690,o),
(376,584,cs),
(376,528,o),
(408,514,o),
(466,514,cs)
);
},
{
closed = 1;
nodes = (
(664,-32,o),
(758,64,o),
(758,178,cs),
(758,298,o),
(666,390,o),
(546,390,cs),
(434,390,o),
(336,299,o),
(336,178,cs),
(336,62,o),
(430,-32,o),
(546,-32,cs)
);
}
);
width = 1178;
}
);
unicode = 63;
},
{
glyphname = bullet;
lastChange = "2020-09-28 20:45:44 +0000";
layers = (
{
layerId = "9B85AB65-32D7-4FED-B27C-3C7447013A9D";
shapes = (
{
closed = 1;
nodes = (
(629,424,o),
(758,551,o),
(758,710,cs),
(758,870,o),
(630,998,o),
(470,998,cs),
(310,998,o),
(182,870,o),
(182,710,cs),
(182,551,o),
(311,424,o),
(470,424,cs)
);
}
);
width = 932;
}
);
unicode = 8226;
},
{
glyphname = asterisk;
lastChange = "2020-09-28 20:46:26 +0000";
layers = (
{
layerId = "9B85AB65-32D7-4FED-B27C-3C7447013A9D";
shapes = (
{
closed = 1;
nodes = (
(221,1199,o),
(221,1187,cs),
(221,1150,o),
(259,1120,o),
(299,1120,cs),
(320,1120,o),
(343,1128,o),
(358,1150,cs),
(414,1234,l),
(470,1150,ls),
(484,1129,o),
(506,1121,o),
(527,1121,cs),
(566,1121,o),
(606,1152,o),
(606,1189,cs),
(606,1201,o),
(601,1213,o),
(592,1226,cs),
(528,1313,l),
(622,1344,ls),
(656,1355,o),
(669,1383,o),
(669,1410,cs),
(669,1445,o),
(643,1479,o),
(604,1479,cs),
(596,1479,o),
(587,1477,o),
(578,1474,c),
(484,1448,l),
(484,1540,ls),
(484,1586,o),
(462,1610,o),
(416,1610,cs),
(414,1610,ls),
(368,1610,o),
(344,1586,o),
(344,1540,cs),
(344,1448,l),
(250,1474,l),
(241,1477,o),
(232,1479,o),
(224,1479,cs),
(185,1479,o),
(160,1444,o),
(160,1409,cs),
(160,1383,o),
(173,1355,o),
(206,1344,cs),
(300,1313,l),
(236,1226,ls),
(227,1213,o)
);
}
);
width = 828;
}
);
unicode = 42;
},
{
glyphname = numbersign;
lastChange = "2021-06-09 17:49:05 +0000";
layers = (
{
layerId = "9B85AB65-32D7-4FED-B27C-3C7447013A9D";
shapes = (
{
closed = 1;
nodes = (
(519,1,ls),
(573,1,o),
(608,27,o),
(619,77,cs),
(915,1378,ls),
(918,1389,o),
(919,1400,o),
(919,1410,cs),
(919,1454,o),
(893,1480,o),
(839,1480,cs),
(691,1480,ls),
(637,1480,o),
(602,1454,o),
(591,1404,cs),
(295,103,ls),
(292,92,o),
(291,81,o),
(291,71,cs),
(291,28,o),
(317,1,o),
(371,1,cs)
);
},
{
closed = 1;
nodes = (
(1128,1,ls),
(1182,1,o),
(1217,27,o),
(1228,77,cs),
(1524,1378,ls),
(1527,1389,o),
(1528,1400,o),
(1528,1410,cs),
(1528,1454,o),
(1502,1480,o),
(1448,1480,cs),
(1300,1480,ls),
(1246,1480,o),
(1211,1454,o),
(1200,1404,cs),
(904,103,ls),
(901,92,o),
(900,81,o),
(900,71,cs),
(900,28,o),
(926,1,o),
(980,1,cs)
);
},
{
closed = 1;
nodes = (
(1600,880,ls),
(1660,880,o),
(1696,910,o),
(1709,970,cs),
(1730,1070,ls),
(1732,1081,o),
(1733,1090,o),
(1733,1099,cs),
(1733,1140,o),
(1708,1160,o),
(1659,1160,cs),
(306,1160,ls),
(246,1160,o),
(210,1130,o),
(197,1070,cs),
(176,970,ls),
(174,959,o),
(173,950,o),
(173,941,cs),
(173,900,o),
(198,880,o),
(247,880,cs)
);
},
{
closed = 1;
nodes = (
(1497,350,ls),
(1557,350,o),
(1593,380,o),
(1606,440,cs),
(1627,540,ls),
(1629,551,o),
(1630,560,o),
(1630,569,cs),
(1630,610,o),
(1605,630,o),
(1556,630,cs),
(203,630,ls),
(143,630,o),
(107,600,o),
(94,540,cs),
(73,440,ls),
(71,429,o),
(70,420,o),
(70,411,cs),
(70,370,o),
(95,350,o),
(144,350,cs)
);
}
);
width = 1803;
}
);
unicode = 35;
},
{
glyphname = slash;
lastChange = "2021-06-09 17:49:05 +0000";
layers = (
{
layerId = "9B85AB65-32D7-4FED-B27C-3C7447013A9D";
shapes = (
{
closed = 1;
nodes = (
(314,-148,ls),
(368,-148,o),
(400,-122,o),
(414,-72,cs),
(888,1514,ls),
(892,1526,o),
(893,1538,o),
(893,1548,cs),
(893,1590,o),
(865,1616,o),
(812,1616,cs),
(664,1616,ls),
(610,1616,o),
(578,1590,o),
(564,1540,cs),
(90,-46,ls),
(86,-58,o),
(85,-70,o),
(85,-80,cs),
(85,-122,o),
(113,-148,o),
(166,-148,cs)
);
}
);
width = 980;
}
);
unicode = 47;
},
{
glyphname = backslash;
lastChange = "2021-06-09 17:49:05 +0000";
layers = (
{
layerId = "9B85AB65-32D7-4FED-B27C-3C7447013A9D";
shapes = (
{
closed = 1;
nodes = (
(812,-148,ls),
(865,-148,o),
(893,-122,o),
(893,-80,cs),
(893,-70,o),
(892,-58,o),
(888,-46,cs),
(414,1540,ls),
(400,1590,o),
(368,1616,o),
(314,1616,cs),
(166,1616,ls),
(113,1616,o),
(85,1590,o),
(85,1548,cs),
(85,1538,o),
(86,1526,o),
(90,1514,cs),
(564,-72,ls),
(578,-122,o),
(610,-148,o),
(664,-148,cs)
);
}
);
width = 1014;
}
);
unicode = 92;
},
{
glyphname = hyphen;
lastChange = "2022-03-19 19:47:00 +0000";
layers = (
{
layerId = "9B85AB65-32D7-4FED-B27C-3C7447013A9D";
shapes = (
{
closed = 1;
nodes = (
(890,594,ls),
(950,594,o),
(980,624,o),
(980,684,cs),
(980,784,ls),
(980,844,o),
(950,874,o),
(890,874,cs),
(190,874,ls),
(130,874,o),
(100,844,o),
(100,784,cs),
(100,684,ls),
(100,624,o),
(130,594,o),
(190,594,cs)
);
}
);
width = 1080;
}
);
unicode = 45;
},
{
glyphname = endash;
lastChange = "2022-03-19 19:21:16 +0000";
layers = (
{
layerId = "9B85AB65-32D7-4FED-B27C-3C7447013A9D";
shapes = (
{
closed = 1;
nodes = (
(990,594,ls),
(1050,594,o),
(1080,624,o),
(1080,684,cs),
(1080,784,ls),
(1080,844,o),
(1050,874,o),
(990,874,cs),
(190,874,ls),
(130,874,o),
(100,844,o),
(100,784,cs),
(100,684,ls),
(100,624,o),
(130,594,o),
(190,594,cs)
);
}
);
width = 1180;
}
);
unicode = 8211;
},
{
glyphname = emdash;
lastChange = "2022-03-19 19:21:21 +0000";
layers = (
{
layerId = "9B85AB65-32D7-4FED-B27C-3C7447013A9D";
shapes = (
{
closed = 1;
nodes = (
(1130,594,ls),
(1190,594,o),
(1220,624,o),
(1220,684,cs),
(1220,784,ls),
(1220,844,o),
(1190,874,o),
(1130,874,cs),
(190,874,ls),
(130,874,o),
(100,844,o),
(100,784,cs),
(100,684,ls),
(100,624,o),
(130,594,o),
(190,594,cs)
);
}
);
width = 1320;
}
);
unicode = 8212;
},
{
glyphname = underscore;
lastChange = "2022-03-19 19:21:13 +0000";
layers = (
{
layerId = "9B85AB65-32D7-4FED-B27C-3C7447013A9D";
shapes = (
{
closed = 1;
nodes = (
(1088,-166,ls),
(1148,-166,o),
(1178,-136,o),
(1178,-76,cs),
(1178,76,ls),
(1178,136,o),
(1148,166,o),
(1088,166,cs),
(190,166,ls),
(130,166,o),
(100,136,o),
(100,76,cs),
(100,-76,ls),
(100,-136,o),
(130,-166,o),
(190,-166,cs)
);
}
);
width = 1278;
}
);
unicode = 95;
},
{
glyphname = parenleft;
lastChange = "2021-06-09 17:49:05 +0000";
layers = (
{
layerId = "9B85AB65-32D7-4FED-B27C-3C7447013A9D";
shapes = (
{
closed = 1;
nodes = (
(506,-404,ls),
(540,-385,o),
(557,-360,o),
(557,-329,cs),
(557,-310,o),
(551,-289,o),
(538,-266,cs),
(413,-9,o),
(332,314,o),
(332,604,cs),
(332,888,o),
(429,1254,o),
(560,1510,cs),
(573,1533,o),
(579,1555,o),
(579,1574,cs),
(579,1605,o),
(562,1631,o),
(528,1648,cs),
(462,1684,ls),
(447,1692,o),
(432,1695,o),
(419,1695,cs),
(393,1695,o),
(370,1682,o),
(352,1654,cs),
(159,1352,o),
(60,979,o),
(60,604,cs),
(60,313,o),
(123,-37,o),
(250,-268,cs),
(303,-367,o),
(338,-450,o),
(398,-450,cs),
(411,-450,o),
(425,-446,o),
(440,-438,cs)
);
}
);
width = 670;
}
);
unicode = 40;
},
{
glyphname = braceleft;
lastChange = "2020-09-28 20:42:28 +0000";
layers = (
{
layerId = "9B85AB65-32D7-4FED-B27C-3C7447013A9D";
shapes = (
{
closed = 1;
nodes = (
(472,-392,ls),
(522,-392,o),
(546,-360,o),
(546,-294,cs),
(546,-248,ls),
(546,-182,o),
(522,-150,o),
(472,-150,cs),
(432,-150,o),
(404,-112,o),
(404,-54,cs),
(404,414,ls),
(404,560,o),
(320,614,o),
(238,638,c),
(324,656,o),
(404,730,o),
(404,862,cs),
(404,1390,ls),
(404,1444,o),
(432,1486,o),
(472,1486,cs),
(522,1486,o),
(546,1520,o),
(546,1584,cs),
(546,1628,ls),
(546,1694,o),
(522,1726,o),
(472,1726,cs),
(394,1726,ls),
(240,1726,o),
(156,1602,o),
(156,1376,cs),
(156,838,ls),
(156,780,o),
(130,748,o),
(80,748,cs),
(66,748,o),
(40,736,o),
(40,690,cs),
(40,586,ls),
(40,540,o),
(66,528,o),
(80,528,cs),
(130,528,o),
(156,498,o),
(156,438,cs),
(156,-40,ls),
(156,-266,o),
(240,-392,o),
(394,-392,cs)
);
}
);
width = 646;
}
);
unicode = 123;
},
{
glyphname = bracketleft;
lastChange = "2020-09-28 20:48:29 +0000";
layers = (
{
layerId = "9B85AB65-32D7-4FED-B27C-3C7447013A9D";
shapes = (
{
closed = 1;
nodes = (
(506,-479,ls),
(566,-479,o),
(596,-449,o),
(596,-389,cs),
(596,-329,ls),
(596,-269,o),
(566,-239,o),
(506,-239,cs),
(318,-239,l),
(318,1490,l),
(506,1490,ls),
(566,1490,o),
(596,1520,o),
(596,1580,cs),
(596,1638,ls),
(596,1698,o),
(566,1728,o),
(506,1728,cs),
(170,1728,ls),
(110,1728,o),
(80,1698,o),
(80,1638,cs),
(80,-389,ls),
(80,-449,o),
(110,-479,o),
(170,-479,cs)
);
}
);
width = 730;
}
);
unicode = 91;
},
{
glyphname = quotedblleft;
lastChange = "2021-06-09 17:49:05 +0000";
layers = (
{
layerId = "9B85AB65-32D7-4FED-B27C-3C7447013A9D";
shapes = (
{
closed = 1;
nodes = (
(745,1436,o),
(704,1386,o),
(633,1297,cs),
(610,1268,o),
(577,1209,o),
(577,1139,cs),
(577,1025,o),
(668,933,o),
(783,933,cs),
(894,933,o),
(991,1022,o),
(991,1139,cs),
(991,1222,o),
(927,1299,o),
(837,1315,c),
(921,1402,ls),
(946,1428,o),
(957,1445,o),
(957,1460,cs),
(957,1473,o),
(948,1484,o),
(934,1497,cs),
(901,1527,ls),
(893,1534,o),
(884,1538,o),
(874,1538,cs),
(857,1538,o),
(837,1528,o),
(812,1503,cs)
);
},
{
closed = 1;
nodes = (
(230,1436,o),
(189,1386,o),
(118,1297,cs),
(95,1268,o),
(62,1209,o),
(62,1139,cs),
(62,1025,o),
(153,933,o),
(268,933,cs),
(379,933,o),
(476,1022,o),
(476,1139,cs),
(476,1222,o),
(412,1299,o),
(322,1315,c),
(406,1402,ls),
(431,1428,o),
(442,1445,o),
(442,1460,cs),
(442,1473,o),
(433,1484,o),
(419,1497,cs),
(386,1527,ls),
(378,1534,o),
(369,1538,o),
(359,1538,cs),
(342,1538,o),
(322,1528,o),
(297,1503,cs)
);
}
);
width = 1092;
}
);
unicode = 8220;
},
{
glyphname = quotedblright;
lastChange = "2021-06-09 17:49:05 +0000";
layers = (
{
layerId = "9B85AB65-32D7-4FED-B27C-3C7447013A9D";
shapes = (
{
closed = 1;
nodes = (
(338,1045,o),
(379,1095,o),
(450,1184,cs),
(473,1213,o),
(506,1272,o),
(506,1342,cs),
(506,1456,o),
(415,1548,o),
(300,1548,cs),
(189,1548,o),
(92,1459,o),
(92,1342,cs),
(92,1259,o),
(156,1182,o),
(246,1166,c),
(162,1079,ls),
(137,1053,o),
(126,1036,o),
(126,1021,cs),
(126,1008,o),
(135,997,o),
(149,984,cs),
(182,954,ls),
(190,947,o),
(199,943,o),
(209,943,cs),
(226,943,o),
(246,953,o),
(271,978,cs)
);
},
{
closed = 1;
nodes = (
(853,1045,o),
(894,1095,o),
(965,1184,cs),
(988,1213,o),
(1021,1272,o),
(1021,1342,cs),
(1021,1456,o),
(930,1548,o),
(815,1548,cs),
(704,1548,o),
(607,1459,o),
(607,1342,cs),
(607,1259,o),
(671,1182,o),
(761,1166,c),
(677,1079,ls),
(652,1053,o),
(641,1036,o),
(641,1021,cs),
(641,1008,o),
(650,997,o),
(664,984,cs),
(697,954,ls),
(705,947,o),
(714,943,o),
(724,943,cs),
(741,943,o),
(761,953,o),
(786,978,cs)
);
}
);
width = 1116;
}
);
unicode = 8221;
},
{
glyphname = quoteleft;
lastChange = "2021-06-09 17:49:05 +0000";
layers = (
{
layerId = "9B85AB65-32D7-4FED-B27C-3C7447013A9D";
shapes = (
{
closed = 1;
nodes = (
(240,1436,o),
(199,1386,o),
(128,1297,cs),
(105,1268,o),
(72,1209,o),
(72,1139,cs),
(72,1025,o),
(163,933,o),
(278,933,cs),
(389,933,o),
(486,1022,o),
(486,1139,cs),
(486,1222,o),
(422,1299,o),
(332,1315,c),
(416,1402,ls),
(441,1428,o),
(452,1445,o),
(452,1460,cs),
(452,1473,o),
(443,1484,o),
(429,1497,cs),
(396,1527,ls),
(388,1534,o),
(379,1538,o),
(369,1538,cs),
(352,1538,o),
(332,1528,o),
(307,1503,cs)
);
}
);
width = 612;
}
);
unicode = 8216;
},
{
glyphname = quoteright;
lastChange = "2021-06-09 17:49:05 +0000";
layers = (
{
layerId = "9B85AB65-32D7-4FED-B27C-3C7447013A9D";
shapes = (
{
closed = 1;
nodes = (
(318,1045,o),
(359,1095,o),
(430,1184,cs),
(453,1213,o),
(486,1272,o),
(486,1342,cs),
(486,1456,o),
(395,1548,o),
(280,1548,cs),
(169,1548,o),
(72,1459,o),
(72,1342,cs),
(72,1259,o),
(136,1182,o),
(226,1166,c),
(142,1079,ls),
(117,1053,o),
(106,1036,o),
(106,1021,cs),
(106,1008,o),
(115,997,o),
(129,984,cs),
(162,954,ls),
(170,947,o),
(179,943,o),
(189,943,cs),
(206,943,o),
(226,953,o),
(251,978,cs)
);
}
);
width = 612;
}
);
unicode = 8217;
},
{
glyphname = quotedbl;
lastChange = "2021-06-09 17:49:05 +0000";
layers = (
{
layerId = "9B85AB65-32D7-4FED-B27C-3C7447013A9D";
shapes = (
{
closed = 1;
nodes = (
(157,1035,ls),
(165,975,o),
(188,944,o),
(248,944,cs),
(290,944,ls),
(350,944,o),
(373,975,o),
(381,1035,cs),
(431,1389,ls),
(432,1395,o),
(432,1400,o),
(432,1405,cs),
(432,1456,o),
(394,1481,o),
(340,1481,cs),
(198,1481,ls),
(144,1481,o),
(106,1456,o),
(106,1405,cs),
(106,1400,o),
(106,1395,o),
(107,1389,cs)
);
},
{
closed = 1;
nodes = (
(538,1035,ls),
(548,975,o),
(569,944,o),
(629,944,cs),
(671,944,ls),
(731,944,o),
(752,975,o),
(762,1035,cs),
(812,1389,ls),
(813,1395,o),
(813,1400,o),
(813,1405,cs),
(813,1456,o),
(775,1481,o),
(721,1481,cs),
(579,1481,ls),
(525,1481,o),
(487,1456,o),
(487,1405,cs),
(487,1400,o),
(487,1395,o),
(488,1389,cs)
);
}
);
width = 896;
}
);
unicode = 34;
},
{
glyphname = quotesingle;
lastChange = "2021-06-09 17:49:05 +0000";
layers = (
{
layerId = "9B85AB65-32D7-4FED-B27C-3C7447013A9D";
shapes = (
{
closed = 1;
nodes = (
(127,1035,ls),
(137,975,o),
(158,944,o),
(218,944,cs),
(260,944,ls),
(320,944,o),
(341,975,o),
(351,1035,cs),
(401,1389,ls),
(402,1395,o),
(402,1400,o),
(402,1405,cs),
(402,1456,o),
(364,1481,o),
(310,1481,cs),
(168,1481,ls),
(114,1481,o),
(76,1456,o),
(76,1405,cs),
(76,1400,o),
(76,1395,o),
(77,1389,cs)
);
}
);
width = 498;
}
);
unicode = 39;
},
{
glyphname = at;
lastChange = "2021-06-09 17:49:05 +0000";
layers = (
{
layerId = "9B85AB65-32D7-4FED-B27C-3C7447013A9D";
shapes = (
{
closed = 1;
nodes = (
(1089,-34,o),
(1242,-4,o),
(1362,68,cs),
(1435,112,o),
(1490,156,o),
(1490,199,cs),
(1490,221,o),
(1476,243,o),
(1444,264,cs),
(1378,308,ls),
(1360,320,o),
(1340,328,o),
(1320,328,cs),
(1300,328,o),
(1278,320,o),
(1252,302,cs),
(1198,266,o),
(1084,218,o),
(946,218,cs),
(794,218,o),
(654,284,o),
(552,378,cs),
(448,472,o),
(386,604,o),
(386,754,cs),
(386,1052,o),
(632,1300,o),
(946,1300,cs),
(1258,1300,o),
(1482,1102,o),
(1482,808,cs),
(1482,688,o),
(1462,646,o),
(1416,646,cs),
(1356,646,o),
(1320,732,o),
(1292,840,cs),
(1236,1052,o),
(1134,1144,o),
(940,1144,cs),
(724,1144,o),
(558,964,o),
(558,750,cs),
(558,554,o),
(730,392,o),
(920,392,cs),
(1008,392,o),
(1084,430,o),
(1138,474,cs),
(1192,518,o),
(1222,570,o),
(1222,600,c),
(1244,504,o),
(1334,430,o),
(1450,430,cs),
(1630,430,o),
(1752,594,o),
(1752,808,cs),
(1752,1236,o),
(1384,1540,o),
(946,1540,cs),
(492,1540,o),
(106,1216,o),
(106,754,cs),
(106,520,o),
(212,322,o),
(364,184,cs),
(516,46,o),
(722,-34,o),
(946,-34,cs)
);
},
{
closed = 1;
nodes = (
(874,644,o),
(818,700,o),
(818,770,cs),
(818,840,o),
(874,896,o),
(944,896,cs),
(1014,896,o),
(1070,840,o),
(1070,770,cs),
(1070,700,o),
(1014,644,o),
(944,644,cs)
);
}
);
width = 1858;
}
);
unicode = 64;
},
{
glyphname = ampersand;
lastChange = "2022-03-19 19:51:02 +0000";
layers = (
{
layerId = "9B85AB65-32D7-4FED-B27C-3C7447013A9D";
shapes = (
{
closed = 1;
nodes = (
(1080,-30,o),
(1354,304,o),
(1480,464,cs),
(1500,489,o),
(1508,510,o),
(1508,528,cs),
(1508,551,o),
(1497,571,o),
(1476,586,cs),
(1369,662,ls),
(1343,680,o),
(1325,686,o),
(1308,686,cs),
(1283,686,o),
(1263,661,o),
(1232,626,cs),
(1046,420,o),
(882,268,o),
(744,268,cs),
(618,268,o),
(548,306,o),
(548,394,cs),
(548,488,o),
(650,580,o),
(810,672,cs),
(1044,806,o),
(1206,952,o),
(1206,1158,cs),
(1206,1358,o),
(1034,1508,o),
(776,1508,cs),
(522,1508,o),
(336,1370,o),
(336,1150,cs),
(336,974,o),
(503,770,o),
(560,704,cs),
(1124,52,ls),
(1157,14,o),
(1176,0,o),
(1214,0,cs),
(1428,0,ls),
(1459,0,o),
(1477,17,o),
(1477,42,cs),
(1477,59,o),
(1469,79,o),
(1452,100,cs),
(828,864,ls),
(792,909,o),
(662,1073,o),
(662,1139,cs),
(662,1209,o),
(708,1242,o),
(774,1242,cs),
(842,1242,o),
(888,1216,o),
(888,1146,cs),
(888,1048,o),
(776,962,o),
(662,906,cs),
(406,780,o),
(160,624,o),
(160,378,cs),
(160,132,o),
(370,-30,o),
(724,-30,cs)
);
}
);
width = 1668;
}
);
metricLeft = H;
metricRight = H;
unicode = 38;
},
{
glyphname = paragraph;
lastChange = "2022-03-19 19:49:22 +0000";
layers = (
{
layerId = "9B85AB65-32D7-4FED-B27C-3C7447013A9D";
shapes = (
{
closed = 1;
nodes = (
(891,-248,o),
(923,-216,o),
(923,-158,cs),
(923,1286,l),
(1151,1286,l),
(1160,1480,l),
(454,1480,ls),
(225,1480,o),
(90,1290,o),
(90,1070,cs),
(90,843,o),
(246,656,o),
(480,656,cs),
(688,656,l),
(688,-158,ls),
(688,-216,o),
(720,-248,o),
(778,-248,cs),
(833,-248,ls)
);
},
{
closed = 1;
nodes = (
(1184,-248,ls),
(1244,-248,o),
(1274,-218,o),
(1274,-158,cs),
(1274,1390,ls),
(1274,1450,o),
(1244,1480,o),
(1184,1480,cs),
(1129,1480,ls),
(1069,1480,o),
(1039,1450,o),
(1039,1390,cs),
(1039,-158,ls),
(1039,-218,o),
(1069,-248,o),
(1129,-248,cs)
);
}
);
width = 1434;
}
);
metricRight = H;
unicode = 182;
},
{
glyphname = copyright;
lastChange = "2021-06-09 17:49:05 +0000";
layers = (
{
layerId = "9B85AB65-32D7-4FED-B27C-3C7447013A9D";
shapes = (
{
closed = 1;
nodes = (
(1050,-28,o),
(1246,60,o),
(1386,200,cs),
(1526,340,o),
(1612,534,o),
(1612,748,cs),
(1612,962,o),
(1526,1158,o),
(1386,1298,cs),
(1246,1438,o),
(1050,1524,o),
(836,1524,cs),
(622,1524,o),
(428,1438,o),
(288,1298,cs),
(148,1158,o),
(60,962,o),
(60,748,cs),
(60,534,o),
(148,340,o),
(288,200,cs),
(428,60,o),
(622,-28,o),
(836,-28,cs)
);
},
{
closed = 1;
nodes = (
(906,416,o),
(966,436,o),
(1020,470,cs),
(1048,488,o),
(1061,510,o),
(1061,532,cs),
(1061,552,o),
(1051,571,o),
(1032,586,cs),
(1012,604,o),
(994,611,o),
(976,611,cs),
(955,611,o),
(934,602,o),
(908,590,c),
(890,580,o),
(868,576,o),
(842,576,cs),
(748,576,o),
(672,652,o),
(672,746,cs),
(672,840,o),
(748,914,o),
(842,914,cs),
(868,914,o),
(892,908,o),
(916,896,cs),
(943,883,o),
(963,875,o),
(982,875,cs),
(996,875,o),
(1009,879,o),
(1022,890,cs),
(1048,910,o),
(1062,934,o),
(1062,957,cs),
(1062,978,o),
(1051,998,o),
(1026,1016,cs),
(970,1054,o),
(908,1072,o),
(842,1072,cs),
(752,1072,o),
(672,1034,o),
(612,976,cs),
(552,918,o),
(514,836,o),
(514,746,cs),
(514,656,o),
(552,574,o),
(612,514,cs),
(672,454,o),
(752,416,o),
(842,416,cs)
);
},
{
closed = 1;
nodes = (
(694,240,o),
(570,298,o),
(478,390,cs),
(386,482,o),
(328,606,o),
(328,748,cs),
(328,886,o),
(386,1016,o),
(478,1108,cs),
(570,1200,o),
(694,1256,o),
(836,1256,cs),
(974,1256,o),
(1104,1200,o),
(1196,1108,cs),
(1288,1016,o),
(1344,886,o),
(1344,748,cs),
(1344,606,o),
(1288,482,o),
(1196,390,cs),
(1104,298,o),
(974,240,o),
(836,240,cs)
);
}
);
width = 1786;
}
);
unicode = 169;
},
{
glyphname = registered;
lastChange = "2021-06-09 17:49:05 +0000";
layers = (
{
layerId = "9B85AB65-32D7-4FED-B27C-3C7447013A9D";
shapes = (
{
closed = 1;
nodes = (
(1050,-28,o),
(1246,60,o),
(1386,200,cs),
(1526,340,o),
(1612,534,o),
(1612,748,cs),
(1612,962,o),
(1526,1158,o),
(1386,1298,cs),
(1246,1438,o),
(1050,1524,o),
(836,1524,cs),
(622,1524,o),
(428,1438,o),
(288,1298,cs),
(148,1158,o),
(60,962,o),
(60,748,cs),
(60,534,o),
(148,340,o),
(288,200,cs),
(428,60,o),
(622,-28,o),
(836,-28,cs)
);
},
{
closed = 1;
nodes = (
(694,240,o),
(570,298,o),
(478,390,cs),
(386,482,o),
(328,606,o),
(328,748,cs),
(328,886,o),
(386,1016,o),
(478,1108,cs),
(570,1200,o),
(694,1256,o),
(836,1256,cs),
(974,1256,o),
(1104,1200,o),
(1196,1108,cs),
(1288,1016,o),
(1344,886,o),
(1344,748,cs),
(1344,606,o),
(1288,482,o),
(1196,390,cs),
(1104,298,o),
(974,240,o),
(836,240,cs)
);
},
{
closed = 1;
nodes = (
(734,464,o),
(764,494,o),
(764,554,cs),
(764,668,l),
(834,668,l),
(884,536,ls),
(902,488,o),
(926,464,o),
(956,464,cs),
(1008,464,o),
(1036,487,o),
(1036,525,cs),
(1036,538,o),
(1033,552,o),
(1026,568,cs),
(976,686,l),
(978,686,o),
(980,688,o),
(986,690,cs),
(990,692,o),
(996,694,o),
(1002,700,c),
(1044,732,o),
(1066,790,o),
(1066,846,cs),
(1066,916,o),
(1036,968,o),
(1010,990,cs),
(976,1020,o),
(936,1034,o),
(888,1034,cs),
(710,1034,ls),
(650,1034,o),
(620,1004,o),
(620,944,cs),
(620,554,ls),
(620,494,o),
(638,464,o),
(674,464,cs)
);
},
{
closed = 1;
nodes = (
(764,894,l),
(880,894,ls),
(910,894,o),
(926,876,o),
(926,846,cs),
(926,816,o),
(904,798,o),
(874,798,cs),
(764,798,l)
);
}
);
width = 1666;
}
);
unicode = 174;
},
{
glyphname = trademark;
lastChange = "2022-03-19 19:50:10 +0000";
layers = (
{
layerId = "9B85AB65-32D7-4FED-B27C-3C7447013A9D";
shapes = (
{
closed = 1;
nodes = (
(540,1160,o),
(558,1178,o),
(558,1216,cs),
(558,1292,l),
(602,1204,ls),
(616,1174,o),
(628,1160,o),
(654,1160,cs),
(682,1160,o),
(690,1174,o),
(706,1204,cs),
(750,1292,l),
(750,1216,ls),
(750,1178,o),
(766,1160,o),
(802,1160,cs),
(844,1160,o),
(850,1180,o),
(850,1216,cs),
(850,1426,ls),
(850,1460,o),
(842,1480,o),
(806,1480,cs),
(770,1480,o),
(756,1468,o),
(738,1438,cs),
(654,1286,l),
(570,1438,ls),
(554,1468,o),
(540,1480,o),
(510,1480,cs),
(468,1480,o),
(458,1460,o),
(458,1426,cs),
(458,1216,ls),
(458,1180,o),
(470,1160,o),
(506,1160,cs)
);
},
{
closed = 1;
nodes = (
(276,1160,o),
(292,1178,o),
(292,1216,cs),
(292,1398,l),
(328,1398,ls),
(372,1398,o),
(396,1408,o),
(396,1436,cs),
(396,1472,o),
(372,1480,o),
(328,1480,cs),
(156,1480,ls),
(112,1480,o),
(90,1468,o),
(90,1442,cs),
(90,1414,o),
(112,1398,o),
(156,1398,cs),
(194,1398,l),
(194,1216,ls),
(194,1178,o),
(210,1160,o),
(242,1160,cs)
);
}
);
width = 940;
}
);
unicode = 8482;
},
{
glyphname = degree;
lastChange = "2020-09-28 20:42:33 +0000";
layers = (
{
layerId = "9B85AB65-32D7-4FED-B27C-3C7447013A9D";
shapes = (
{
closed = 1;
nodes = (
(360,1156,o),
(452,1242,o),
(452,1348,cs),
(452,1461,o),
(365,1550,o),
(252,1550,cs),
(143,1550,o),
(54,1457,o),
(54,1348,cs),
(54,1252,o),
(141,1156,o),
(252,1156,cs)
);
},
{
closed = 1;
nodes = (
(210,1272,o),
(172,1308,o),
(172,1348,cs),
(172,1394,o),
(210,1428,o),
(252,1428,cs),
(298,1428,o),
(332,1394,o),
(332,1348,cs),
(332,1308,o),
(298,1272,o),
(252,1272,cs)
);
}
);
width = 482;
}
);
unicode = 176;
},
{
glyphname = bar;
lastChange = "2020-09-28 20:42:28 +0000";
layers = (
{
layerId = "9B85AB65-32D7-4FED-B27C-3C7447013A9D";
shapes = (
{
closed = 1;
nodes = (
(302,-148,ls),
(362,-148,o),
(392,-118,o),
(392,-58,cs),
(392,1526,ls),
(392,1586,o),
(362,1616,o),
(302,1616,cs),
(150,1616,ls),
(90,1616,o),
(60,1586,o),
(60,1526,cs),
(60,-58,ls),
(60,-118,o),
(90,-148,o),
(150,-148,cs)
);
}
);
width = 624;
}
);
unicode = 124;
},
{
glyphname = cent;
lastChange = "2020-09-28 20:42:28 +0000";
layers = (
{
layerId = "9B85AB65-32D7-4FED-B27C-3C7447013A9D";
shapes = (
{
closed = 1;
nodes = (
(712,1140,ls),
(772,1140,o),
(802,1170,o),
(802,1230,cs),
(802,1390,ls),
(802,1450,o),
(772,1480,o),
(712,1480,cs),
(634,1480,ls),
(574,1480,o),
(544,1450,o),
(544,1390,cs),
(544,1230,ls),
(544,1170,o),
(574,1140,o),
(634,1140,cs)
);
},
{
closed = 1;
nodes = (
(712,0,ls),
(772,0,o),
(802,30,o),
(802,90,cs),
(802,250,ls),
(802,310,o),
(772,340,o),
(712,340,cs),
(634,340,ls),
(574,340,o),
(544,310,o),
(544,250,cs),
(544,90,ls),
(544,30,o),
(574,0,o),
(634,0,cs)
);
},
{
pos = (14,194);
ref = C;
scale = (0.73,0.73);
}
);
width = 1312;
}
);
unicode = 162;
},
{
glyphname = dollar;
lastChange = "2020-09-28 20:42:28 +0000";
layers = (
{
layerId = "9B85AB65-32D7-4FED-B27C-3C7447013A9D";
shapes = (
{
closed = 1;
nodes = (
(712,1140,ls),
(772,1140,o),
(802,1170,o),
(802,1230,cs),
(802,1430,ls),
(802,1490,o),
(772,1520,o),
(712,1520,cs),
(634,1520,ls),
(574,1520,o),
(544,1490,o),
(544,1430,cs),
(544,1230,ls),
(544,1170,o),
(574,1140,o),
(634,1140,cs)
);
},
{
closed = 1;
nodes = (
(712,0,ls),
(772,0,o),
(802,30,o),
(802,90,cs),
(802,250,ls),
(802,310,o),
(772,340,o),
(712,340,cs),
(634,340,ls),
(574,340,o),
(544,310,o),
(544,250,cs),
(544,90,ls),
(544,30,o),
(574,0,o),
(634,0,cs)
);
},
{
alignment = -1;
pos = (0,138);
ref = s;
}
);
width = 1332;
}
);
unicode = 36;
},
{
glyphname = euro;
lastChange = "2020-09-28 20:42:34 +0000";
layers = (
{
layerId = "9B85AB65-32D7-4FED-B27C-3C7447013A9D";
shapes = (
{
closed = 1;
nodes = (
(1038,0,ls),
(1098,0,o),
(1128,32,o),
(1128,96,cs),
(1128,224,ls),
(1128,288,o),
(1098,320,o),
(1038,320,cs),
(874,320,ls),
(764,320,o),
(514,330,o),
(514,740,cs),
(514,1150,o),
(762,1182,o),
(874,1182,cs),
(1038,1182,ls),
(1098,1182,o),
(1128,1214,o),
(1128,1278,cs),
(1128,1404,ls),
(1128,1468,o),
(1098,1500,o),
(1038,1500,cs),
(874,1500,ls),
(460,1500,o),
(136,1256,o),
(136,740,cs),
(136,226,o),
(460,0,o),
(874,0,cs)
);
},
{
closed = 1;
nodes = (
(912,450,ls),
(972,450,o),
(1002,482,o),
(1002,540,cs),
(1002,600,ls),
(1002,660,o),
(972,690,o),
(912,690,cs),
(90,690,ls),
(30,690,o),
(0,660,o),
(0,600,cs),
(0,540,ls),
(0,480,o),
(30,450,o),
(90,450,cs)
);
},
{
closed = 1;
nodes = (
(912,784,ls),
(972,784,o),
(1002,816,o),
(1002,874,cs),
(1002,934,ls),
(1002,994,o),
(972,1024,o),
(912,1024,cs),
(90,1024,ls),
(30,1024,o),
(0,994,o),
(0,934,cs),
(0,874,ls),
(0,814,o),
(30,784,o),
(90,784,cs)
);
}
);
width = 1288;
}
);
unicode = 8364;
},
{
glyphname = sterling;
lastChange = "2022-03-19 19:47:29 +0000";
layers = (
{
layerId = "9B85AB65-32D7-4FED-B27C-3C7447013A9D";
shapes = (
{
closed = 1;
nodes = (
(654,779,o),
(515,895,o),
(515,1010,cs),
(515,1090,o),
(573,1142,o),
(667,1142,cs),
(773,1142,o),
(855,1054,o),
(913,974,cs),
(934,946,o),
(958,931,o),
(983,931,cs),
(1001,931,o),
(1019,938,o),
(1039,952,cs),
(1203,1066,ls),
(1233,1087,o),
(1248,1110,o),
(1248,1136,cs),
(1248,1153,o),
(1241,1171,o),
(1229,1190,cs),
(1090,1398,o),
(916,1522,o),
(667,1522,cs),
(362,1522,o),
(129,1336,o),
(129,1050,cs),
(129,892,o),
(276,763,o),
(276,613,cs),
(276,451,o),
(152,370,o),
(152,208,cs),
(152,90,ls),
(152,32,o),
(184,0,o),
(242,0,cs),
(1144,0,ls),
(1202,0,o),
(1234,32,o),
(1234,90,cs),
(1234,270,ls),
(1234,328,o),
(1202,360,o),
(1144,360,cs),
(553,360,l),
(595,400,o),
(654,510,o),
(654,626,cs)
);
},
{
closed = 1;
nodes = (
(840,524,ls),
(900,524,o),
(930,554,o),
(930,614,cs),
(930,674,ls),
(930,734,o),
(900,764,o),
(840,764,cs),
(160,764,ls),
(100,764,o),
(70,734,o),
(70,674,cs),
(70,614,ls),
(70,554,o),
(100,524,o),
(160,524,cs)
);
}
);
width = 1318;
}
);
unicode = 163;
},
{
glyphname = yen;
lastChange = "2022-03-19 19:51:31 +0000";
layers = (
{
layerId = "9B85AB65-32D7-4FED-B27C-3C7447013A9D";
shapes = (
{
closed = 1;
nodes = (
(1077,572,ls),
(1137,572,o),
(1167,602,o),
(1167,662,cs),
(1167,712,ls),
(1167,772,o),
(1137,802,o),
(1077,802,cs),
(377,802,ls),
(317,802,o),
(287,772,o),
(287,712,cs),
(287,662,ls),
(287,602,o),
(317,572,o),
(377,572,cs)
);
},
{
closed = 1;
nodes = (
(1077,271,ls),
(1137,271,o),
(1167,301,o),
(1167,361,cs),
(1167,411,ls),
(1167,471,o),
(1137,501,o),
(1077,501,cs),
(377,501,ls),
(317,501,o),
(287,471,o),
(287,411,cs),
(287,361,ls),
(287,301,o),
(317,271,o),
(377,271,cs)
);
},
{
ref = Y;
}
);
width = 1455;
}
);
unicode = 165;
},
{
glyphname = plus;
lastChange = "2022-03-19 19:44:32 +0000";
layers = (
{
layerId = "9B85AB65-32D7-4FED-B27C-3C7447013A9D";
shapes = (
{
closed = 1;
nodes = (
(590,294,ls),
(650,294,o),
(680,324,o),
(680,384,cs),
(680,594,l),
(890,594,ls),
(950,594,o),
(980,624,o),
(980,684,cs),
(980,784,ls),
(980,844,o),
(950,874,o),
(890,874,cs),
(680,874,l),
(680,1084,ls),
(680,1144,o),
(650,1174,o),
(590,1174,cs),
(490,1174,ls),
(430,1174,o),
(400,1144,o),
(400,1084,cs),
(400,874,l),
(190,874,ls),
(130,874,o),
(100,844,o),
(100,784,cs),
(100,684,ls),
(100,624,o),
(130,594,o),
(190,594,cs),
(400,594,l),
(400,384,ls),
(400,324,o),
(430,294,o),
(490,294,cs)
);
}
);
width = 1080;
}
);
unicode = 43;
},
{
glyphname = minus;
lastChange = "2022-03-19 19:44:39 +0000";
layers = (
{
layerId = "9B85AB65-32D7-4FED-B27C-3C7447013A9D";
shapes = (
{
closed = 1;
nodes = (
(890,594,l),
(950,594,o),
(980,624,o),
(980,684,cs),
(980,784,ls),
(980,844,o),
(950,874,o),
(890,874,c),
(190,874,l),
(130,874,o),
(100,844,o),
(100,784,cs),
(100,684,ls),
(100,624,o),
(130,594,o),
(190,594,c)
);
}
);
width = 1080;
}
);
metricLeft = plus;
metricRight = plus;
unicode = 8722;
},
{
glyphname = multiply;
lastChange = "2022-03-19 19:44:28 +0000";
layers = (
{
layerId = "9B85AB65-32D7-4FED-B27C-3C7447013A9D";
shapes = (
{
closed = 1;
nodes = (
(881,430,ls),
(923,472,o),
(923,515,o),
(881,557,cs),
(704,734,l),
(881,911,ls),
(923,953,o),
(923,996,o),
(881,1038,cs),
(810,1109,ls),
(768,1151,o),
(725,1151,o),
(683,1109,cs),
(506,932,l),
(329,1109,ls),
(287,1151,o),
(244,1151,o),
(202,1109,cs),
(131,1038,ls),
(89,996,o),
(89,953,o),
(131,911,cs),
(308,734,l),
(131,557,ls),
(89,515,o),
(89,472,o),
(131,430,cs),
(202,359,ls),
(244,317,o),
(287,317,o),
(329,359,cs),
(506,536,l),
(683,359,ls),
(725,317,o),
(768,317,o),
(810,359,cs)
);
}
);
width = 1012;
}
);
metricLeft = plus;
metricRight = plus;
unicode = 215;
},
{
glyphname = equal;
lastChange = "2020-09-28 20:42:28 +0000";
layers = (
{
layerId = "9B85AB65-32D7-4FED-B27C-3C7447013A9D";
shapes = (
{
closed = 1;
nodes = (
(754,362,ls),
(814,362,o),
(844,392,o),
(844,452,cs),
(844,552,ls),
(844,612,o),
(814,642,o),
(754,642,cs),
(150,642,ls),
(90,642,o),
(60,612,o),
(60,552,cs),
(60,452,ls),
(60,392,o),
(90,362,o),
(150,362,cs)
);
},
{
closed = 1;
nodes = (
(754,824,ls),
(814,824,o),
(844,854,o),
(844,914,cs),
(844,1012,ls),
(844,1072,o),
(814,1102,o),
(754,1102,cs),
(150,1102,ls),
(90,1102,o),
(60,1072,o),
(60,1012,cs),
(60,914,ls),
(60,854,o),
(90,824,o),
(150,824,cs)
);
}
);
width = 1060;
}
);
unicode = 61;
},
{
glyphname = notequal;
lastChange = "2022-03-19 19:49:57 +0000";
layers = (
{
layerId = "9B85AB65-32D7-4FED-B27C-3C7447013A9D";
shapes = (
{
pos = (40,0);
ref = equal;
},
{
closed = 1;
nodes = (
(376,159,ls),
(430,159,o),
(461,185,o),
(476,235,cs),
(765,1203,ls),
(769,1215,o),
(770,1227,o),
(770,1237,cs),
(770,1279,o),
(742,1305,o),
(689,1305,cs),
(591,1305,ls),
(537,1305,o),
(506,1279,o),
(491,1229,cs),
(202,261,ls),
(198,249,o),
(197,237,o),
(197,227,cs),
(197,185,o),
(225,159,o),
(278,159,cs)
);
}
);
width = 984;
}
);
metricLeft = plus;
metricRight = plus;
unicode = 8800;
},
{
glyphname = greater;
lastChange = "2021-06-09 17:49:05 +0000";
layers = (
{
layerId = "9B85AB65-32D7-4FED-B27C-3C7447013A9D";
shapes = (
{
closed = 1;
nodes = (
(756,478,ls),
(800,500,o),
(822,534,o),
(822,584,cs),
(822,840,ls),
(822,890,o),
(800,924,o),
(756,946,cs),
(190,1228,ls),
(173,1236,o),
(157,1240,o),
(143,1240,cs),
(107,1240,o),
(84,1213,o),
(84,1162,cs),
(84,1044,ls),
(84,996,o),
(106,960,o),
(148,938,cs),
(592,712,l),
(148,486,ls),
(106,464,o),
(84,428,o),
(84,380,cs),
(84,262,ls),
(84,211,o),
(107,184,o),
(143,184,cs),
(157,184,o),
(173,188,o),
(190,196,cs)
);
}
);
width = 1018;
}
);
unicode = 62;
},
{
glyphname = less;
lastChange = "2021-06-09 17:49:05 +0000";
layers = (
{
layerId = "9B85AB65-32D7-4FED-B27C-3C7447013A9D";
shapes = (
{
closed = 1;
nodes = (
(733,188,o),
(749,184,o),
(763,184,cs),
(799,184,o),
(822,211,o),
(822,262,cs),
(822,380,ls),
(822,428,o),
(800,464,o),
(758,486,cs),
(314,712,l),
(758,938,ls),
(800,960,o),
(822,996,o),
(822,1044,cs),
(822,1162,ls),
(822,1213,o),
(799,1240,o),
(763,1240,cs),
(749,1240,o),
(733,1236,o),
(716,1228,cs),
(150,946,ls),
(106,924,o),
(84,890,o),
(84,840,cs),
(84,584,ls),
(84,534,o),
(106,500,o),
(150,478,cs),
(716,196,ls)
);
}
);
width = 1018;
}
);
unicode = 60;
},
{
glyphname = asciitilde;
lastChange = "2022-03-19 19:51:50 +0000";
layers = (
{
layerId = "9B85AB65-32D7-4FED-B27C-3C7447013A9D";
shapes = (
{
closed = 1;
nodes = (
(736,624,o),
(804,672,o),
(850,762,c),
(857,777,o),
(863,796,o),
(863,813,cs),
(863,832,o),
(856,850,o),
(834,862,cs),
(824,867,o),
(815,870,o),
(806,870,cs),
(779,870,o),
(754,847,o),
(730,824,cs),
(701,797,o),
(669,769,o),
(624,769,cs),
(616,769,o),
(607,770,o),
(598,772,c),
(558,786,o),
(538,794,o),
(500,820,cs),
(431,868,o),
(357,894,o),
(287,894,cs),
(276,894,o),
(265,893,o),
(254,892,cs),
(174,882,o),
(104,836,o),
(62,748,cs),
(54,732,o),
(47,713,o),
(47,695,cs),
(47,676,o),
(55,658,o),
(76,646,cs),
(86,641,o),
(95,638,o),
(103,638,cs),
(131,638,o),
(154,662,o),
(180,686,cs),
(209,711,o),
(241,739,o),
(286,739,cs),
(294,739,o),
(303,738,o),
(312,736,cs),
(352,726,o),
(374,714,o),
(412,688,cs),
(479,640,o),
(553,614,o),
(624,614,cs),
(635,614,o),
(647,615,o),
(658,616,cs)
);
}
);
width = 868;
}
);
unicode = 126;
},
{
glyphname = asciicircum;
lastChange = "2021-06-09 17:49:05 +0000";
layers = (
{
layerId = "9B85AB65-32D7-4FED-B27C-3C7447013A9D";
shapes = (
{
closed = 1;
nodes = (
(230,1090,ls),
(274,1090,o),
(310,1106,o),
(340,1140,cs),
(436,1254,l),
(530,1142,ls),
(562,1104,o),
(594,1090,o),
(642,1090,cs),
(676,1090,ls),
(726,1090,o),
(754,1110,o),
(754,1141,cs),
(754,1158,o),
(746,1178,o),
(728,1200,cs),
(548,1424,ls),
(518,1462,o),
(486,1476,o),
(438,1476,cs),
(434,1476,ls),
(386,1476,o),
(354,1462,o),
(324,1424,cs),
(142,1200,ls),
(125,1178,o),
(117,1158,o),
(117,1141,cs),
(117,1110,o),
(144,1090,o),
(194,1090,cs)
);
}
);
width = 948;
}
);
unicode = 94;
},
{
glyphname = percent;
lastChange = "2021-06-09 17:49:05 +0000";
layers = (
{
layerId = "9B85AB65-32D7-4FED-B27C-3C7447013A9D";
shapes = (
{
closed = 1;
nodes = (
(664,0,ls),
(712,0,o),
(748,22,o),
(770,64,cs),
(1478,1374,ls),
(1488,1393,o),
(1493,1410,o),
(1493,1425,cs),
(1493,1460,o),
(1465,1482,o),
(1414,1482,cs),
(1276,1482,ls),
(1228,1482,o),
(1192,1460,o),
(1170,1418,cs),
(462,108,ls),
(452,89,o),
(447,72,o),
(447,57,cs),
(447,22,o),
(475,0,o),
(526,0,cs)
);
},
{
closed = 1;
nodes = (
(552,742,o),
(644,784,o),
(710,850,cs),
(776,916,o),
(818,1010,o),
(818,1112,cs),
(818,1214,o),
(776,1308,o),
(710,1374,cs),
(644,1440,o),
(552,1482,o),
(450,1482,cs),
(348,1482,o),
(254,1440,o),
(188,1374,cs),
(122,1308,o),
(80,1214,o),
(80,1112,cs),
(80,1010,o),
(122,916,o),
(188,850,cs),
(254,784,o),
(348,742,o),
(450,742,cs)
);
},
{
closed = 1;
nodes = (
(384,994,o),
(330,1046,o),
(330,1112,cs),
(330,1178,o),
(384,1230,o),
(450,1230,cs),
(514,1230,o),
(568,1178,o),
(568,1112,cs),
(568,1046,o),
(514,994,o),
(450,994,cs)
);
},
{
closed = 1;
nodes = (
(1600,2,o),
(1694,44,o),
(1760,110,cs),
(1826,176,o),
(1868,270,o),
(1868,372,cs),
(1868,474,o),
(1826,566,o),
(1760,632,cs),
(1694,698,o),
(1600,740,o),
(1498,740,cs),
(1396,740,o),
(1304,698,o),
(1238,632,cs),
(1172,566,o),
(1130,474,o),
(1130,372,cs),
(1130,270,o),
(1172,176,o),
(1238,110,cs),
(1304,44,o),
(1396,2,o),
(1498,2,cs)
);
},
{
closed = 1;
nodes = (
(1432,252,o),
(1380,306,o),
(1380,372,cs),
(1380,436,o),
(1432,490,o),
(1498,490,cs),
(1564,490,o),
(1618,436,o),
(1618,372,cs),
(1618,306,o),
(1564,252,o),
(1498,252,cs)
);
}
);
width = 2018;
}
);
unicode = 37;
},
{
glyphname = dieresiscomb;
lastChange = "2020-09-28 21:04:34 +0000";
layers = (
{
anchors = (
{
name = _top;
pos = (392,1200);
},
{
name = top;
pos = (392,1624);
}
);
layerId = "9B85AB65-32D7-4FED-B27C-3C7447013A9D";
shapes = (
{
closed = 1;
nodes = (
(656,1364,o),
(714,1422,o),
(714,1494,cs),
(714,1566,o),
(656,1624,o),
(584,1624,cs),
(514,1624,o),
(456,1566,o),
(456,1494,cs),
(456,1422,o),
(514,1364,o),
(584,1364,cs)
);
},
{
closed = 1;
nodes = (
(270,1364,o),
(328,1422,o),
(328,1494,cs),
(328,1566,o),
(270,1624,o),
(198,1624,cs),
(128,1624,o),
(70,1566,o),
(70,1494,cs),
(70,1422,o),
(128,1364,o),
(198,1364,cs)
);
}
);
width = 760;
}
);
unicode = 776;
},
{
glyphname = dotaccentcomb;
lastChange = "2020-09-28 21:04:34 +0000";
layers = (
{
anchors = (
{
name = _top;
pos = (200,1200);
},
{
name = top;
pos = (200,1624);
}
);
layerId = "9B85AB65-32D7-4FED-B27C-3C7447013A9D";
shapes = (
{
closed = 1;
nodes = (
(270,1364,o),
(328,1422,o),
(328,1494,cs),
(328,1566,o),
(270,1624,o),
(198,1624,cs),
(128,1624,o),
(70,1566,o),
(70,1494,cs),
(70,1422,o),
(128,1364,o),
(198,1364,cs)
);
}
);
width = 380;
}
);
unicode = 775;
},
{
glyphname = gravecomb;
lastChange = "2020-10-01 17:04:01 +0000";
layers = (
{
anchors = (
{
name = _top;
pos = (249,1200);
},
{
name = top;
pos = (164,1646);
}
);
layerId = "9B85AB65-32D7-4FED-B27C-3C7447013A9D";
shapes = (
{
closed = 1;
nodes = (
(336,1375,o),
(350,1388,o),
(350,1415,cs),
(350,1438,o),
(339,1474,o),
(321,1508,cs),
(305,1538,ls),
(257,1627,o),
(241,1640,o),
(151,1640,cs),
(112,1640,ls),
(64,1640,o),
(41,1612,o),
(41,1575,cs),
(41,1551,o),
(56,1525,o),
(86,1501,cs),
(137,1460,ls),
(210,1402,o),
(270,1375,o),
(307,1375,cs)
);
}
);
width = 470;
}
);
unicode = 768;
},
{
glyphname = acutecomb;
lastChange = "2020-10-01 17:03:54 +0000";
layers = (
{
anchors = (
{
name = _top;
pos = (157,1200);
},
{
name = top;
pos = (278,1628);
}
);
layerId = "9B85AB65-32D7-4FED-B27C-3C7447013A9D";
shapes = (
{
closed = 1;
nodes = (
(201,1375,o),
(261,1402,o),
(334,1460,cs),
(385,1501,ls),
(415,1525,o),
(430,1551,o),
(430,1575,cs),
(430,1612,o),
(407,1640,o),
(359,1640,cs),
(320,1640,ls),
(230,1640,o),
(214,1627,o),
(166,1538,cs),
(150,1508,ls),
(132,1474,o),
(121,1438,o),
(121,1415,cs),
(121,1388,o),
(135,1375,o),
(164,1375,cs)
);
}
);
width = 476;
}
);
unicode = 769;
},
{
glyphname = hungarumlautcomb;
lastChange = "2020-09-28 21:05:27 +0000";
layers = (
{
anchors = (
{
name = _top;
pos = (398,1200);
},
{
name = top;
pos = (398,1606);
}
);
layerId = "9B85AB65-32D7-4FED-B27C-3C7447013A9D";
shapes = (
{
closed = 1;
nodes = (
(431,1475,o),
(426,1456,o),
(426,1441,cs),
(426,1405,o),
(453,1386,o),
(484,1386,cs),
(537,1386,o),
(563,1409,o),
(614,1467,cs),
(664,1523,ls),
(687,1547,o),
(697,1573,o),
(697,1593,cs),
(697,1620,o),
(679,1640,o),
(647,1640,cs),
(589,1640,ls),
(528,1640,o),
(505,1619,o),
(466,1542,cs),
(442,1496,ls)
);
},
{
closed = 1;
nodes = (
(156,1475,o),
(151,1456,o),
(151,1441,cs),
(151,1405,o),
(178,1386,o),
(210,1386,cs),
(263,1386,o),
(289,1409,o),
(340,1467,cs),
(390,1523,ls),
(412,1547,o),
(422,1573,o),
(422,1593,cs),
(422,1620,o),
(404,1640,o),
(373,1640,cs),
(315,1640,ls),
(253,1640,o),
(231,1619,o),
(191,1542,cs),
(167,1496,ls)
);
}
);
width = 760;
}
);
unicode = 779;
},
{
glyphname = circumflexcomb;
lastChange = "2022-03-19 20:02:42 +0000";
layers = (
{
anchors = (
{
name = _top;
pos = (326,1200);
},
{
name = top;
pos = (326,1620);
}
);
layerId = "9B85AB65-32D7-4FED-B27C-3C7447013A9D";
shapes = (
{
closed = 1;
nodes = (
(189,1341,ls),
(221,1341,o),
(249,1352,o),
(268,1377,cs),
(327,1451,l),
(383,1377,ls),
(403,1352,o),
(432,1341,o),
(465,1341,cs),
(524,1341,ls),
(560,1341,o),
(580,1356,o),
(580,1378,cs),
(580,1391,o),
(575,1406,o),
(561,1421,cs),
(418,1583,ls),
(397,1607,o),
(373,1620,o),
(340,1620,cs),
(313,1620,ls),
(281,1620,o),
(255,1607,o),
(234,1583,cs),
(91,1421,ls),
(78,1406,o),
(73,1392,o),
(73,1381,cs),
(73,1358,o),
(92,1341,o),
(128,1341,cs)
);
}
);
width = 644;
}
);
unicode = 770;
},
{
glyphname = caroncomb;
lastChange = "2022-03-19 20:02:54 +0000";
layers = (
{
anchors = (
{
name = _top;
pos = (326,1200);
},
{
name = top;
pos = (326,1638);
}
);
layerId = "9B85AB65-32D7-4FED-B27C-3C7447013A9D";
shapes = (
{
closed = 1;
nodes = (
(328,1311,ls),
(367,1311,o),
(397,1326,o),
(420,1354,cs),
(573,1544,ls),
(588,1563,o),
(595,1579,o),
(595,1595,cs),
(595,1620,o),
(572,1638,o),
(531,1638,cs),
(502,1638,ls),
(463,1638,o),
(430,1624,o),
(406,1596,cs),
(326,1500,l),
(245,1596,ls),
(221,1624,o),
(189,1638,o),
(150,1638,cs),
(120,1638,ls),
(79,1638,o),
(57,1620,o),
(57,1595,cs),
(57,1579,o),
(64,1563,o),
(78,1544,cs),
(230,1354,ls),
(255,1326,o),
(285,1311,o),
(325,1311,cs)
);
}
);
width = 630;
}
);
unicode = 780;
},
{
glyphname = brevecomb;
lastChange = "2022-03-19 19:37:55 +0000";
layers = (
{
anchors = (
{
name = _top;
pos = (286,1200);
},
{
name = top;
pos = (286,1638);
}
);
layerId = "9B85AB65-32D7-4FED-B27C-3C7447013A9D";
shapes = (
{
closed = 1;
nodes = (
(402,1358,o),
(510,1427,o),
(510,1579,cs),
(510,1613,o),
(483,1638,o),
(449,1638,cs),
(361,1638,o),
(380,1504,o),
(286,1504,cs),
(184,1504,o),
(213,1638,o),
(121,1638,cs),
(90,1638,o),
(61,1616,o),
(61,1579,cs),
(61,1431,o),
(173,1358,o),
(287,1358,cs)
);
}
);
width = 580;
}
);
unicode = 774;
},
{
glyphname = ringcomb;
lastChange = "2020-09-28 21:06:04 +0000";
layers = (
{
anchors = (
{
name = _top;
pos = (208,1200);
},
{
name = top;
pos = (208,1724);
}
);
layerId = "9B85AB65-32D7-4FED-B27C-3C7447013A9D";
shapes = (
{
closed = 1;
nodes = (
(309,1352,o),
(395,1431,o),
(395,1539,cs),
(395,1640,o),
(309,1724,o),
(210,1724,cs),
(106,1724,o),
(21,1640,o),
(21,1539,cs),
(21,1431,o),
(106,1352,o),
(210,1352,cs)
);
},
{
closed = 1;
nodes = (
(182,1491,o),
(164,1510,o),
(164,1539,cs),
(164,1562,o),
(182,1582,o),
(210,1582,cs),
(233,1582,o),
(253,1562,o),
(253,1539,cs),
(253,1510,o),
(233,1491,o),
(210,1491,cs)
);
}
);
width = 368;
}
);
unicode = 778;
},
{
glyphname = tildecomb;
lastChange = "2022-03-19 19:52:14 +0000";
layers = (
{
anchors = (
{
name = _top;
pos = (422,1200);
},
{
name = top;
pos = (419,1604);
}
);
layerId = "9B85AB65-32D7-4FED-B27C-3C7447013A9D";
shapes = (
{
closed = 1;
nodes = (
(608,1358,o),
(665,1399,o),
(705,1440,cs),
(727,1465,o),
(740,1492,o),
(740,1520,cs),
(740,1570,o),
(699,1596,o),
(661,1596,cs),
(597,1596,o),
(605,1539,o),
(522,1539,cs),
(441,1539,o),
(419,1614,o),
(304,1614,cs),
(245,1614,o),
(197,1595,o),
(162,1567,cs),
(116,1529,o),
(92,1485,o),
(92,1446,cs),
(92,1407,o),
(118,1374,o),
(153,1374,cs),
(197,1374,o),
(235,1431,o),
(308,1431,cs),
(371,1431,o),
(420,1358,o),
(525,1358,cs)
);
}
);
width = 868;
}
);
unicode = 771;
},
{
glyphname = macroncomb;
lastChange = "2022-03-19 19:42:28 +0000";
layers = (
{
anchors = (
{
name = _top;
pos = (444,1200);
},
{
name = top;
pos = (444,1522);
}
);
layerId = "9B85AB65-32D7-4FED-B27C-3C7447013A9D";
shapes = (
{
closed = 1;
nodes = (
(690,1362,ls),
(743,1362,o),
(770,1389,o),
(770,1442,cs),
(770,1495,o),
(743,1521,o),
(690,1521,cs),
(176,1521,ls),
(123,1521,o),
(96,1495,o),
(96,1442,cs),
(96,1389,o),
(123,1362,o),
(176,1362,cs)
);
}
);
width = 860;
}
);
unicode = 772;
},
{
glyphname = hookabovecomb;
lastChange = "2020-10-01 17:22:31 +0000";
layers = (
{
anchors = (
{
name = _top;
pos = (596,1200);
},
{
name = top;
pos = (596,1659);
}
);
layerId = "9B85AB65-32D7-4FED-B27C-3C7447013A9D";
shapes = (
{
closed = 1;
nodes = (
(661,1335,o),
(804,1369,o),
(804,1500,cs),
(804,1620,o),
(699,1659,o),
(578,1659,cs),
(415,1659,o),
(387,1647,o),
(387,1581,cs),
(387,1528,o),
(411,1523,o),
(439,1523,cs),
(480,1523,o),
(504,1540,o),
(576,1540,cs),
(614,1540,o),
(653,1525,o),
(653,1495,cs),
(653,1463,o),
(614,1457,o),
(576,1457,cs),
(526,1457,o),
(504,1432,o),
(504,1394,cs),
(504,1354,o),
(529,1335,o),
(576,1335,cs)
);
}
);
width = 1200;
}
);
unicode = 777;
},
{
glyphname = dblgravecomb;
lastChange = "2020-09-28 21:18:07 +0000";
layers = (
{
anchors = (
{
name = _top;
pos = (395,1200);
},
{
name = top;
pos = (395,1640);
}
);
layerId = "9B85AB65-32D7-4FED-B27C-3C7447013A9D";
shapes = (
{
closed = 1;
nodes = (
(355,1375,o),
(377,1394,o),
(377,1425,cs),
(377,1448,o),
(366,1477,o),
(343,1508,cs),
(321,1538,ls),
(262,1619,o),
(231,1640,o),
(141,1640,cs),
(92,1640,ls),
(44,1640,o),
(14,1612,o),
(14,1575,cs),
(14,1551,o),
(27,1526,o),
(56,1501,cs),
(105,1460,ls),
(177,1400,o),
(240,1375,o),
(317,1375,cs)
);
},
{
closed = 1;
nodes = (
(754,1375,o),
(776,1394,o),
(776,1425,cs),
(776,1448,o),
(765,1477,o),
(742,1508,cs),
(720,1538,ls),
(661,1619,o),
(630,1640,o),
(540,1640,cs),
(491,1640,ls),
(443,1640,o),
(413,1612,o),
(413,1575,cs),
(413,1551,o),
(426,1526,o),
(455,1501,cs),
(504,1460,ls),
(576,1400,o),
(639,1375,o),
(716,1375,cs)
);
}
);
width = 790;
}
);
unicode = 783;
},
{
glyphname = breveinvertedcomb;
lastChange = "2020-10-01 17:14:20 +0000";
layers = (
{
anchors = (
{
name = _top;
pos = (286,1200);
},
{
name = top;
pos = (286,1610);
}
);
layerId = "9B85AB65-32D7-4FED-B27C-3C7447013A9D";
shapes = (
{
closed = 1;
nodes = (
(173,1610,o),
(71,1537,o),
(71,1389,cs),
(71,1352,o),
(90,1330,o),
(121,1330,cs),
(213,1330,o),
(184,1474,o),
(286,1474,cs),
(380,1474,o),
(361,1330,o),
(449,1330,cs),
(483,1330,o),
(500,1355,o),
(500,1389,cs),
(500,1541,o),
(402,1610,o),
(287,1610,cs)
);
}
);
width = 580;
}
);
unicode = 785;
},
{
glyphname = commaturnedabovecomb;
lastChange = "2022-03-19 19:38:49 +0000";
layers = (
{
anchors = (
{
name = _top;
pos = (218,1200);
},
{
name = top;
pos = (218,1750);
}
);
layerId = "9B85AB65-32D7-4FED-B27C-3C7447013A9D";
shapes = (
{
closed = 1;
nodes = (
(303,1321,o),
(356,1375,o),
(356,1443,cs),
(356,1512,o),
(313,1565,o),
(244,1565,cs),
(239,1565,o),
(230,1565,o),
(226,1565,c),
(226,1584,o),
(243,1614,o),
(270,1644,cs),
(305,1682,o),
(311,1695,o),
(311,1713,cs),
(311,1731,o),
(295,1740,o),
(280,1740,cs),
(260,1740,o),
(245,1736,o),
(212,1703,cs),
(123,1612,o),
(94,1525,o),
(94,1466,cs),
(94,1363,o),
(167,1321,o),
(234,1321,cs)
);
}
);
width = 436;
}
);
unicode = 786;
},
{
glyphname = horncomb;
lastChange = "2020-10-01 17:05:58 +0000";
layers = (
{
anchors = (
{
name = _topright;
pos = (89,1200);
},
{
name = topright;
pos = (546,1512);
}
);
layerId = "9B85AB65-32D7-4FED-B27C-3C7447013A9D";
shapes = (
{
closed = 1;
nodes = (
(388,1043,o),
(551,1200,o),
(551,1417,cs),
(551,1496,o),
(543,1512,o),
(414,1512,cs),
(313,1512,o),
(293,1496,o),
(293,1415,cs),
(293,1284,o),
(209,1200,o),
(89,1200,cs),
(63,1200,o),
(43,1180,o),
(43,1148,cs),
(43,1072,o),
(84,1043,o),
(207,1043,cs)
);
}
);
width = 600;
},
{
anchors = (
{
name = _topright;
pos = (407,952);
},
{
name = topright;
pos = (864,1264);
}
);
associatedMasterId = "9B85AB65-32D7-4FED-B27C-3C7447013A9D";
layerId = "5521DC30-183F-421A-91F3-644B5E24AFE6";
name = ExtraBold;
shapes = (
{
closed = 1;
nodes = (
(737,795,o),
(869,961,o),
(869,1122,cs),
(869,1230,o),
(821,1264,o),
(732,1264,cs),
(651,1264,o),
(610,1208,o),
(595,1132,cs),
(569,1002,o),
(527,952,o),
(407,952,cs),
(381,952,o),
(361,942,o),
(361,910,cs),
(361,875,o),
(375,850,o),
(407,830,cs),
(418,822,o),
(472,795,o),
(556,795,cs)
);
}
);
width = 1238;
}
);
unicode = 795;
},
{
glyphname = dotbelowcomb;
lastChange = "2020-09-28 21:14:08 +0000";
layers = (
{
anchors = (
{
name = _bottom;
pos = (199,0);
},
{
name = bottom;
pos = (199,-411);
}
);
layerId = "9B85AB65-32D7-4FED-B27C-3C7447013A9D";
shapes = (
{
closed = 1;
nodes = (
(270,-411,o),
(328,-353,o),
(328,-281,cs),
(328,-209,o),
(270,-151,o),
(198,-151,cs),
(128,-151,o),
(70,-209,o),
(70,-281,cs),
(70,-353,o),
(128,-411,o),
(198,-411,cs)
);
}
);
width = 380;
}
);
unicode = 803;
},
{
glyphname = dieresisbelowcomb;
lastChange = "2022-03-19 19:43:32 +0000";
layers = (
{
anchors = (
{
name = _bottom;
pos = (392,0);
},
{
name = bottom;
pos = (392,-401);
}
);
layerId = "9B85AB65-32D7-4FED-B27C-3C7447013A9D";
shapes = (
{
closed = 1;
nodes = (
(656,-401,o),
(714,-343,o),
(714,-271,cs),
(714,-199,o),
(656,-141,o),
(584,-141,cs),
(514,-141,o),
(456,-199,o),
(456,-271,cs),
(456,-343,o),
(514,-401,o),
(584,-401,cs)
);
},
{
closed = 1;
nodes = (
(270,-401,o),
(328,-343,o),
(328,-271,cs),
(328,-199,o),
(270,-141,o),
(198,-141,cs),
(128,-141,o),
(70,-199,o),
(70,-271,cs),
(70,-343,o),
(128,-401,o),
(198,-401,cs)
);
}
);
width = 760;
}
);
unicode = 804;
},
{
glyphname = commaaccentcomb;
lastChange = "2020-09-28 21:07:04 +0000";
layers = (
{
anchors = (
{
name = _bottom;
pos = (302,0);
},
{
name = bottom;
pos = (302,-518);
}
);
layerId = "9B85AB65-32D7-4FED-B27C-3C7447013A9D";
shapes = (
{
closed = 1;
nodes = (
(225,-122,o),
(172,-176,o),
(172,-244,cs),
(172,-313,o),
(225,-366,o),
(294,-366,cs),
(299,-366,o),
(308,-366,o),
(312,-366,c),
(304,-399,o),
(285,-433,o),
(258,-463,cs),
(223,-501,o),
(202,-526,o),
(202,-541,cs),
(202,-551,o),
(210,-561,o),
(225,-561,cs),
(245,-561,o),
(274,-547,o),
(307,-514,cs),
(396,-423,o),
(428,-325,o),
(428,-266,cs),
(428,-163,o),
(361,-122,o),
(294,-122,cs)
);
}
);
width = 582;
}
);
unicode = 806;
},
{
glyphname = cedillacomb;
lastChange = "2020-10-01 17:10:21 +0000";
layers = (
{
anchors = (
{
name = _bottom;
pos = (299,0);
},
{
name = bottom;
pos = (340,-538);
}
);
layerId = "9B85AB65-32D7-4FED-B27C-3C7447013A9D";
shapes = (
{
closed = 1;
nodes = (
(487,-499,o),
(641,-411,o),
(641,-269,cs),
(641,-159,o),
(567,-113,o),
(475,-113,cs),
(423,-113,o),
(375,-123,o),
(337,-155,c),
(391,-1,l),
(396,10,o),
(397,21,o),
(397,31,cs),
(397,69,o),
(361,87,o),
(315,87,cs),
(259,87,o),
(212,44,o),
(195,-1,cs),
(143,-143,ls),
(138,-156,o),
(133,-173,o),
(133,-187,cs),
(133,-233,o),
(157,-269,o),
(217,-269,cs),
(279,-269,o),
(309,-245,o),
(371,-245,cs),
(401,-245,o),
(417,-255,o),
(417,-275,cs),
(417,-305,o),
(375,-319,o),
(307,-319,cs),
(247,-319,o),
(181,-301,o),
(151,-301,cs),
(113,-301,o),
(67,-329,o),
(67,-395,cs),
(67,-473,o),
(167,-499,o),
(279,-499,cs)
);
}
);
width = 641;
}
);
unicode = 807;
},
{
glyphname = ogonekcomb;
lastChange = "2020-09-28 20:42:34 +0000";
layers = (
{
anchors = (
{
name = _ogonek;
pos = (352,52);
}
);
layerId = "9B85AB65-32D7-4FED-B27C-3C7447013A9D";
shapes = (
{
closed = 1;
nodes = (
(504,-510,o),
(668,-428,o),
(668,-300,cs),
(668,-270,o),
(650,-232,o),
(598,-232,cs),
(524,-232,o),
(486,-288,o),
(378,-288,cs),
(302,-288,o),
(276,-230,o),
(276,-172,cs),
(276,-56,o),
(432,-46,o),
(432,38,cs),
(432,70,o),
(418,118,o),
(352,118,cs),
(180,118,o),
(32,-6,o),
(32,-208,cs),
(32,-386,o),
(162,-510,o),
(360,-510,cs)
);
}
);
width = 612;
}
);
unicode = 808;
},
{
glyphname = brevebelowcomb;
lastChange = "2022-03-19 19:42:50 +0000";
layers = (
{
anchors = (
{
name = _bottom;
pos = (326,0);
},
{
name = bottom;
pos = (326,-463);
}
);
layerId = "9B85AB65-32D7-4FED-B27C-3C7447013A9D";
shapes = (
{
closed = 1;
nodes = (
(384,-463,o),
(438,-443,o),
(482,-403,cs),
(526,-365,o),
(556,-307,o),
(570,-235,cs),
(571,-227,o),
(572,-218,o),
(572,-209,cs),
(572,-180,o),
(563,-151,o),
(528,-143,cs),
(523,-142,o),
(518,-141,o),
(514,-141,cs),
(478,-141,o),
(459,-175,o),
(438,-211,cs),
(414,-251,o),
(388,-295,o),
(326,-295,cs),
(316,-295,ls),
(260,-293,o),
(234,-249,o),
(212,-209,cs),
(190,-173,o),
(174,-142,o),
(137,-142,cs),
(133,-142,o),
(129,-142,o),
(124,-143,cs),
(89,-151,o),
(80,-180,o),
(80,-209,cs),
(80,-218,o),
(81,-227,o),
(82,-235,cs),
(92,-307,o),
(130,-365,o),
(176,-403,cs),
(222,-443,o),
(278,-463,o),
(328,-463,cs)
);
}
);
width = 580;
}
);
unicode = 814;
},
{
glyphname = macronbelowcomb;
lastChange = "2022-03-19 19:42:06 +0000";
layers = (
{
anchors = (
{
name = _bottom;
pos = (444,0);
},
{
name = bottom;
pos = (444,-307);
}
);
layerId = "9B85AB65-32D7-4FED-B27C-3C7447013A9D";
shapes = (
{
closed = 1;
nodes = (
(701,-307,ls),
(754,-307,o),
(781,-280,o),
(781,-227,cs),
(781,-174,o),
(754,-148,o),
(701,-148,cs),
(187,-148,ls),
(134,-148,o),
(107,-174,o),
(107,-227,cs),
(107,-280,o),
(134,-307,o),
(187,-307,cs)
);
}
);
width = 860;
}
);
unicode = 817;
},
{
glyphname = strokeshortcomb;
lastChange = "2020-09-28 21:04:34 +0000";
layers = (
{
anchors = (
{
name = _center;
pos = (444,734);
}
);
layerId = "9B85AB65-32D7-4FED-B27C-3C7447013A9D";
shapes = (
{
closed = 1;
nodes = (
(648,671,ls),
(690,671,o),
(711,692,o),
(711,734,cs),
(711,776,o),
(690,797,o),
(648,797,cs),
(240,797,ls),
(198,797,o),
(177,776,o),
(177,734,cs),
(177,692,o),
(198,671,o),
(240,671,cs)
);
}
);
width = 860;
}
);
unicode = 821;
},
{
glyphname = strokelongcomb;
lastChange = "2020-09-28 21:04:34 +0000";
layers = (
{
anchors = (
{
name = _center;
pos = (444,734);
}
);
layerId = "9B85AB65-32D7-4FED-B27C-3C7447013A9D";
shapes = (
{
closed = 1;
nodes = (
(648,671,ls),
(690,671,o),
(711,692,o),
(711,734,cs),
(711,776,o),
(690,797,o),
(648,797,cs),
(240,797,ls),
(198,797,o),
(177,776,o),
(177,734,cs),
(177,692,o),
(198,671,o),
(240,671,cs)
);
}
);
width = 534;
}
);
unicode = 822;
},
{
glyphname = slashshortcomb;
lastChange = "2020-09-28 21:04:34 +0000";
layers = (
{
anchors = (
{
name = _center;
pos = (444,734);
}
);
layerId = "9B85AB65-32D7-4FED-B27C-3C7447013A9D";
shapes = (
{
closed = 1;
nodes = (
(648,671,ls),
(690,671,o),
(711,692,o),
(711,734,cs),
(711,776,o),
(690,797,o),
(648,797,cs),
(240,797,ls),
(198,797,o),
(177,776,o),
(177,734,cs),
(177,692,o),
(198,671,o),
(240,671,cs)
);
}
);
width = 534;
}
);
unicode = 823;
},
{
glyphname = slashlongcomb;
lastChange = "2021-06-09 17:49:05 +0000";
layers = (
{
anchors = (
{
name = _center;
pos = (470,734);
}
);
layerId = "9B85AB65-32D7-4FED-B27C-3C7447013A9D";
shapes = (
{
closed = 1;
nodes = (
(194,-148,ls),
(248,-148,o),
(276,-122,o),
(294,-72,cs),
(868,1514,ls),
(873,1527,o),
(875,1539,o),
(875,1550,cs),
(875,1591,o),
(844,1616,o),
(792,1616,cs),
(744,1616,ls),
(690,1616,o),
(662,1590,o),
(644,1540,cs),
(70,-46,ls),
(65,-59,o),
(63,-71,o),
(63,-82,cs),
(63,-123,o),
(94,-148,o),
(146,-148,cs)
);
}
);
width = 980;
}
);
unicode = 824;
},
{
glyphname = dieresis;
lastChange = "2020-09-28 20:42:28 +0000";
layers = (
{
layerId = "9B85AB65-32D7-4FED-B27C-3C7447013A9D";
shapes = (
{
closed = 1;
nodes = (
(656,1604,o),
(714,1662,o),
(714,1734,cs),
(714,1806,o),
(656,1864,o),
(584,1864,cs),
(514,1864,o),
(456,1806,o),
(456,1734,cs),
(456,1662,o),
(514,1604,o),
(584,1604,cs)
);
},
{
closed = 1;
nodes = (
(270,1604,o),
(328,1662,o),
(328,1734,cs),
(328,1806,o),
(270,1864,o),
(198,1864,cs),
(128,1864,o),
(70,1806,o),
(70,1734,cs),
(70,1662,o),
(128,1604,o),
(198,1604,cs)
);
}
);
width = 760;
}
);
unicode = 168;
},
{
glyphname = dotaccent;
lastChange = "2020-09-28 20:42:28 +0000";
layers = (
{
layerId = "9B85AB65-32D7-4FED-B27C-3C7447013A9D";
shapes = (
{
closed = 1;
nodes = (
(270,1604,o),
(328,1662,o),
(328,1734,cs),
(328,1806,o),
(270,1864,o),
(198,1864,cs),
(128,1864,o),
(70,1806,o),
(70,1734,cs),
(70,1662,o),
(128,1604,o),
(198,1604,cs)
);
}
);
width = 380;
}
);
unicode = 729;
},
{
glyphname = grave;
lastChange = "2021-06-09 17:49:05 +0000";
layers = (
{
layerId = "9B85AB65-32D7-4FED-B27C-3C7447013A9D";
shapes = (
{
closed = 1;
nodes = (
(418,1596,o),
(434,1602,o),
(442,1614,cs),
(445,1618,o),
(446,1623,o),
(446,1629,cs),
(446,1682,o),
(350,1810,o),
(292,1848,cs),
(252,1874,o),
(210,1886,o),
(169,1886,cs),
(134,1886,o),
(100,1877,o),
(70,1860,cs),
(46,1846,o),
(36,1830,o),
(36,1813,cs),
(36,1750,o),
(171,1675,o),
(224,1650,cs),
(292,1616,o),
(350,1596,o),
(396,1596,cs)
);
}
);
width = 470;
}
);
unicode = 96;
},
{
glyphname = acute;
lastChange = "2021-06-09 17:49:05 +0000";
layers = (
{
layerId = "9B85AB65-32D7-4FED-B27C-3C7447013A9D";
shapes = (
{
closed = 1;
nodes = (
(152,1596,o),
(210,1616,o),
(278,1650,cs),
(331,1675,o),
(466,1750,o),
(466,1813,cs),
(466,1830,o),
(456,1846,o),
(432,1860,cs),
(402,1877,o),
(368,1886,o),
(333,1886,cs),
(292,1886,o),
(250,1874,o),
(210,1848,cs),
(152,1810,o),
(56,1682,o),
(56,1629,cs),
(56,1623,o),
(57,1618,o),
(60,1614,cs),
(68,1602,o),
(84,1596,o),
(106,1596,cs)
);
}
);
width = 476;
}
);
unicode = 180;
},
{
glyphname = hungarumlaut;
lastChange = "2021-06-09 17:49:05 +0000";
layers = (
{
layerId = "9B85AB65-32D7-4FED-B27C-3C7447013A9D";
shapes = (
{
closed = 1;
nodes = (
(427,1607,o),
(437,1603,o),
(451,1603,cs),
(470,1603,o),
(496,1611,o),
(524,1624,cs),
(570,1646,o),
(622,1688,o),
(672,1726,cs),
(728,1769,o),
(749,1803,o),
(749,1830,cs),
(749,1870,o),
(700,1891,o),
(651,1891,cs),
(619,1891,o),
(587,1882,o),
(566,1864,cs),
(518,1822,o),
(474,1770,o),
(446,1724,cs),
(426,1690,o),
(413,1659,o),
(413,1637,cs),
(413,1628,o),
(415,1621,o),
(420,1616,c)
);
},
{
closed = 1;
nodes = (
(127,1607,o),
(137,1603,o),
(151,1603,cs),
(170,1603,o),
(196,1611,o),
(224,1624,cs),
(270,1646,o),
(322,1688,o),
(372,1726,cs),
(428,1769,o),
(449,1803,o),
(449,1830,cs),
(449,1870,o),
(400,1891,o),
(351,1891,cs),
(319,1891,o),
(287,1882,o),
(266,1864,cs),
(218,1822,o),
(174,1770,o),
(146,1724,cs),
(126,1690,o),
(113,1659,o),
(113,1637,cs),
(113,1628,o),
(115,1621,o),
(120,1616,c)
);
}
);
width = 760;
}
);
unicode = 733;
},
{
glyphname = circumflex;
lastChange = "2021-06-09 17:49:05 +0000";
layers = (
{
layerId = "9B85AB65-32D7-4FED-B27C-3C7447013A9D";
shapes = (
{
closed = 1;
nodes = (
(154,1598,ls),
(192,1598,o),
(222,1612,o),
(246,1640,cs),
(326,1734,l),
(404,1640,ls),
(428,1612,o),
(460,1598,o),
(498,1598,cs),
(526,1598,ls),
(567,1598,o),
(590,1615,o),
(590,1641,cs),
(590,1655,o),
(583,1672,o),
(568,1690,cs),
(418,1876,ls),
(396,1904,o),
(366,1918,o),
(328,1918,cs),
(324,1918,ls),
(286,1918,o),
(256,1904,o),
(232,1876,cs),
(82,1690,ls),
(68,1672,o),
(61,1656,o),
(61,1642,cs),
(61,1616,o),
(84,1598,o),
(124,1598,cs)
);
}
);
width = 644;
}
);
unicode = 710;
},
{
glyphname = caron;
lastChange = "2021-06-09 17:49:05 +0000";
layers = (
{
layerId = "9B85AB65-32D7-4FED-B27C-3C7447013A9D";
shapes = (
{
closed = 1;
nodes = (
(328,1598,ls),
(366,1598,o),
(396,1612,o),
(418,1640,cs),
(568,1826,ls),
(583,1844,o),
(590,1861,o),
(590,1875,cs),
(590,1901,o),
(567,1918,o),
(526,1918,cs),
(498,1918,ls),
(460,1918,o),
(428,1904,o),
(404,1876,cs),
(326,1782,l),
(246,1876,ls),
(222,1904,o),
(192,1918,o),
(154,1918,cs),
(124,1918,ls),
(84,1918,o),
(61,1900,o),
(61,1874,cs),
(61,1860,o),
(68,1844,o),
(82,1826,cs),
(232,1640,ls),
(256,1612,o),
(286,1598,o),
(324,1598,cs)
);
}
);
width = 630;
}
);
unicode = 711;
},
{
glyphname = breve;
lastChange = "2021-06-09 17:49:05 +0000";
layers = (
{
layerId = "9B85AB65-32D7-4FED-B27C-3C7447013A9D";
shapes = (
{
closed = 1;
nodes = (
(384,1598,o),
(438,1618,o),
(482,1658,cs),
(526,1696,o),
(556,1754,o),
(570,1826,cs),
(571,1834,o),
(572,1843,o),
(572,1852,cs),
(572,1881,o),
(563,1910,o),
(528,1918,cs),
(523,1919,o),
(518,1920,o),
(514,1920,cs),
(478,1920,o),
(459,1886,o),
(438,1850,cs),
(414,1810,o),
(388,1766,o),
(326,1766,cs),
(316,1766,ls),
(260,1768,o),
(234,1812,o),
(212,1852,cs),
(190,1888,o),
(174,1919,o),
(137,1919,cs),
(133,1919,o),
(129,1919,o),
(124,1918,cs),
(89,1910,o),
(80,1881,o),
(80,1852,cs),
(80,1843,o),
(81,1834,o),
(82,1826,cs),
(92,1754,o),
(130,1696,o),
(176,1658,cs),
(222,1618,o),
(278,1598,o),
(328,1598,cs)
);
}
);
width = 580;
}
);
unicode = 728;
},
{
glyphname = ring;
lastChange = "2020-09-28 20:42:28 +0000";
layers = (
{
layerId = "9B85AB65-32D7-4FED-B27C-3C7447013A9D";
shapes = (
{
closed = 1;
nodes = (
(294,1592,o),
(362,1660,o),
(362,1742,cs),
(362,1830,o),
(294,1898,o),
(206,1898,cs),
(120,1898,o),
(52,1830,o),
(52,1742,cs),
(52,1660,o),
(120,1592,o),
(206,1592,cs)
);
},
{
closed = 1;
nodes = (
(174,1682,o),
(144,1710,o),
(144,1742,cs),
(144,1776,o),
(174,1804,o),
(206,1804,cs),
(240,1804,o),
(268,1776,o),
(268,1742,cs),
(268,1710,o),
(240,1682,o),
(206,1682,cs)
);
}
);
width = 368;
}
);
unicode = 730;
},
{
glyphname = tilde;
lastChange = "2021-06-09 17:49:05 +0000";
layers = (
{
layerId = "9B85AB65-32D7-4FED-B27C-3C7447013A9D";
shapes = (
{
closed = 1;
nodes = (
(736,1600,o),
(804,1648,o),
(850,1738,c),
(857,1753,o),
(863,1772,o),
(863,1789,cs),
(863,1808,o),
(856,1826,o),
(834,1838,cs),
(824,1843,o),
(815,1846,o),
(806,1846,cs),
(779,1846,o),
(754,1823,o),
(730,1800,cs),
(701,1773,o),
(669,1745,o),
(624,1745,cs),
(616,1745,o),
(607,1746,o),
(598,1748,c),
(558,1762,o),
(538,1770,o),
(500,1796,cs),
(431,1844,o),
(357,1870,o),
(287,1870,cs),
(276,1870,o),
(265,1869,o),
(254,1868,cs),
(174,1858,o),
(104,1812,o),
(62,1724,cs),
(54,1708,o),
(47,1689,o),
(47,1671,cs),
(47,1652,o),
(55,1634,o),
(76,1622,cs),
(86,1617,o),
(95,1614,o),
(103,1614,cs),
(131,1614,o),
(154,1638,o),
(180,1662,cs),
(209,1687,o),
(241,1715,o),
(286,1715,cs),
(294,1715,o),
(303,1714,o),
(312,1712,cs),
(352,1702,o),
(374,1690,o),
(412,1664,cs),
(479,1616,o),
(553,1590,o),
(624,1590,cs),
(635,1590,o),
(647,1591,o),
(658,1592,cs)
);
}
);
width = 868;
}
);
unicode = 732;
},
{
glyphname = macron;
lastChange = "2020-09-28 20:42:28 +0000";
layers = (
{
layerId = "9B85AB65-32D7-4FED-B27C-3C7447013A9D";
shapes = (
{
closed = 1;
nodes = (
(734,1614,ls),
(794,1614,o),
(824,1644,o),
(824,1704,cs),
(824,1764,o),
(794,1794,o),
(734,1794,cs),
(154,1794,ls),
(94,1794,o),
(64,1764,o),
(64,1704,cs),
(64,1644,o),
(94,1614,o),
(154,1614,cs)
);
}
);
width = 860;
}
);
unicode = 175;
},
{
glyphname = cedilla;
lastChange = "2020-09-28 20:42:33 +0000";
layers = (
{
layerId = "9B85AB65-32D7-4FED-B27C-3C7447013A9D";
shapes = (
{
closed = 1;
nodes = (
(467,-539,o),
(622,-469,o),
(622,-327,cs),
(622,-219,o),
(549,-172,o),
(456,-172,cs),
(403,-172,o),
(355,-181,o),
(318,-213,c),
(373,-60,ls),
(376,-50,o),
(378,-37,o),
(378,-28,cs),
(378,9,o),
(343,29,o),
(296,29,cs),
(239,29,o),
(191,-16,o),
(175,-60,cs),
(124,-203,ls),
(118,-217,o),
(113,-233,o),
(113,-247,cs),
(113,-291,o),
(138,-327,o),
(199,-327,cs),
(259,-327,o),
(289,-304,o),
(352,-304,cs),
(382,-304,o),
(398,-315,o),
(398,-334,cs),
(398,-364,o),
(355,-379,o),
(287,-379,cs),
(229,-379,o),
(163,-361,o),
(133,-361,cs),
(94,-361,o),
(58,-388,o),
(58,-434,cs),
(58,-511,o),
(147,-539,o),
(261,-539,cs)
);
}
);
width = 612;
}
);
unicode = 184;
},
